<svg width="480" height="480" viewBox="0 0 480 480" fill="none" xmlns="http://www.w3.org/2000/svg">
<rect width="480" height="480" rx="24" fill="#2C2C2C"/>
<path d="M399.98 80H79.9805C57.9205 80 39.9805 97.94 39.9805 120V360C39.9805 382.06 57.9205 400 79.9805 400H399.98C422.04 400 439.98 382.06 439.98 360V120C439.98 97.94 422.04 80 399.98 80ZM129.98 140C137.937 140 145.568 143.161 151.194 148.787C156.82 154.413 159.98 162.044 159.98 170C159.98 177.956 156.82 185.587 151.194 191.213C145.568 196.839 137.937 200 129.98 200C122.024 200 114.393 196.839 108.767 191.213C103.141 185.587 99.9805 177.956 99.9805 170C99.9805 162.044 103.141 154.413 108.767 148.787C114.393 143.161 122.024 140 129.98 140ZM239.98 340H99.9805L179.98 240L209.98 280L269.98 200L379.98 340H239.98Z" fill="#DFDFDF"/>
</svg>
