<svg width="2499" height="1726" viewBox="0 0 2499 1726" fill="none" xmlns="http://www.w3.org/2000/svg">
<path d="M2363.31 895.293C2322.18 1366.47 2035.3 1638.97 1259.92 1638.97C484.538 1638.97 124.101 1354.07 129.618 917.575C135.366 462.783 272.491 0.761586 1205.77 0.00158562C2417.27 -0.985414 2401.39 458.985 2363.31 895.293Z" fill="#F7EEE7"/>
<path d="M1584.58 1554.98C1638.69 1552.46 1701.36 1558.99 1746.15 1525.17C1806.38 1477.63 1795.7 1385.87 1735.89 1342.48C1689.61 1307.81 1627.3 1306.29 1569.48 1306.19C1443.71 1305.97 1317.93 1305.76 1192.16 1305.54C1129.27 1305.43 1066.38 1305.18 1003.48 1305.21C934.13 1305.26 846.806 1334.42 828.148 1409.47C812.94 1470.65 850.928 1530.66 911.214 1546.4C950.213 1556.58 990.951 1556.85 1031.25 1555.89C1215.69 1551.48 1400.13 1559.39 1584.58 1554.98Z" fill="white"/>
<path d="M1281.51 1442.59C1281.51 1452.95 1279.5 1461.69 1275.47 1468.81C1271.44 1475.9 1266 1481.28 1259.15 1484.95C1252.3 1488.59 1244.66 1490.4 1236.24 1490.4C1227.75 1490.4 1220.09 1488.57 1213.24 1484.9C1206.42 1481.21 1201 1475.81 1196.97 1468.72C1192.97 1461.6 1190.97 1452.89 1190.97 1442.59C1190.97 1432.22 1192.97 1423.49 1196.97 1416.4C1201 1409.28 1206.42 1403.9 1213.24 1400.27C1220.09 1396.6 1227.75 1394.77 1236.24 1394.77C1244.66 1394.77 1252.3 1396.6 1259.15 1400.27C1266 1403.9 1271.44 1409.28 1275.47 1416.4C1279.5 1423.49 1281.51 1432.22 1281.51 1442.59ZM1255.51 1442.59C1255.51 1437.01 1254.77 1432.31 1253.28 1428.49C1251.83 1424.65 1249.66 1421.74 1246.78 1419.77C1243.94 1417.77 1240.42 1416.77 1236.24 1416.77C1232.06 1416.77 1228.53 1417.77 1225.65 1419.77C1222.8 1421.74 1220.63 1424.65 1219.15 1428.49C1217.69 1432.31 1216.97 1437.01 1216.97 1442.59C1216.97 1448.16 1217.69 1452.87 1219.15 1456.72C1220.63 1460.54 1222.8 1463.45 1225.65 1465.45C1228.53 1467.42 1232.06 1468.4 1236.24 1468.4C1240.42 1468.4 1243.94 1467.42 1246.78 1465.45C1249.66 1463.45 1251.83 1460.54 1253.28 1456.72C1254.77 1452.87 1255.51 1448.16 1255.51 1442.59ZM1318.48 1396.04V1489.13H1293.21V1396.04H1318.48ZM1354.64 1489.13H1327.36L1358.09 1396.04H1392.64L1423.36 1489.13H1396.09L1375.73 1421.68H1375L1354.64 1489.13ZM1349.55 1452.4H1400.82V1471.31H1349.55V1452.4Z" fill="#595959"/>
<path d="M2035.19 1725.57C2132.31 1725.57 2211.05 1709.8 2211.05 1690.34C2211.05 1670.88 2132.31 1655.1 2035.19 1655.1C1938.06 1655.1 1859.32 1670.88 1859.32 1690.34C1859.32 1709.8 1938.06 1725.57 2035.19 1725.57Z" fill="#DBCBBF"/>
<path d="M2053.36 1447.19C2051.12 1493.69 2067.38 1608.55 2073.78 1663.84C2092.49 1666.1 2098.21 1665.83 2117.28 1661.32C2130.04 1607.26 2150.57 1486.1 2145.37 1432.83C2138.8 1365.56 2054.55 1422.66 2053.36 1447.19Z" fill="#F4CCB5"/>
<path d="M2068.61 1641.27H2122.62L2119.28 1685.11H2075.1L2068.61 1641.27Z" fill="#E6F1FC"/>
<path d="M2117.8 1671.56C2124.37 1671.56 2130.27 1681.65 2130.27 1691.73C2130.27 1701.82 2127.74 1712.44 2123.67 1712.44C2119.6 1712.44 2079.36 1712.44 2073.13 1712.44C2068.62 1712.44 2064.75 1708.31 2066.28 1693.66C2067.81 1679.07 2067.65 1671.56 2077.54 1671.56C2087.43 1671.56 2111.22 1671.56 2117.8 1671.56Z" fill="#739AF0"/>
<path d="M2008.2 1447.19C2010.44 1493.69 1994.18 1608.55 1987.78 1663.84C1969.07 1666.1 1963.35 1665.83 1944.29 1661.32C1931.52 1607.26 1910.99 1486.1 1916.19 1432.83C1922.76 1365.56 2007.02 1422.66 2008.2 1447.19Z" fill="#F4CCB5"/>
<path d="M1992.95 1641.27H1938.94L1942.28 1685.11H1986.47L1992.95 1641.27Z" fill="#E6F1FC"/>
<path d="M1943.77 1671.56C1937.19 1671.56 1931.29 1681.65 1931.29 1691.73C1931.29 1701.82 1933.82 1712.44 1937.89 1712.44C1941.96 1712.44 1982.2 1712.44 1988.43 1712.44C1992.95 1712.44 1996.81 1708.31 1995.28 1693.66C1993.75 1679.07 1993.91 1671.56 1984.02 1671.56C1974.13 1671.56 1950.34 1671.56 1943.77 1671.56Z" fill="#739AF0"/>
<path d="M1916.41 1288.09C1916.41 1288.09 2047.08 1301.69 2125.48 1283.16C2125.48 1283.16 2153.18 1340.31 2153.18 1393.55C2153.18 1446.8 2131.2 1657.71 2131.2 1657.71C2131.2 1657.71 2083.83 1672.3 2037.72 1661.92C2037.72 1661.92 2035.4 1435.81 2035.72 1426.67C2036.04 1417.53 2015.7 1424.23 2015.7 1424.23L2011.18 1660.64C2011.18 1660.64 1930.1 1665.54 1921.97 1652.78C1921.97 1652.78 1895.92 1424.74 1904.48 1354.11C1910.97 1300.59 1916.41 1288.09 1916.41 1288.09Z" fill="#3065A5"/>
<path d="M2057.79 1403.9C2058.79 1398.91 2041.47 1414.4 2025.44 1416.91C2010.19 1419.3 1991.68 1408.78 1993.11 1412.68C1996.21 1421.16 2005.5 1428.03 2005.5 1439C2006.3 1478.3 2007.1 1622.36 2004.22 1660.98C2008.56 1660.8 2011.18 1660.64 2011.18 1660.64L2015.7 1424.23C2015.7 1424.23 2036.04 1417.53 2035.72 1426.67C2035.4 1435.81 2037.72 1661.92 2037.72 1661.92C2040.92 1662.64 2044.13 1663.23 2047.32 1663.73C2040.5 1538.92 2055.53 1415.27 2057.79 1403.9Z" fill="#3065A5"/>
<path d="M1916.41 1288.09C1916.41 1288.09 1910.97 1300.59 1904.48 1354.11C1903.64 1361.08 1903.13 1368.62 1902.9 1376.53C1902.9 1376.53 1909.83 1346.55 1934.6 1341.74C1993.03 1330.38 2101.85 1326.53 2149.09 1364.4C2149.62 1364.83 2150.27 1364.92 2150.86 1365.18C2144.21 1321.83 2125.48 1283.16 2125.48 1283.16C2047.08 1301.69 1916.41 1288.09 1916.41 1288.09Z" fill="#3065A5"/>
<path d="M1915.38 1387.68C1933.19 1388.17 1950.16 1377.21 1959.18 1359.3C1961.6 1354.47 1963.42 1349.22 1964.56 1343.79C1965 1341.73 1962.27 1340.85 1961.84 1342.91C1957.9 1361.71 1945.5 1376.92 1929.53 1382.28C1924.92 1383.82 1920.17 1384.52 1915.38 1384.39C1913.57 1384.34 1913.57 1387.63 1915.38 1387.68Z" fill="#3065A5"/>
<path d="M2084.31 1347.89C2088.54 1370.67 2104.05 1389.03 2123.56 1394.17C2129.23 1395.66 2135.09 1396.07 2140.87 1395.32C2142.65 1395.08 2142.67 1391.79 2140.87 1392.02C2131.11 1393.3 2121.11 1391.22 2112.39 1385.94C2104.12 1380.95 2097.25 1373.2 2092.58 1363.81C2089.99 1358.58 2088.13 1352.92 2087.03 1347.02C2086.65 1344.95 2083.93 1345.83 2084.31 1347.89Z" fill="#3065A5"/>
<path d="M2098.95 1010.42H1944.19V1119.95H2098.95V1010.42Z" fill="#E6967A"/>
<path d="M1898.15 1309.77C1898.15 1264.97 1900.6 1163.78 1898.71 1138.96C1898.54 1100.21 1890.02 1094.62 1946.27 1082.47C1946.27 1082.47 1967.97 1097.25 2017.87 1097.25C2074.27 1097.25 2098.95 1079.53 2098.95 1079.53C2098.95 1079.53 2146.81 1090.96 2148.76 1107.72C2151.6 1132.09 2151.54 1182.9 2152.06 1193.87C2153.43 1222.65 2162.33 1313.01 2152.06 1321.69C2137.35 1334.12 1898.15 1335.7 1898.15 1309.77Z" fill="#F2F5F7"/>
<path d="M2145.53 1313.32C2133.28 1323.67 1941.27 1341.46 1908.2 1304.06C1894.42 1288.48 1917.57 1154.79 1898.99 1144.01C1900.32 1175.29 1898.15 1267.56 1898.15 1309.77C1898.15 1335.7 2137.35 1334.12 2152.06 1321.69C2162.33 1313.01 2153.43 1222.65 2152.06 1193.87C2151.75 1187.33 2151.65 1166.62 2151.01 1145.79C2150.57 1148.35 2157.32 1303.36 2145.53 1313.32Z" fill="#DADEE3"/>
<path d="M2099.51 1077C2099.51 1077 2102.59 1082.91 2107.43 1088.87C2112.26 1094.84 2051.87 1144.01 2051.87 1144.01C2051.87 1144.01 2063.74 1114.43 2016.21 1097.22C2016.21 1097.22 2053.05 1094.19 2071.46 1088.91C2085.14 1084.98 2099.51 1077 2099.51 1077Z" fill="#E4EBF3"/>
<path d="M1943.62 1078.65C1943.62 1078.65 1941.26 1084.56 1936.67 1090.52C1932.07 1096.48 1985.5 1144.01 1985.5 1144.01C1985.5 1144.01 1974.71 1107.56 2019.84 1097.22C2019.84 1097.22 1981.68 1093.22 1967.38 1088.91C1954.42 1085 1943.62 1078.65 1943.62 1078.65Z" fill="#E4EBF3"/>
<path d="M2363.43 803.327C2375.33 788.251 2396.99 781.48 2417.29 784.154C2437.58 786.828 2456.28 798.047 2469.93 812.779C2493.63 838.365 2502.55 875.105 2492.71 906.626C2482.88 938.147 2454.62 963.389 2420.52 971.104C2402.27 975.235 2382.18 974.446 2364.77 966.735C2347.35 959.024 2333.05 943.908 2329.24 926.345L2363.43 803.327Z" fill="#F4CCB5"/>
<path d="M2419.13 905.939C2417.33 904.029 2419.02 899.98 2420.46 894.371C2421.97 888.802 2423.12 881.302 2421.53 873.703C2419.9 866.105 2415.73 859.4 2412.02 854.614C2408.37 849.765 2405.11 846.457 2406.01 844.144C2406.46 843.048 2407.96 842.377 2410.44 842.404C2412.92 842.423 2416.33 843.252 2420.16 845.187C2423.99 847.11 2428.16 850.235 2431.79 854.595C2435.42 858.932 2438.44 864.575 2439.83 870.967C2441.16 877.366 2440.64 883.536 2439.02 888.659C2437.4 893.804 2434.78 897.944 2431.98 900.859C2429.17 903.787 2426.31 905.554 2424 906.29C2421.68 907.032 2419.99 906.839 2419.13 905.939Z" fill="#E6967A"/>
<path d="M1718.36 723.288C1713.83 704.627 1696.96 689.441 1677.4 683.409C1657.84 677.378 1636.16 679.782 1617.62 687.484C1585.41 700.859 1561.98 730.536 1557.78 763.287C1553.58 796.039 1568.75 830.765 1596.52 851.99C1611.39 863.355 1629.98 871.011 1649.02 871.262C1668.07 871.513 1687.37 863.738 1698.16 849.361L1718.36 723.288Z" fill="#F4CCB5"/>
<path d="M1624.96 793.341C1627.39 792.355 1627.54 787.968 1628.57 782.271C1629.52 776.578 1631.6 769.279 1636.22 763.039C1640.86 756.811 1647.45 752.455 1652.81 749.651C1658.16 746.766 1662.49 745.117 1662.64 742.638C1662.69 741.456 1661.61 740.219 1659.34 739.208C1657.08 738.194 1653.63 737.525 1649.34 737.685C1645.06 737.836 1639.97 738.941 1634.85 741.389C1629.74 743.817 1624.64 747.689 1620.72 752.919C1616.85 758.184 1614.74 764.005 1614.08 769.339C1613.41 774.69 1614.06 779.547 1615.4 783.364C1616.72 787.193 1618.59 789.992 1620.38 791.626C1622.18 793.27 1623.8 793.798 1624.96 793.341Z" fill="#E6967A"/>
<path d="M2154.71 1082.7C2207.22 1064.56 2263.53 1037.87 2309.16 1001.5C2348.8 969.787 2374.88 934.196 2397.07 897.596C2413.35 861.918 2514.56 572.595 2425.93 509.761C2349.73 456.415 2313.02 449.065 2141.99 412C1970.14 373.357 1886.52 379.349 1777.49 427.307C1659.5 479.2 1655.14 756.64 1661.89 802.407C1669.23 850.391 1682 898.651 1711.19 943.905C1744.84 995.92 1794.09 1035.81 1841.72 1062.7C1889.68 1089.72 1940.5 1103.69 1994.77 1106.49C2049.06 1109.27 2101.93 1100.76 2154.71 1082.7Z" fill="#F4CCB5"/>
<path d="M2425.92 509.76C2349.73 456.414 2313.02 449.064 2141.99 411.999C1970.14 373.356 1886.52 379.348 1777.49 427.306C1700.54 461.15 1671.92 590.924 1663.19 689.803C1723.78 690.569 1783.88 660.18 1835.93 628.888C1876.26 605.064 1916.05 532.494 1934.88 490.516C1935.67 632.261 2271.9 780.159 2443.84 746.867C2465.45 653.293 2476.06 545.3 2425.92 509.76Z" fill="#E0A089"/>
<path d="M2322.61 854.806C2325.91 807.875 2284.24 766.703 2229.53 762.847C2174.82 758.991 2127.79 793.911 2124.48 840.843C2121.17 887.774 2162.84 928.946 2217.55 932.802C2272.27 936.657 2319.3 901.738 2322.61 854.806Z" fill="#E8948B"/>
<path d="M1916.32 823.355C1919.63 776.424 1876.56 735.154 1820.12 731.176C1763.68 727.198 1715.24 762.019 1711.94 808.951C1708.63 855.882 1751.7 897.152 1808.14 901.13C1864.58 905.108 1913.01 870.287 1916.32 823.355Z" fill="#E8948B"/>
<path d="M1940.57 693.479C1944.42 643.628 1913.45 600.587 1871.41 597.344C1829.37 594.102 1792.18 631.885 1788.33 681.736C1784.49 731.587 1815.45 774.628 1857.49 777.871C1899.53 781.114 1936.73 743.33 1940.57 693.479Z" fill="white"/>
<path d="M1933.58 698.185C1936.89 655.239 1909.2 618.081 1871.72 615.191C1834.24 612.3 1801.17 644.771 1797.86 687.716C1794.55 730.662 1822.24 767.82 1859.72 770.711C1897.2 773.601 1930.27 741.13 1933.58 698.185Z" fill="#364870"/>
<path d="M1843.99 672.671C1843.24 670.146 1840.54 668.558 1836.57 668.89C1832.64 669.189 1827.53 671.609 1823.27 676.221C1819.01 680.837 1816.61 686.532 1816.12 691.011C1815.61 695.535 1816.84 698.713 1819 699.715C1821.21 700.748 1823.88 699.7 1826.6 697.911C1829.32 696.08 1832.15 693.507 1834.98 690.421C1837.83 687.357 1840.24 684.27 1841.99 681.257C1843.7 678.255 1844.76 675.258 1843.99 672.671Z" fill="white"/>
<path d="M2271.48 715.571C2275.33 665.72 2244.37 622.679 2202.33 619.437C2160.29 616.194 2123.09 653.978 2119.24 703.829C2115.4 753.68 2146.36 796.721 2188.4 799.964C2230.44 803.206 2267.64 765.422 2271.48 715.571Z" fill="white"/>
<path d="M2262.84 720.152C2266.15 677.207 2238.45 640.049 2200.97 637.158C2163.49 634.267 2130.43 666.738 2127.11 709.684C2123.8 752.63 2151.5 789.787 2188.98 792.678C2226.46 795.569 2259.52 763.098 2262.84 720.152Z" fill="#364870"/>
<path d="M2219.39 698.181C2220.52 695.801 2223.43 694.645 2227.31 695.583C2231.15 696.481 2235.81 699.654 2239.32 704.865C2242.83 710.08 2244.32 716.075 2244.12 720.575C2243.93 725.125 2242.23 728.077 2239.94 728.735C2237.6 729.417 2235.12 727.971 2232.71 725.788C2230.3 723.56 2227.9 720.585 2225.57 717.101C2223.23 713.636 2221.32 710.217 2220.06 706.972C2218.82 703.743 2218.23 700.618 2219.39 698.181Z" fill="white"/>
<path d="M2054.4 781.285C2056.08 782.972 2056.44 785.631 2055.71 787.91C2055.5 788.611 2055.2 789.354 2054.8 790.133C2054.4 790.888 2053.87 791.622 2053.26 792.406C2051.91 794.099 2050.19 795.519 2048.26 796.714C2047.22 797.411 2046.07 797.907 2044.83 798.469C2043.59 798.993 2042.25 799.391 2040.84 799.771C2017.4 805.186 1996.88 782.282 2004.81 759.586C2005.34 758.22 2005.88 756.936 2006.54 755.761C2007.23 754.59 2007.85 753.499 2008.66 752.54C2010.05 750.755 2011.66 749.192 2013.48 748.035C2014.33 747.512 2015.12 747.071 2015.91 746.75C2016.73 746.441 2017.5 746.222 2018.22 746.087C2026.84 744.487 2026.87 754.794 2028.9 760.473C2029.03 760.966 2029.29 761.525 2029.43 762.01C2029.61 762.512 2029.84 763.026 2030.01 763.502C2030.77 765.219 2031.65 767.052 2032.75 768.391C2033.21 768.958 2033.6 769.372 2033.9 769.752C2034.24 770.09 2034.61 770.519 2035.12 771.044C2036.34 772.276 2038.06 773.355 2039.69 774.296C2040.14 774.513 2040.63 774.801 2041.11 775.032C2041.57 775.228 2042.1 775.548 2042.58 775.724C2046.38 777.661 2051.26 778.283 2054.4 781.285Z" fill="#F1775B"/>
<path d="M1919.48 842.132C1969.86 874.477 2035.42 876.68 2087.43 846.784C2101.27 838.83 2113.91 828.957 2124.85 817.332C2129.27 812.637 2122.73 804.915 2118.27 809.655C2080.59 849.698 2023.22 867.131 1969.78 853.256C1953.98 849.156 1938.97 842.636 1925.24 833.822C1919.77 830.306 1914 838.612 1919.48 842.132Z" fill="#B83E3E"/>
<path d="M2163.79 583.762C2197.03 584.771 2229.52 597.662 2254.03 620.235C2258.64 624.475 2266.15 618.123 2261.5 613.837C2235.06 589.487 2200.55 575.052 2164.55 573.959C2158.24 573.767 2157.45 583.569 2163.79 583.762Z" fill="#364870"/>
<path d="M1824.61 585.824C1854.4 571.047 1889.13 567.099 1921.39 575.451C1927.45 577.02 1931.08 567.875 1924.96 566.289C1890.16 557.28 1852.92 560.814 1820.66 576.823C1815.01 579.626 1818.93 588.644 1824.61 585.824Z" fill="#364870"/>
<path d="M2446.93 434.402C2439.09 420.216 2430.39 406.486 2420.77 393.312C2407.71 375.445 2392.68 358.771 2376.11 343.793C2334.85 249.907 2226.88 198.798 2122.42 184.499C1984.83 165.666 1864.7 206.975 1749.62 278.763C1663.71 332.36 1630.54 382.844 1579.12 492.848C1488.79 763.494 1666.16 826.901 1666.16 826.901C1666.16 826.901 1667.66 770.902 1681.44 698.245C1729.67 690.627 1793.96 651.921 1825.61 613.658C1865.22 565.769 1918.33 474.337 1940.57 416.302C1942.83 488.721 1974.79 588.674 2044.24 616.772C2034.01 586.932 2030.89 554.685 2035.2 523.438C2068.32 587.73 2126.97 638.417 2195.39 661.866C2237.46 676.286 2282.94 680.29 2326.97 674.164C2361.43 687.47 2398.7 699.764 2438.97 710.598L2428.05 821.145C2428.05 821.145 2491.13 678.729 2492.9 614.35C2494.73 547.174 2479.75 493.782 2446.93 434.402Z" fill="#ED7D2B"/>
<path d="M2459.85 347.866C2457.73 348.452 2455.36 347.869 2453.76 346.15C2430.14 320.905 2390.71 310.758 2357.83 321.463C2354.63 322.518 2351.17 320.755 2350.12 317.546C2349.08 314.337 2350.83 310.888 2354.04 309.842C2391.85 297.511 2435.51 308.756 2462.68 337.801C2464.99 340.266 2464.86 344.133 2462.39 346.439C2461.65 347.136 2460.77 347.611 2459.85 347.866Z" fill="#ED7D2B"/>
<path d="M2335.29 297.811C2333.77 298.232 2332.09 298.066 2330.61 297.214C2327.69 295.528 2326.69 291.79 2328.37 288.866C2344.13 261.559 2374.67 243.314 2406.18 242.376C2409.56 242.276 2412.37 244.93 2412.47 248.304C2412.57 251.678 2409.91 254.496 2406.55 254.594C2379.17 255.405 2352.64 271.256 2338.96 294.975C2338.12 296.422 2336.79 297.398 2335.29 297.811Z" fill="#ED7D2B"/>
<path d="M2426.69 711.339C2425.96 711.54 2425.17 711.594 2424.38 711.47C2346.92 699.429 2277.7 644.765 2248.04 572.207C2246.89 569.395 2248.23 566.184 2251.05 565.035C2253.86 563.889 2257.07 565.233 2258.22 568.044C2286.46 637.107 2352.34 689.139 2426.07 700.6C2429.07 701.067 2431.12 703.878 2430.66 706.88C2430.32 709.086 2428.71 710.78 2426.69 711.339Z" fill="#ED7D2B"/>
<path d="M2208.88 672.492C2207.86 672.772 2206.76 672.765 2205.69 672.411C2148.21 653.413 2096.65 617.256 2056.59 567.85C2016.52 518.444 1991.8 460.528 1985.09 400.362C1984.75 397.342 1986.94 394.628 1989.94 394.286C1992.96 393.95 1995.68 396.124 1996.02 399.143C2002.5 457.213 2026.4 513.155 2065.13 560.923C2103.87 608.69 2153.66 643.631 2209.14 661.968C2212.03 662.921 2213.59 666.032 2212.64 668.916C2212.04 670.727 2210.59 672.019 2208.88 672.492Z" fill="#ED7D2B"/>
<path d="M1997.42 582.818C1995.39 583.379 1993.13 582.743 1991.71 581.012C1950.11 530.483 1940.98 460.326 1933.64 403.954C1933.25 400.942 1935.36 398.188 1938.38 397.79C1941.4 397.398 1944.16 399.522 1944.55 402.535C1951.7 457.512 1960.61 525.931 2000.2 574.022C2002.13 576.367 2001.79 579.833 1999.45 581.764C1998.83 582.269 1998.14 582.619 1997.42 582.818Z" fill="#ED7D2B"/>
<path d="M1691.91 701.167C1690.65 701.513 1689.41 701.849 1688.15 702.177C1685.21 702.945 1682.21 701.184 1681.44 698.245C1680.68 695.331 1682.4 692.353 1685.29 691.553C1685.32 691.546 1685.34 691.54 1685.37 691.534C1729.95 679.876 1772.11 656.464 1807.21 623.813C1842.32 591.162 1868.72 550.835 1883.57 507.19C1884.55 504.315 1887.68 502.776 1890.55 503.755C1893.43 504.733 1894.96 507.856 1893.99 510.732C1878.55 556.094 1851.14 597.982 1814.7 631.868C1779.26 664.836 1736.87 688.744 1691.91 701.167Z" fill="#ED7D2B"/>
<path d="M1618.79 605.427C1617.83 605.692 1616.79 605.699 1615.76 605.396C1612.85 604.533 1611.19 601.473 1612.05 598.56C1634.24 523.67 1676.59 453.964 1734.54 396.98C1792.49 339.996 1862.9 298.816 1938.15 277.894C1938.15 277.893 1938.16 277.892 1938.16 277.891C1941.08 277.083 1944.11 278.795 1944.92 281.719C1945.74 284.646 1944.02 287.678 1941.1 288.491C1791.67 330.038 1666.65 452.974 1622.6 601.683C1622.04 603.574 1620.55 604.939 1618.79 605.427Z" fill="#ED7D2B"/>
<path d="M2403.14 545.303C2403.09 545.319 2403.03 545.336 2402.97 545.35C2400.01 546.063 2397.04 544.246 2396.33 541.294C2366.11 416.049 2267.32 309.679 2144.64 270.303C2141.75 269.374 2140.16 266.277 2141.09 263.385C2142.02 260.492 2145.12 258.901 2148.01 259.829C2274.25 300.352 2375.92 409.821 2407.02 538.714C2407.72 541.606 2405.99 544.516 2403.14 545.303Z" fill="#ED7D2B"/>
<path d="M2261.43 559.087C2274.13 576.136 2288.78 591.661 2304.88 605.537C2320.66 619.134 2337.92 631.01 2356.27 640.865C2366.95 646.603 2377.91 651.75 2389.23 656.133C2392.45 657.383 2396.62 655.671 2397.74 652.302C2398.87 648.885 2397.35 645.121 2393.91 643.787C2384.27 640.051 2374.84 635.791 2365.67 631.019C2365.13 630.738 2364.59 630.455 2364.05 630.172C2363.75 630.012 2362.94 629.614 2364.33 630.324C2364.06 630.186 2363.8 630.036 2363.53 629.893C2362.33 629.244 2361.13 628.586 2359.93 627.919C2357.74 626.697 2355.57 625.445 2353.41 624.165C2348.96 621.528 2344.59 618.77 2340.29 615.896C2331.76 610.19 2323.54 604.026 2315.67 597.438C2313.69 595.779 2311.73 594.093 2309.8 592.381C2308.89 591.575 2307.98 590.764 2307.08 589.946C2306.63 589.537 2306.18 589.127 2305.73 588.716C2305.51 588.513 2305.27 588.311 2305.06 588.097C2306.33 589.391 2305.22 588.247 2304.98 588.019C2301.21 584.485 2297.53 580.849 2293.96 577.115C2285.97 568.767 2278.5 559.927 2271.6 550.661C2269.53 547.888 2264.85 547.481 2262.3 549.789C2259.54 552.293 2259.22 556.117 2261.43 559.087Z" fill="#ED7D2B"/>
<path d="M2315.65 257.756C2259.78 215.586 2192.76 191.015 2123.65 181.814C2052.63 172.358 1979.78 178.147 1910.61 196.513C1841.71 214.81 1775.22 245.669 1719.68 290.71C1663.43 336.325 1618.6 395.896 1589.22 462.016C1560.08 527.574 1545.63 599.894 1550.02 671.649C1550.56 680.459 1551.4 689.248 1552.5 698.005C1553.3 704.379 1563.4 704.434 1562.6 698C1553.83 628.107 1563.39 556.823 1588.16 491C1613.1 424.708 1653.59 364.202 1705.65 316.159C1757.46 268.357 1820.89 234.794 1887.87 213.636C1954.76 192.504 2025.74 183.516 2095.75 188.955C2163.56 194.223 2230.89 213.769 2288.29 250.827C2295.22 255.305 2302.01 260.017 2308.6 264.991C2313.72 268.851 2320.84 261.673 2315.65 257.756Z" fill="#ED7D2B"/>
<path d="M1908.67 270.393C1858.14 261.415 1814.93 220.023 1803.78 169.926C1883.7 198.239 1970.59 206.632 2054.46 194.138L1908.67 270.393Z" fill="#ED7D2B"/>
<path d="M1966.75 196.784C1945.35 197.834 1923.83 196.87 1902.63 193.777C1881.23 190.655 1860.13 185.483 1839.72 178.338C1828.36 174.361 1817.24 169.752 1806.38 164.549C1803.74 163.282 1800.91 165.433 1801.54 168.329C1808.27 199.42 1825.79 228.06 1850.13 248.505C1857.04 254.311 1864.49 259.484 1872.37 263.887C1876.11 265.978 1879.39 260.192 1875.65 258.099C1849.01 243.215 1827.7 219.245 1815.74 191.184C1813.28 185.399 1811.24 179.433 1809.6 173.36C1827.38 181.428 1845.83 187.992 1864.72 192.895C1886.01 198.421 1907.86 201.878 1929.82 203.224C1942.12 203.978 1954.45 204.044 1966.75 203.441C1971.02 203.23 1971.03 196.574 1966.75 196.784Z" fill="#ED7D2B"/>
<path d="M2372.53 347.469C2395.57 369.003 2416.03 393.216 2433.21 419.669C2450.89 446.9 2465.1 476.377 2474.65 507.432C2483.82 537.231 2488.63 568.267 2488.39 599.459C2488.17 628.062 2483.58 656.377 2475.82 683.875C2467.32 713.982 2455.21 742.931 2441.45 770.983C2439.61 774.73 2437.74 778.46 2435.84 782.179C2434.59 784.648 2435.29 787.763 2437.78 789.173C2440.11 790.495 2443.51 789.719 2444.77 787.241C2459.58 758.164 2472.89 728.172 2482.62 696.99C2491.43 668.764 2497.11 639.508 2498.39 609.934C2499.74 578.603 2496.05 547.046 2488 516.754C2479.37 484.308 2465.72 453.176 2448.34 424.478C2431.55 396.753 2411.21 371.091 2388.18 348.283C2385.39 345.519 2382.56 342.799 2379.69 340.117C2374.87 335.615 2367.69 342.943 2372.53 347.469Z" fill="#4F2C2C"/>
<path d="M2023.28 1226.56C2023.28 1226.56 2025.03 1179.25 2024.86 1175.78C2024.68 1172.3 2017.62 1175.08 2016.98 1181.69C2016.33 1188.3 2018.02 1222.74 2023.28 1226.56Z" fill="#E6967A"/>
<path d="M2019.95 1215.99C2019.95 1215.99 2023.04 1163.56 2025.39 1152.45C2028.06 1139.89 2017.83 1133.51 2016.8 1143.63C2015.77 1153.75 2007.76 1211.81 2007.6 1214.46C2007.43 1217.11 2016.47 1224.46 2019.95 1215.99Z" fill="#E6967A"/>
<path d="M2016.22 1219.66C2016.22 1219.66 2016.95 1162.74 2020.56 1151.45C2022.85 1144.26 2017.32 1135.05 2013.85 1145.46C2012 1151.01 2004.22 1188.2 1999.62 1208.11C1996.05 1223.58 2007.05 1241.05 2006.94 1242.6C2006.94 1242.6 2013.2 1228.51 2016.22 1219.66Z" fill="#E8C2AC"/>
<path d="M2013.99 1253.98C2003.38 1257.21 1998.6 1253.43 1998.54 1241.27C1998.47 1229.1 2016.59 1165.29 2016.68 1157.28C2016.77 1149.27 2023.54 1157.12 2023.13 1164.14C2022.72 1171.16 2019.88 1198.72 2021.84 1208.15C2023.8 1217.59 2025.63 1250.43 2013.99 1253.98Z" fill="#F4CCB5"/>
<path d="M2025.55 1226.56C2025.55 1226.56 2023.79 1179.25 2023.97 1175.78C2024.14 1172.3 2031.21 1175.08 2031.85 1181.69C2032.49 1188.3 2030.81 1222.74 2025.55 1226.56Z" fill="#E6967A"/>
<path d="M2028.87 1215.99C2028.87 1215.99 2025.78 1163.56 2023.43 1152.45C2020.76 1139.89 2031 1133.51 2032.03 1143.63C2033.05 1153.75 2041.06 1211.81 2041.23 1214.46C2041.39 1217.11 2032.35 1224.46 2028.87 1215.99Z" fill="#E6967A"/>
<path d="M2032.6 1219.66C2032.6 1219.66 2031.87 1162.74 2028.27 1151.45C2025.98 1144.26 2031.51 1135.05 2034.98 1145.46C2036.82 1151.01 2044.6 1188.2 2049.21 1208.11C2052.78 1223.58 2041.78 1241.05 2041.88 1242.6C2041.88 1242.6 2035.63 1228.51 2032.6 1219.66Z" fill="#E8C2AC"/>
<path d="M2034.83 1253.98C2045.44 1257.21 2050.22 1253.43 2050.29 1241.27C2050.35 1229.1 2032.23 1165.29 2032.14 1157.28C2032.05 1149.27 2025.29 1157.12 2025.69 1164.14C2026.1 1171.16 2028.94 1198.72 2026.99 1208.15C2025.03 1217.59 2023.2 1250.43 2034.83 1253.98Z" fill="#F4CCB5"/>
<path d="M2149.16 1107.35C2158.93 1126.13 2169.42 1191.8 2172.49 1212.43C2176.63 1240.21 2148.33 1256.34 2130.42 1259.16C2101.87 1263.66 2052.9 1264.67 2049.76 1261.53C2046.62 1258.39 2045.97 1223.53 2045.97 1216.1C2045.97 1208.67 2051.5 1207.49 2058.27 1206.1C2064.37 1204.85 2093.14 1207.51 2116.43 1201.87C2120.34 1189.92 2124.85 1145.44 2126.78 1131.18C2128.32 1119.83 2143.3 1096.11 2149.16 1107.35Z" fill="#F2F5F7"/>
<path d="M2045.97 1216.1C2045.97 1223.53 2046.62 1258.39 2049.76 1261.53C2051.74 1263.51 2072.07 1263.84 2093.96 1262.67C2081.6 1262.29 2066.42 1261.87 2056.08 1257.36C2045.97 1252.96 2045.97 1212.16 2045.97 1216.1Z" fill="#DADEE3"/>
<path d="M2172.49 1212.43C2171.55 1206.11 2169.91 1195.55 2167.81 1183.42C2168.99 1210.97 2176.23 1235.97 2149.77 1249.68C2142.66 1253.36 2119.24 1260 2111.03 1261.46C2117.97 1260.84 2124.61 1260.07 2130.42 1259.16C2148.33 1256.34 2176.63 1240.21 2172.49 1212.43Z" fill="#DADEE3"/>
<path d="M2127.19 1205.7C2128.24 1208.73 2123.17 1157.7 2128.87 1123.9C2127.81 1126.55 2127.06 1129.08 2126.78 1131.18C2124.85 1145.44 2120.34 1189.92 2116.43 1201.87C2111.72 1203.01 2106.78 1203.81 2101.85 1204.37C2104.42 1205.76 2106.08 1204.87 2111.96 1204.13C2118 1203.36 2126.13 1202.68 2127.19 1205.7Z" fill="#DADEE3"/>
<path d="M1899.65 1107.35C1889.88 1126.13 1879.39 1191.8 1876.31 1212.43C1872.18 1240.21 1900.48 1256.34 1918.39 1259.16C1946.93 1263.66 1995.91 1264.67 1999.05 1261.53C2002.18 1258.39 2002.84 1223.53 2002.84 1216.1C2002.84 1208.67 1997.31 1207.49 1990.54 1206.1C1984.44 1204.85 1955.67 1207.51 1932.37 1201.87C1928.47 1189.92 1923.96 1145.44 1922.03 1131.18C1920.49 1119.83 1905.5 1096.11 1899.65 1107.35Z" fill="#F2F5F7"/>
<path d="M2002.84 1216.1C2002.84 1223.53 2002.18 1258.39 1999.05 1261.53C1997.06 1263.51 1976.74 1263.84 1954.85 1262.67C1967.21 1262.29 1982.39 1261.87 1992.73 1257.36C2002.84 1252.96 2002.84 1212.16 2002.84 1216.1Z" fill="#DADEE3"/>
<path d="M1876.31 1212.43C1877.25 1206.11 1878.89 1195.55 1880.99 1183.42C1879.81 1210.97 1869.39 1230.32 1899.04 1249.68C1905.74 1254.05 1929.56 1260 1937.78 1261.46C1930.84 1260.84 1924.19 1260.07 1918.39 1259.16C1900.48 1256.34 1872.18 1240.21 1876.31 1212.43Z" fill="#DADEE3"/>
<path d="M1925.12 1205.83C1924.07 1208.86 1925.63 1157.7 1919.93 1123.9C1921 1126.55 1921.74 1129.07 1922.03 1131.17C1923.96 1145.44 1928.47 1189.92 1932.37 1201.87C1937.09 1203.01 1942.02 1203.81 1946.95 1204.37C1944.38 1205.76 1942.73 1204.87 1936.85 1204.13C1930.81 1203.36 1926.18 1202.81 1925.12 1205.83Z" fill="#DADEE3"/>
<path d="M590.043 1725.57C684.991 1725.57 761.962 1712.04 761.962 1695.36C761.962 1678.67 684.991 1665.14 590.043 1665.14C495.095 1665.14 418.124 1678.67 418.124 1695.36C418.124 1712.04 495.095 1725.57 590.043 1725.57Z" fill="#DBCBBF"/>
<path d="M596.98 1238.54C714.265 1249.69 903.17 1264.42 903.17 1264.42C951.81 1222.13 985.853 1161.44 1004.37 1100.75C1037.5 992.156 1040.64 877.024 1026.85 764.582C1017.13 685.365 994.562 605.314 944.31 542.072C932.842 527.64 919.722 514.228 905.33 502.242C868.32 425.857 775.492 385.988 686.407 376.321C569.075 363.589 448.549 394.028 352.226 455.372C255.903 516.716 183.694 607.81 143.653 709.367C74.9319 883.667 105.922 1092.88 235.218 1237.99C235.218 1237.99 479.695 1227.4 596.98 1238.54Z" fill="#ED7D2B"/>
<path d="M930.67 528.4C957.536 571.094 979.317 616.869 995.61 664.607C1011.75 711.91 1022.67 761.036 1028.12 810.719C1033.6 860.619 1033.73 911.104 1028.52 961.033C1023.34 1010.75 1012.71 1059.94 996.881 1107.36C980.919 1155.17 959.541 1201.13 933.034 1244.01C929.779 1249.27 926.442 1254.49 923.039 1259.66C919.825 1264.54 927.665 1269.08 930.86 1264.23C958.925 1221.58 981.831 1175.64 999.35 1127.7C1016.8 1079.93 1028.72 1030.28 1035.36 979.872C1041.96 929.723 1043.15 878.856 1038.9 828.453C1034.64 777.836 1025.01 727.651 1009.88 679.152C994.767 630.711 974.219 583.897 948.454 540.171C945.215 534.674 941.889 529.23 938.491 523.83C935.394 518.907 927.554 523.447 930.67 528.4Z" fill="#A85049"/>
<path d="M212.158 1044.94C219.699 1070.39 229.574 1095.16 241.534 1118.86C253.375 1142.32 267.299 1164.73 283.077 1185.75C292.175 1197.87 301.844 1209.55 312.095 1220.71C313.702 1222.46 316.893 1222.46 318.5 1220.71C320.218 1218.84 320.214 1216.18 318.5 1214.31C314.033 1209.44 309.67 1204.49 305.422 1199.43C303.3 1196.9 301.206 1194.36 299.141 1191.78C297.167 1189.33 294.997 1186.56 293.457 1184.55C285.552 1174.23 278.097 1163.56 271.12 1152.58C264.077 1141.5 257.523 1130.11 251.486 1118.46C248.545 1112.78 245.726 1107.04 243.033 1101.23C241.655 1098.26 240.31 1095.28 238.999 1092.28C237.571 1089.02 236.757 1087.09 235.447 1083.9C229.903 1070.36 225.046 1056.55 220.892 1042.53C220.22 1040.26 217.68 1038.6 215.321 1039.36C213.023 1040.11 211.437 1042.5 212.158 1044.94Z" fill="#A85049"/>
<path d="M842.458 1254.19C863.905 1237.95 882.954 1218.94 899.27 1197.55C915.201 1176.66 928.185 1153.65 937.952 1129.28C943.379 1115.73 947.731 1101.76 950.939 1087.53C951.459 1085.22 950.237 1082.52 947.776 1081.96C945.476 1081.44 942.762 1082.65 942.205 1085.12C939.378 1097.66 935.666 1110 931.109 1122.02C928.704 1128.36 926.809 1132.87 924.008 1138.95C921.337 1144.74 918.47 1150.44 915.416 1156.04C909.22 1167.4 902.255 1178.34 894.593 1188.77C893.687 1190.01 892.771 1191.23 891.846 1192.45C891.626 1192.74 891.405 1193.03 891.183 1193.32C891.163 1193.35 890.286 1194.49 890.824 1193.79C890.288 1194.48 889.749 1195.17 889.207 1195.86C887.218 1198.38 885.187 1200.86 883.116 1203.32C878.967 1208.23 874.654 1213 870.187 1217.63C865.1 1222.9 859.812 1227.97 854.338 1232.83C851.595 1235.27 848.806 1237.66 845.972 1239.98C844.61 1241.1 843.238 1242.21 841.855 1243.3C841.163 1243.85 840.469 1244.4 839.772 1244.94C840.457 1244.4 839.311 1245.29 839.291 1245.31C838.824 1245.66 838.356 1246.02 837.887 1246.37C836.005 1247.8 834.828 1250.35 836.262 1252.57C837.461 1254.43 840.438 1255.72 842.458 1254.19Z" fill="#A85049"/>
<path d="M932.415 1048.87C929.363 1064.17 925.201 1079.25 919.984 1093.96C918.702 1097.57 917.357 1101.16 915.951 1104.73C915.234 1106.55 914.501 1108.36 913.752 1110.17C913.558 1110.63 913.362 1111.1 913.166 1111.57C912.963 1112.05 913.165 1111.57 913.2 1111.49C913.115 1111.69 913.03 1111.89 912.945 1112.09C912.547 1113.02 912.146 1113.95 911.739 1114.88C908.604 1122.06 905.217 1129.12 901.591 1136.07C894.351 1149.93 886.157 1163.29 877.098 1176.03C874.817 1179.24 872.48 1182.41 870.091 1185.54C869.958 1185.71 869.825 1185.89 869.692 1186.06C869.631 1186.14 869.08 1186.86 869.379 1186.47C869.647 1186.12 869.207 1186.69 869.197 1186.7C869.063 1186.88 868.928 1187.05 868.794 1187.22C868.166 1188.03 867.535 1188.83 866.9 1189.63C865.675 1191.18 864.437 1192.71 863.186 1194.23C858.174 1200.33 852.953 1206.26 847.534 1212C836.709 1223.47 825.093 1234.19 812.783 1244.05C811.232 1245.29 809.67 1246.51 808.099 1247.73C806.215 1249.18 806.453 1252.62 808.099 1254.13C810.096 1255.97 812.494 1255.69 814.504 1254.13C827.106 1244.39 839.022 1233.77 850.139 1222.37C861.375 1210.84 871.771 1198.51 881.329 1185.56C890.705 1172.86 899.209 1159.51 906.751 1145.64C914.38 1131.6 921.02 1117.02 926.635 1102.07C932.147 1087.39 936.619 1072.32 939.958 1057C940.373 1055.09 940.769 1053.19 941.151 1051.27C941.613 1048.96 940.49 1046.27 937.988 1045.7C935.736 1045.19 932.91 1046.38 932.415 1048.87Z" fill="#A85049"/>
<path d="M890.215 469.547C859.696 437.964 821.872 414.612 780.807 399.356C738.472 383.628 693.157 376.485 648.114 375.413C601.8 374.311 555.312 379.634 510.19 389.996C464.116 400.577 419.016 416.52 376.959 438.166C338.211 458.109 302.101 483.414 271.15 514.167C243.039 542.099 219.381 574.398 200.804 609.383C182.304 644.222 168.708 681.548 158.973 719.732C146.948 766.897 140.998 815.096 143.009 863.796C145.185 916.497 155.569 968.757 172.116 1018.79C188.912 1069.57 211.967 1118.3 239.98 1163.84C246.741 1174.83 253.806 1185.64 261.138 1196.26C264.428 1201.02 272.282 1196.5 268.959 1191.68C239.203 1148.58 213.899 1102.28 194.449 1053.62C175.115 1005.25 161.244 954.417 155.161 902.63C149.233 852.158 150.811 801.106 161.021 751.292C168.832 713.184 179.954 675.575 195.884 640.037C211.642 604.883 232.001 571.745 257.141 542.509C284.091 511.169 316.089 484.544 351.308 462.969C390.992 438.658 434.34 420.528 478.96 407.496C522.62 394.745 567.779 386.883 613.235 384.85C657.817 382.857 702.858 386.409 746.075 397.86C787.508 408.838 827.288 427.295 860.586 454.535C868.744 461.209 876.485 468.372 883.808 475.951C887.868 480.151 894.269 473.742 890.215 469.547Z" fill="#A85049"/>
<path d="M651.823 1038.11H497.062V1167.72H651.823V1038.11Z" fill="#E6967A"/>
<path d="M565.732 1437.37C580.803 1496.8 579.122 1597.61 577.495 1658.46L531.662 1655.89C525.121 1610.18 507.664 1493.17 490.931 1437.37H565.732Z" fill="#F4CCB5"/>
<path d="M525.122 1642.5L579.447 1640.93L581.17 1678.2H532.432L525.122 1642.5Z" fill="#E6F1FC"/>
<path d="M534.184 1665.91C527.702 1665.91 521.893 1675.85 521.893 1685.79C521.893 1695.73 526.269 1706.19 530.282 1706.19C534.295 1706.19 567.144 1706.19 573.281 1706.19C576.468 1706.19 584.951 1702.15 584.951 1687.69C584.951 1673.23 583.6 1665.91 573.854 1665.91C564.107 1665.91 540.666 1665.91 534.184 1665.91Z" fill="#141414"/>
<path d="M587.995 1438.04C580.599 1488.18 594.204 1605.96 594.954 1656.54C612.852 1662.17 615.324 1661.44 634.225 1660.48C643.997 1596.24 683.516 1494.03 683.66 1440.64C683.841 1373.22 591.525 1414.11 587.995 1438.04Z" fill="#F4CCB5"/>
<path d="M587.685 1640.93H644.228L640.126 1678.2H590.088L587.685 1640.93Z" fill="#E6F1FC"/>
<path d="M638.452 1665.91C644.934 1665.91 650.743 1675.85 650.743 1685.79C650.743 1695.73 646.367 1706.19 642.354 1706.19C638.341 1706.19 605.492 1706.19 599.355 1706.19C596.168 1706.19 587.685 1702.15 587.685 1687.69C587.685 1673.23 589.036 1665.91 598.782 1665.91C608.528 1665.91 631.97 1665.91 638.452 1665.91Z" fill="#141414"/>
<path d="M483.759 1417.1C473.623 1370.82 453.473 1219.59 451.581 1190.22C451.417 1144.36 442.893 1137.75 499.144 1123.37C499.144 1123.37 524.548 1140.89 574.442 1140.89C624.336 1140.89 651.823 1119.89 651.823 1119.89C651.823 1119.89 699.683 1133.41 701.637 1153.24C704.48 1182.09 684.977 1258.1 685.498 1271.08C686.865 1305.13 685.083 1385.51 685.083 1410.47C685.083 1410.47 490.322 1447.06 483.759 1417.1Z" fill="#F2F5F7"/>
<path d="M695.367 1213C685.21 1217.2 672.756 1214.55 669.853 1225.29C662.587 1252.16 669.45 1283.53 659.164 1289.15C648.202 1295.14 500.886 1299.39 489.705 1292.36C483.463 1288.44 477.471 1203.31 475.335 1197.84C473.199 1192.37 474.401 1188.25 451.483 1182.7C451.534 1185.08 451.571 1187.58 451.581 1190.22C453.473 1219.58 473.623 1370.82 483.759 1417.1C490.322 1447.06 685.083 1410.47 685.083 1410.47C685.083 1385.51 686.864 1305.13 685.498 1271.08C685.219 1264.13 690.671 1239.15 695.367 1213Z" fill="#DADEE3"/>
<path d="M652.382 1116.9C652.382 1116.9 656.302 1114.84 660.301 1122.4C672.672 1145.79 595.196 1194.69 595.196 1194.69C595.196 1194.69 593.921 1148.89 569.081 1140.82C569.081 1140.82 603.079 1136.99 624.336 1130.99C638.244 1127.06 652.382 1116.9 652.382 1116.9Z" fill="#E4EBF3"/>
<path d="M497.062 1118.85C497.062 1118.85 492.416 1116.44 489.544 1124.35C480.075 1150.44 547.925 1194.69 547.925 1194.69C547.925 1194.69 548.76 1147.85 572.718 1140.82C572.718 1140.82 534.673 1136.78 520.26 1130.99C507.492 1125.85 497.062 1118.85 497.062 1118.85Z" fill="#E4EBF3"/>
<path d="M574.727 1261.19C574.727 1261.19 576.444 1214.83 576.274 1211.43C576.105 1208.02 569.18 1210.74 568.55 1217.22C567.921 1223.7 569.572 1257.45 574.727 1261.19Z" fill="#E6967A"/>
<path d="M571.47 1250.84C571.47 1250.84 574.493 1199.45 576.802 1188.56C579.413 1176.25 569.385 1170 568.376 1179.92C567.367 1189.84 559.521 1246.74 559.358 1249.34C559.196 1251.94 568.057 1259.14 571.47 1250.84Z" fill="#E6967A"/>
<path d="M567.813 1254.43C567.813 1254.43 568.528 1198.65 572.057 1187.59C574.303 1180.54 568.883 1171.51 565.484 1181.72C563.674 1187.16 556.048 1223.6 551.538 1243.12C548.037 1258.27 558.817 1275.4 558.715 1276.92C558.715 1276.92 564.848 1263.11 567.813 1254.43Z" fill="#E8C2AC"/>
<path d="M565.625 1288.07C555.23 1291.24 550.543 1287.53 550.479 1275.61C550.416 1263.69 568.175 1201.15 568.261 1193.3C568.347 1185.45 574.98 1193.15 574.583 1200.02C574.185 1206.9 571.397 1233.91 573.316 1243.16C575.235 1252.4 577.03 1284.59 565.625 1288.07Z" fill="#F4CCB5"/>
<path d="M576.948 1261.19C576.948 1261.19 575.232 1214.83 575.401 1211.43C575.57 1208.02 582.495 1210.74 583.125 1217.22C583.754 1223.7 582.103 1257.45 576.948 1261.19Z" fill="#E6967A"/>
<path d="M580.206 1250.84C580.206 1250.84 577.183 1199.45 574.874 1188.56C572.263 1176.25 582.291 1170 583.3 1179.92C584.309 1189.84 592.155 1246.74 592.318 1249.34C592.48 1251.94 583.619 1259.14 580.206 1250.84Z" fill="#E6967A"/>
<path d="M583.862 1254.43C583.862 1254.43 583.147 1198.65 579.618 1187.59C577.372 1180.54 582.792 1171.51 586.191 1181.72C588.001 1187.16 595.627 1223.6 600.137 1243.12C603.638 1258.27 592.858 1275.4 592.96 1276.92C592.96 1276.92 586.828 1263.11 583.862 1254.43Z" fill="#E8C2AC"/>
<path d="M586.05 1288.07C596.445 1291.24 601.132 1287.53 601.195 1275.61C601.259 1263.69 583.499 1201.15 583.413 1193.3C583.327 1185.45 576.694 1193.15 577.092 1200.02C577.49 1206.9 580.278 1233.91 578.359 1243.16C576.44 1252.4 574.645 1284.59 586.05 1288.07Z" fill="#F4CCB5"/>
<path d="M698.094 1144.37C707.673 1162.77 717.952 1227.13 720.964 1247.35C725.018 1274.57 697.284 1290.38 679.727 1293.15C651.754 1297.55 603.754 1298.54 600.68 1295.47C597.606 1292.39 596.964 1258.23 596.964 1250.95C596.964 1243.67 602.384 1242.51 609.017 1241.14C614.995 1239.92 643.192 1242.52 666.024 1237C669.852 1225.29 674.272 1181.69 676.162 1167.72C677.667 1156.59 692.357 1133.35 698.094 1144.37Z" fill="#F2F5F7"/>
<path d="M596.965 1250.95C596.965 1258.23 597.607 1292.39 600.681 1295.47C602.625 1297.41 622.543 1297.73 643.997 1296.59C631.885 1296.21 617.005 1295.8 606.873 1291.39C596.965 1287.07 596.965 1247.09 596.965 1250.95Z" fill="#DADEE3"/>
<path d="M720.963 1247.35C720.04 1241.15 718.435 1230.81 716.377 1218.92C717.533 1245.92 724.63 1270.42 698.694 1283.86C691.728 1287.47 668.777 1293.97 660.728 1295.41C667.525 1294.8 674.039 1294.04 679.726 1293.15C697.283 1290.38 725.017 1274.57 720.963 1247.35Z" fill="#DADEE3"/>
<path d="M670.566 1240.63C671.598 1243.59 669.435 1262.13 672.13 1262.13C674.824 1262.13 672.63 1193.71 678.215 1160.59C677.174 1163.18 676.442 1165.66 676.164 1167.72C674.274 1181.69 669.853 1225.29 666.025 1237C661.405 1238.12 656.565 1238.9 651.734 1239.45C654.255 1240.81 655.875 1239.94 661.639 1239.21C667.558 1238.46 669.533 1237.67 670.566 1240.63Z" fill="#DADEE3"/>
<path d="M453.566 1144.37C443.987 1162.77 433.708 1227.13 430.696 1247.35C426.643 1274.57 454.376 1290.38 471.933 1293.15C499.906 1297.55 547.906 1298.54 550.98 1295.47C554.054 1292.39 554.696 1258.23 554.696 1250.95C554.696 1243.67 549.276 1242.51 542.643 1241.14C536.665 1239.92 508.468 1242.52 485.636 1237C481.808 1225.29 477.388 1181.69 475.498 1167.72C473.992 1156.59 459.303 1133.35 453.566 1144.37Z" fill="#F2F5F7"/>
<path d="M554.695 1250.95C554.695 1258.23 554.053 1292.39 550.979 1295.47C549.035 1297.41 529.117 1297.73 507.663 1296.59C519.774 1296.21 534.655 1295.8 544.787 1291.39C554.695 1287.07 554.695 1247.09 554.695 1250.95Z" fill="#DADEE3"/>
<path d="M430.696 1247.35C431.619 1241.15 433.224 1230.81 435.282 1218.92C434.126 1245.92 423.907 1264.89 452.965 1283.86C459.535 1288.14 482.883 1293.97 490.931 1295.41C484.134 1294.8 477.62 1294.04 471.933 1293.15C454.376 1290.38 426.643 1274.57 430.696 1247.35Z" fill="#DADEE3"/>
<path d="M481.094 1240.63C480.062 1243.59 482.224 1262.13 479.53 1262.13C476.836 1262.13 479.03 1193.71 473.445 1160.59C474.486 1163.18 475.218 1165.66 475.496 1167.72C477.386 1181.69 481.807 1225.29 485.635 1237C490.255 1238.12 495.095 1238.9 499.926 1239.45C497.405 1240.81 495.785 1239.94 490.021 1239.21C484.102 1238.46 482.126 1237.67 481.094 1240.63Z" fill="#DADEE3"/>
<path d="M911.012 856.8C923.034 841.827 944.757 835.243 965.029 838.091C985.302 840.939 1003.9 852.319 1017.42 867.168C1040.9 892.957 1049.5 929.772 1039.4 961.207C1029.29 992.642 1000.81 1017.64 966.656 1025.06C948.366 1029.03 928.29 1028.07 910.94 1020.21C893.59 1012.35 879.415 997.113 875.758 979.518L911.012 856.8Z" fill="#F4CCB5"/>
<path d="M965.818 959.886C964.036 957.961 965.766 953.926 967.248 948.33C968.81 942.775 970.028 935.284 968.495 927.672C966.935 920.061 962.824 913.32 959.154 908.501C955.543 903.621 952.316 900.285 953.238 897.979C953.691 896.886 955.2 896.229 957.682 896.277C960.157 896.318 963.561 897.176 967.378 899.143C971.19 901.098 975.328 904.26 978.925 908.651C982.52 913.019 985.491 918.688 986.826 925.092C988.094 931.502 987.529 937.667 985.86 942.776C984.198 947.907 981.54 952.025 978.712 954.915C975.885 957.818 973.009 959.561 970.688 960.277C968.363 961.002 966.677 960.794 965.818 959.886Z" fill="#E6967A"/>
<path d="M266.647 771.214C262.283 752.515 245.544 737.184 226.033 730.985C206.522 724.786 184.831 727.004 166.22 734.545C133.896 747.643 110.216 777.117 105.734 809.831C101.252 842.545 116.119 877.401 143.708 898.864C158.481 910.357 176.998 918.172 196.041 918.587C215.084 919.002 234.455 911.393 245.362 897.11L266.647 771.214Z" fill="#F4CCB5"/>
<path d="M172.65 840.461C175.089 839.496 175.274 835.11 176.358 829.423C177.352 823.739 179.493 816.458 184.167 810.257C188.865 804.069 195.487 799.769 200.88 797.012C206.246 794.173 210.598 792.561 210.764 790.083C210.828 788.902 209.752 787.656 207.493 786.626C205.244 785.592 201.803 784.894 197.511 785.017C193.228 785.131 188.13 786.192 182.988 788.596C177.857 790.98 172.727 794.807 168.755 800.003C164.839 805.234 162.683 811.038 161.978 816.366C161.257 821.711 161.873 826.573 163.173 830.402C164.466 834.242 166.306 837.057 168.089 838.707C169.873 840.366 171.483 840.908 172.65 840.461Z" fill="#E6967A"/>
<path d="M699.889 1134.37C752.556 1116.68 809.098 1090.47 855.032 1054.5C894.945 1023.13 921.331 987.761 943.836 951.354C960.426 915.817 1064.11 627.376 976.025 563.781C900.291 509.781 863.644 502.116 692.945 463.581C521.435 423.461 437.767 428.734 328.32 475.752C209.893 526.628 203.145 804.021 209.496 849.842C216.424 897.889 228.781 946.256 257.583 991.76C290.778 1044.06 339.684 1084.37 387.088 1111.68C434.814 1139.1 485.511 1153.51 539.755 1156.78C594.022 1160.02 646.962 1151.97 699.889 1134.37Z" fill="#F4CCB5"/>
<path d="M976.024 563.781C900.29 509.781 863.643 502.116 692.944 463.581C521.434 423.461 437.766 428.734 328.319 475.752C251.999 508.539 222.063 635.398 212.121 733.73C328.345 712.967 439.803 597.496 508.679 500.014C551.224 583.535 641.046 678.394 720.661 725.449C730.819 730.327 899.315 826.91 982.338 837.886C1010.08 738.127 1032.58 604.611 976.024 563.781Z" fill="#E0A089"/>
<path d="M867.502 915.361C872.306 868.557 831.967 826.074 777.403 820.474C722.84 814.874 674.713 848.277 669.909 895.081C665.105 941.886 705.444 984.368 760.008 989.968C814.571 995.568 862.698 962.166 867.502 915.361Z" fill="#E8948B"/>
<path d="M462.422 870.965C467.226 824.161 425.491 781.535 369.205 775.758C312.918 769.981 263.395 803.241 258.591 850.045C253.788 896.85 295.523 939.475 351.809 945.252C408.095 951.029 457.618 917.77 462.422 870.965Z" fill="#E8948B"/>
<path d="M497.026 741.673C502.461 691.967 472.886 647.957 430.969 643.373C389.051 638.79 350.664 675.369 345.229 725.075C339.794 774.781 369.369 818.792 411.286 823.375C453.204 827.959 491.591 791.379 497.026 741.673Z" fill="white"/>
<path d="M489.88 746.15C494.562 703.33 468.064 665.304 430.695 661.218C393.325 657.132 359.235 688.532 354.553 731.353C349.871 774.174 376.369 812.199 413.739 816.286C451.108 820.372 485.198 788.971 489.88 746.15Z" fill="#5F3535"/>
<path d="M401.162 717.899C400.493 715.352 397.844 713.678 393.863 713.883C389.924 714.057 384.749 716.312 380.339 720.785C375.932 725.263 373.353 730.878 372.726 735.339C372.067 739.845 373.196 743.06 375.321 744.13C377.498 745.233 380.203 744.271 382.971 742.569C385.754 740.826 388.661 738.345 391.592 735.351C394.539 732.379 397.039 729.371 398.885 726.415C400.694 723.471 401.854 720.509 401.162 717.899Z" fill="white"/>
<path d="M813.717 776.284C819.152 726.578 789.577 682.567 747.659 677.984C705.742 673.4 667.355 709.98 661.92 759.686C656.485 809.392 686.06 853.402 727.977 857.986C769.895 862.569 808.282 825.99 813.717 776.284Z" fill="white"/>
<path d="M804.912 780.579C809.594 737.758 783.096 699.732 745.727 695.646C708.357 691.56 674.268 722.961 669.585 765.781C664.903 808.602 691.401 846.628 728.771 850.714C766.14 854.8 800.23 823.399 804.912 780.579Z" fill="#5F3535"/>
<path d="M762.201 757.362C763.405 755.019 766.352 753.957 770.195 755.018C774.003 756.038 778.569 759.359 781.909 764.679C785.244 770.003 786.55 776.043 786.198 780.534C785.868 785.076 784.071 787.972 781.765 788.557C779.401 789.164 776.968 787.64 774.632 785.38C772.292 783.077 769.988 780.026 767.774 776.47C765.538 772.932 763.747 769.454 762.583 766.17C761.455 762.904 760.962 759.761 762.201 757.362Z" fill="white"/>
<path d="M601.771 833.428C603.396 835.168 603.669 837.837 602.871 840.091C602.635 840.785 602.31 841.518 601.889 842.284C601.459 843.026 600.912 843.742 600.276 844.507C598.873 846.157 597.102 847.52 595.138 848.653C594.075 849.316 592.908 849.775 591.651 850.297C590.395 850.781 589.048 851.136 587.621 851.471C564.02 856.135 544.245 832.587 552.898 810.156C553.474 808.808 554.055 807.542 554.748 806.388C555.478 805.24 556.132 804.169 556.968 803.236C558.421 801.496 560.071 799.986 561.936 798.888C562.799 798.393 563.599 797.977 564.403 797.681C565.23 797.399 566.008 797.204 566.732 797.092C575.396 795.768 575.095 806.071 576.951 811.811C577.059 812.308 577.301 812.875 577.43 813.364C577.591 813.872 577.808 814.393 577.959 814.874C578.662 816.614 579.489 818.475 580.538 819.848C580.986 820.43 581.358 820.856 581.645 821.245C581.979 821.594 582.335 822.034 582.831 822.576C584.004 823.847 585.692 824.979 587.286 825.972C587.734 826.203 588.21 826.507 588.682 826.753C589.142 826.964 589.659 827.3 590.13 827.492C593.867 829.549 598.731 830.327 601.771 833.428Z" fill="#F1775B"/>
<path d="M469.115 888.934C518.436 922.871 583.887 927.167 636.833 898.947C650.919 891.439 663.862 881.975 675.168 870.705C679.734 866.153 673.449 858.226 668.838 862.822C629.895 901.641 572.004 917.233 519.027 901.658C503.373 897.056 488.575 890.059 475.135 880.811C469.776 877.122 463.747 885.24 469.115 888.934Z" fill="#B83E3E"/>
<path d="M710.288 641.224C743.472 643.293 775.538 657.216 799.316 680.56C803.783 684.945 811.497 678.836 806.983 674.404C781.332 649.222 747.306 633.693 711.357 631.451C705.061 631.058 703.957 640.829 710.288 641.224Z" fill="#5F3535"/>
<path d="M384.567 630.477C414.808 616.659 449.65 613.822 481.626 623.199C487.633 624.961 491.556 615.936 485.485 614.156C450.992 604.04 413.663 606.384 380.902 621.353C375.165 623.975 378.798 633.113 384.567 630.477Z" fill="#5F3535"/>
<path d="M997.675 488.607C989.955 474.354 981.382 460.55 971.868 447.293C958.965 429.314 944.079 412.512 927.64 397.392C887.192 303.154 779.664 251.118 675.327 235.921C537.907 215.905 417.426 256.179 301.737 326.974C215.363 379.83 181.758 430.026 129.393 539.584C70.1643 696.609 110.026 894.431 110.026 894.431C110.026 894.431 335.713 635.781 502.206 436.336C502.206 436.336 616.439 661.519 987.341 764.726L975.471 875.175C975.471 875.175 1039.78 733.307 1042.09 668.945C1044.51 601.785 1029.99 548.266 997.675 488.607Z" fill="#ED7D2B"/>
<path d="M1011.34 402.184C1009.22 402.752 1006.86 402.148 1005.26 400.416C981.867 374.969 942.521 364.483 909.549 374.904C906.347 375.931 902.897 374.139 901.879 370.921C900.861 367.703 902.644 364.269 905.862 363.251C943.776 351.246 987.342 362.866 1014.26 392.143C1016.54 394.628 1016.38 398.494 1013.9 400.778C1013.14 401.47 1012.27 401.938 1011.34 402.184Z" fill="#A85049"/>
<path d="M887.221 351.059C885.695 351.466 884.013 351.286 882.544 350.421C879.635 348.71 878.665 344.963 880.377 342.054C896.366 314.883 927.065 296.902 958.585 296.235C961.96 296.164 964.752 298.842 964.824 302.216C964.894 305.591 962.21 308.386 958.843 308.455C931.464 309.031 904.799 324.653 890.911 348.253C890.064 349.695 888.717 350.66 887.221 351.059Z" fill="#A85049"/>
<path d="M497.982 425.096C514.765 454.289 534.181 481.909 555.445 508.003C577.439 534.993 601.493 560.297 627.146 583.831C653.339 607.861 681.228 630.068 710.481 650.26C739.44 670.249 769.803 688.236 801.369 703.793C832.467 719.119 864.762 732.159 897.968 742.161C901.95 743.36 905.945 744.513 909.952 745.625C916.283 747.382 918.971 737.553 912.65 735.8C880.083 726.763 848.371 714.792 817.789 700.423C786.1 685.534 755.582 668.17 726.428 648.789C697.335 629.448 669.62 608.07 643.496 584.876C617.62 561.903 593.288 537.166 570.921 510.759C549.477 485.441 529.892 458.548 512.729 430.065C510.709 426.712 508.726 423.338 506.775 419.945C503.51 414.267 494.706 419.397 497.982 425.096Z" fill="#A85049"/>
<path d="M497.457 423.835C509 461.407 527.184 496.768 549.494 529.052C573.482 563.763 602.116 595.2 633.773 623.053C666.71 652.033 702.941 677.333 741.434 698.374C780.6 719.783 822.243 736.915 865.322 748.658C908.036 760.302 952.37 766.677 996.677 766.331C1001.97 766.29 1007.26 766.148 1012.55 765.915C1015.29 765.794 1017.66 763.712 1017.68 760.861C1017.7 758.215 1015.39 755.604 1012.63 755.725C969.235 757.632 925.761 752.942 883.555 742.814C840.96 732.592 799.719 717.025 760.741 697.072C722.145 677.316 685.635 653.358 652.338 625.575C620.604 599.096 591.314 568.949 566.866 535.895C554.982 519.828 544.119 502.992 534.571 485.432C525.427 468.614 517.82 451.871 511.568 434.154C510.055 429.868 508.635 425.55 507.3 421.205C505.379 414.955 495.527 417.553 497.457 423.835Z" fill="#A85049"/>
<path d="M497.52 433.624C478.248 462.266 457.629 489.998 435.248 516.293C415.72 539.236 394.889 561.06 372.805 581.557C362.502 591.119 351.935 600.395 341.142 609.4C330.607 618.189 320.005 626.601 309.552 634.554C287.7 651.181 265.199 666.933 242.491 682.364C218.709 698.525 194.709 714.36 170.873 730.44C167.758 732.542 164.645 734.647 161.535 736.757C159.116 738.398 158.053 741.524 159.599 744.169C161.002 746.569 164.579 747.754 167.011 746.105C191.288 729.634 215.772 713.471 240.083 697.051C262.978 681.588 285.711 665.871 307.839 649.323C330.28 632.541 352.109 614.928 372.904 596.136C395.13 576.051 416.153 554.656 435.875 532.108C458.524 506.214 479.484 478.85 499.045 450.559C501.686 446.739 504.3 442.901 506.893 439.048C508.527 436.62 507.328 433.044 504.917 431.649C502.241 430.099 499.158 431.19 497.52 433.624Z" fill="#A85049"/>
<path d="M548.609 424.967C576.998 459.714 609.382 490.977 645.098 518.133C679.485 544.279 716.883 566.368 756.234 584.168C795.843 602.084 837.273 615.798 879.649 625.458C922.832 635.303 966.951 641.057 1011.18 643.247C1023.54 643.859 1036.06 644.607 1048.43 643.875C1061.56 643.098 1074.93 640.173 1085.6 632.07C1094.95 624.962 1102.07 614.375 1102.04 602.273C1102.03 592.303 1097.15 582.354 1088.5 577.133C1084.21 574.547 1079.13 573.373 1074.15 573.553C1067.19 573.804 1067.09 584.637 1074.06 584.386C1082.18 584.093 1088.14 588.992 1090.31 596.223C1091.46 600.044 1091.56 603.859 1090.44 607.892C1089.12 612.695 1086.32 616.866 1082.78 620.328C1074.38 628.536 1062.71 631.895 1051.25 632.85C1039.17 633.857 1026.9 633.13 1014.8 632.583C972.243 630.66 929.877 625.416 888.256 616.296C847.607 607.39 807.572 594.851 769.459 578.256C731.162 561.581 694.605 540.905 660.783 516.38C626.212 491.312 594.654 462.083 566.736 429.779C563.176 425.66 559.678 421.489 556.234 417.274C554.384 415.009 550.479 415.386 548.575 417.308C546.339 419.565 546.752 422.694 548.609 424.967Z" fill="#A85049"/>
<path d="M463.959 364.312C451.563 399.631 434.283 433.143 413.13 464.009C391.965 494.892 366.808 523.018 338.727 547.767C310.737 572.435 279.703 593.629 246.548 610.741C213.436 627.831 178.173 640.684 141.761 648.644C102.338 657.261 60.0806 660.199 20.8776 648.86C16.1326 647.488 11.4586 645.892 6.85955 644.09C4.13455 643.022 0.920556 645.269 0.202556 647.878C-0.642444 650.95 1.25957 653.465 3.99057 654.535C43.5646 670.044 88.1376 669.425 129.424 662.115C167.303 655.409 204.186 643.097 238.901 626.591C273.57 610.107 306.015 589.141 335.57 564.662C365.14 540.17 391.567 512.023 414.262 481.058C436.934 450.125 455.554 416.316 469.458 380.569C471.183 376.135 472.828 371.671 474.403 367.181C475.372 364.42 473.295 361.261 470.615 360.524C467.626 359.701 464.93 361.545 463.959 364.312Z" fill="#A85049"/>
<path d="M1024.77 561.872C1033.68 591.749 1038.23 622.825 1037.72 654.013C1037.25 682.612 1032.42 710.887 1024.42 738.317C1023.45 741.635 1022.44 744.937 1021.38 748.226C1020.77 750.117 1021.7 752.174 1023.54 752.915C1024.43 753.273 1025.33 753.611 1026.23 753.935C1028.24 754.652 1030.44 753.551 1031.1 751.526C1031.1 751.514 1031.1 751.501 1031.11 751.489C1040.16 723.34 1046.09 694.134 1047.62 664.572C1049.24 633.253 1045.83 601.667 1038.04 571.306C1029.69 538.787 1016.31 507.539 999.175 478.692C982.623 450.824 962.501 424.987 939.674 401.983C936.908 399.195 934.098 396.451 931.252 393.745C926.474 389.201 919.224 396.467 924.027 401.035C946.878 422.767 967.136 447.154 984.086 473.754C1001.53 501.137 1015.49 530.736 1024.77 561.872Z" fill="#A85049"/>
<path d="M867.92 310.837C812.415 268.188 745.608 243.041 676.583 233.246C605.643 223.179 532.75 228.342 463.427 246.113C394.365 263.816 327.62 294.101 271.693 338.663C215.053 383.793 169.714 442.976 139.758 508.84C110.056 574.145 94.9864 646.338 98.7634 718.129C99.2274 726.944 99.9874 735.738 101.009 744.505C101.753 750.886 111.86 751.027 111.109 744.586C102.949 674.62 113.119 603.421 138.45 537.813C163.961 471.738 204.97 411.584 257.446 363.991C309.658 316.637 373.38 283.619 440.538 263.038C507.611 242.483 578.664 234.105 648.626 240.146C716.385 245.997 783.54 266.122 840.618 303.673C847.515 308.21 854.264 312.981 860.811 318.011C865.893 321.916 873.075 314.799 867.92 310.837Z" fill="#A85049"/>
<path d="M470.472 1586.64C464.969 1586.89 459.466 1587.16 453.963 1587.16C453.963 1584.58 453.963 1582 453.963 1579.42C448.594 1579.42 443.226 1579.42 437.857 1579.42C433.735 1509.22 436.85 1440.6 447.151 1371.04C449.49 1355.24 453.39 1337.72 464.801 1327.4C464.802 1320.45 464.802 1313.5 464.802 1306.56C537.507 1312.82 614.547 1310.57 686.729 1299.85C686.729 1305.38 686.513 1319.83 686.513 1319.83C695.284 1325.11 698.411 1330.62 702.381 1340.19C707.154 1351.69 708.726 1364.23 710.253 1376.58C717.919 1438.62 725.584 1500.65 733.25 1562.69C727.771 1563.27 722.292 1563.85 716.814 1564.43C716.937 1567 717.06 1569.56 717.183 1572.13C707.107 1572.13 697.221 1572.13 690.503 1572.13C690.566 1574.19 690.63 1576.26 690.693 1578.32C679.861 1578.32 669.028 1578.32 658.196 1578.32C658.154 1580.27 657.944 1582.21 657.572 1584.13L619.127 1588L619.084 1597.68C619.084 1597.68 545.108 1597.68 517.494 1597.68C517.517 1596.38 517.382 1590.43 517.097 1589.16C506.836 1589.16 496.574 1590.8 486.313 1590.8C486.178 1589.26 486.044 1587.71 485.909 1586.16C480.762 1586.16 475.617 1586.39 470.472 1586.64Z" fill="#3B7FD1"/>
<path d="M474.13 1333.79C494.309 1322.95 627.47 1321.79 687.13 1329.13C692.872 1329.84 697.316 1332.73 701.208 1337.45C697.729 1329.53 694.406 1324.58 686.513 1319.83C686.513 1319.83 686.728 1305.38 686.729 1299.85C614.546 1310.57 537.506 1312.82 464.802 1306.56C464.802 1313.5 464.802 1320.45 464.801 1327.4C453.39 1337.72 449.491 1355.24 447.151 1371.04C436.851 1440.6 433.735 1509.22 437.857 1579.42C438.344 1579.42 438.831 1579.42 439.319 1579.42C439.24 1512.29 439.67 1440.15 451.484 1371.48C453.484 1358.48 453.952 1344.63 474.13 1333.79Z" fill="#387ACA"/>
<path d="M453.962 1579.42L455.856 1479.98L451.985 1579.42H453.962Z" fill="#3065A5"/>
<path d="M485.908 1586.16L491.086 1417.34L480.436 1586.22L485.908 1586.16Z" fill="#3065A5"/>
<path d="M716.813 1564.43L704.889 1454.95L720.961 1563.99L716.813 1564.43Z" fill="#3065A5"/>
<path d="M690.502 1572.13H694.244L686.47 1430.79L690.502 1572.13Z" fill="#3065A5"/>
<path d="M658.194 1578.32L659.164 1403.7L662.307 1578.32H658.194Z" fill="#3065A5"/>
<path d="M619.125 1588L623.62 1587.55V1396.63L619.125 1588Z" fill="#3065A5"/>
<path d="M512.335 1589.27L517.096 1589.16L523.329 1396.63L512.335 1589.27Z" fill="#3065A5"/>
</svg>
