<svg width="2798" height="1608" viewBox="0 0 2798 1608" fill="none" xmlns="http://www.w3.org/2000/svg">
<path d="M205.249 1604.14C205.249 1604.14 -63.6015 1174.94 137.309 749.904C326.373 349.927 641.678 561.735 994.281 244.041C1529.6 -238.279 2591.65 35.9921 2372.13 701.974C2258.35 1047.15 2836.39 1253.92 2642.98 1604.88L205.249 1604.14Z" fill="#EBF3FA"/>
<path d="M2078.18 1027.35H1768.47C1764.37 1027.35 1761.01 1023.99 1761.01 1019.89V996.115C1761.01 992.013 1764.37 988.657 1768.47 988.657H2078.18C2082.28 988.657 2085.64 992.013 2085.64 996.115V1019.89C2085.64 1023.99 2082.28 1027.35 2078.18 1027.35Z" fill="#D9E7FC"/>
<path d="M1839.68 1027.35L1835.83 1049.98L1780 1377.71C1779.84 1378.85 1778.59 1379.72 1777.08 1379.72C1774.22 1379.72 1771.98 1377.81 1772.29 1375.62L1816.56 1040.02L1818.24 1027.35H1839.68Z" fill="#D9E7FC"/>
<path d="M1839.68 1027.35L1835.83 1049.98C1833.18 1040.97 1816.56 1040.02 1816.56 1040.02L1818.24 1027.35H1839.68Z" fill="#BFD3EF"/>
<path d="M2069.57 1605.73C2068.07 1605.73 2066.81 1604.31 2066.65 1602.43L2010.83 1064.5L2008.42 1041.32L2006.97 1027.34H2028.41L2030.09 1048.15L2031.4 1064.48L2074.36 1599.01C2074.67 1602.6 2072.43 1605.73 2069.57 1605.73Z" fill="#D9E7FC"/>
<path d="M2031.4 1064.48C2025.94 1046.78 2008.43 1041.34 2008.43 1041.34C2008.43 1041.34 2008.43 1041.33 2008.42 1041.32L2006.97 1027.34H2028.41L2030.09 1048.15L2031.4 1064.48Z" fill="#BFD3EF"/>
<path opacity="0.5" d="M1795.85 828.75C1795.85 828.75 1904.56 667.83 2045.08 610.728C2063.75 603.139 2081.64 623.297 2072.04 641.022C2071.88 641.317 2071.72 641.615 2071.55 641.915C2054.67 671.915 1889.91 750.301 1795.85 828.75Z" fill="#DFEBFD"/>
<path opacity="0.5" d="M1759.91 872.339C1759.91 872.339 1957.75 703.094 2156.07 685.277C2168.16 684.191 2179.43 692.642 2180.96 704.686C2181.96 712.53 2179.09 722.503 2167.35 734.339C2136.03 765.9 1903.96 806.945 1759.91 872.339Z" fill="#DFEBFD"/>
<path d="M1089.48 598.977C1089.48 598.977 1012.72 509.202 1001.98 417.579C1000.55 405.403 1015.27 398.175 1024.11 406.67C1024.25 406.812 1024.4 406.956 1024.55 407.104C1039.41 421.854 1058.7 531.138 1089.48 598.977Z" fill="#DFEBFD"/>
<path d="M1109.22 627.101C1109.22 627.101 1042 483.723 1063.65 364.57C1064.97 357.304 1071.74 352.064 1079.05 353.113C1083.81 353.797 1089.2 357.093 1094.24 365.893C1107.67 389.359 1094.19 532.065 1109.22 627.101Z" fill="#DFEBFD"/>
<path d="M1436.52 246.735C1402.61 209.958 1337.32 260.988 1337.32 260.988C1337.32 260.988 1327.3 361.487 1313.96 370.708C1300.61 379.929 1305.75 283.111 1305.75 283.111C1276.7 294.844 1223.89 365.463 1223.89 365.463C1223.89 365.463 1273.9 450.562 1258.7 456.215C1243.49 461.867 1218.26 378.604 1218.26 378.604C1195.68 400.577 1186.97 444.814 1186.97 444.814C1182.24 511.931 1268.67 514.537 1268.67 514.537C1268.67 514.537 1285.36 544.403 1284.76 588.954L1284.76 588.955C1284.76 588.955 1283.88 597.582 1285.27 610.739L1292.56 606.937C1292.14 604.67 1291.81 602.437 1291.59 600.242C1291.58 600.228 1291.58 600.216 1291.59 600.202C1291.59 600.17 1291.58 600.139 1291.58 600.107C1291.49 598.719 1291.37 596.741 1291.25 594.32C1291.25 594.317 1291.25 594.314 1291.25 594.311C1291.25 594.306 1291.25 594.304 1291.25 594.299C1291.21 588.774 1291.03 584.766 1290.77 581.942C1290.77 581.933 1290.77 581.924 1290.77 581.917C1290.31 564.739 1290.63 541.878 1295.1 534.791C1295.1 534.791 1293.7 534.076 1291.79 532.258C1292.85 533.066 1293.95 533.907 1295.1 534.791C1321.53 555.046 1386.3 526.97 1417.37 501.706C1448.45 476.442 1428.17 474.531 1401.14 468.365C1374.11 462.2 1337.04 486.849 1322.19 486.647C1307.34 486.445 1321.04 471.369 1345.16 461.068C1369.28 450.767 1392.97 467.919 1432.29 451.966C1471.62 436.012 1463.44 350.664 1463.44 350.664C1441.76 372.172 1387.93 382.069 1381.5 374.078C1375.07 366.087 1444.22 331.189 1453.53 322.935C1462.84 314.683 1470.42 283.513 1436.52 246.735Z" fill="#DFEBFD"/>
<path d="M1817.3 296.666C1767.17 242.284 1670.63 317.742 1670.63 317.742C1670.63 317.742 1655.81 466.349 1636.08 479.983C1616.35 493.618 1623.94 350.455 1623.94 350.455C1580.98 367.804 1502.89 472.227 1502.89 472.227C1502.89 472.227 1576.84 598.062 1554.36 606.421C1531.88 614.779 1494.57 491.659 1494.57 491.659C1461.18 524.15 1448.3 589.563 1448.3 589.563C1441.31 688.808 1569.11 692.662 1569.11 692.662C1569.11 692.662 1593.8 736.824 1592.9 802.702L1592.9 802.704C1592.9 802.704 1591.6 815.459 1593.65 834.916L1604.44 829.294C1603.82 825.942 1603.33 822.64 1603.01 819.394C1602.99 819.373 1602.99 819.356 1603 819.335C1603 819.288 1602.99 819.241 1602.99 819.194C1602.86 817.142 1602.68 814.216 1602.5 810.637C1602.5 810.633 1602.5 810.628 1602.5 810.623C1602.5 810.616 1602.51 810.613 1602.5 810.605C1602.44 802.436 1602.18 796.509 1601.8 792.334C1601.79 792.32 1601.79 792.308 1601.79 792.296C1601.11 766.896 1601.59 733.092 1608.19 722.612C1608.19 722.612 1606.13 721.554 1603.31 718.867C1604.87 720.061 1606.49 721.306 1608.19 722.612C1647.28 752.563 1743.05 711.047 1789 673.69C1834.95 636.333 1804.96 633.507 1764.99 624.39C1725.02 615.273 1670.21 651.722 1648.25 651.424C1626.29 651.125 1646.55 628.833 1682.22 613.601C1717.89 598.369 1752.91 623.731 1811.06 600.14C1869.21 576.55 1857.12 450.347 1857.12 450.347C1825.06 482.151 1745.47 496.785 1735.95 484.968C1726.44 473.152 1828.7 421.548 1842.47 409.344C1856.24 397.139 1867.44 351.047 1817.3 296.666Z" fill="#DFEBFD"/>
<path d="M401.639 690.711C401.558 607.925 538.23 596.644 538.23 596.644C538.23 596.644 663.271 707.562 689.847 703.786C716.423 700.011 601.457 588.079 601.457 588.079C649.946 569.72 793.45 596.26 793.45 596.26C793.45 596.26 828.221 755.873 853.05 745.672C877.879 735.471 815.052 605.913 815.052 605.913C867.175 607.268 927.442 651.264 927.442 651.264C1008.56 727.543 906.424 827.77 906.424 827.77C906.424 827.77 919.667 882.825 970.435 936.303L970.437 936.304C970.437 936.304 981.195 945.802 994.28 963.359L981.141 966.931C979.11 963.7 977.001 960.617 974.803 957.702C974.796 957.677 974.783 957.662 974.761 957.65C974.729 957.607 974.697 957.566 974.665 957.524C973.213 955.738 971.134 953.202 968.565 950.12C968.561 950.117 968.558 950.113 968.555 950.109C968.553 950.1 968.544 950.102 968.542 950.094C962.392 943.327 958.102 938.26 955.247 934.535C955.237 934.523 955.229 934.512 955.224 934.499C936.49 913.103 910.425 885.675 897.036 882.076C897.036 882.076 897.934 879.636 898.21 875.285C897.835 877.451 897.445 879.709 897.036 882.076C887.649 936.384 777.383 974.988 711.239 979.171C645.095 983.354 667.599 958.258 693.537 920.406C719.475 882.554 792.212 870.897 810.039 853.974C827.866 837.051 794.286 834.105 753.393 848.673C712.499 863.241 702.972 910.687 637.249 935.456C571.526 960.226 485.617 847.294 485.617 847.294C536.134 849.086 612.68 800.672 611.525 783.734C610.37 766.796 487.112 802.033 466.526 802.455C445.938 802.879 401.72 773.497 401.639 690.711Z" fill="#DFEBFD"/>
<path d="M1905.01 1037.52C1905.01 1072.13 1901.89 1106.02 1895.9 1138.91C1848.16 1401.35 1618.43 1600.33 1342.21 1600.33C1112.47 1600.33 914.895 1462.7 827.431 1265.39C815.898 1239.39 806.281 1212.34 798.764 1184.44C786.119 1137.61 779.385 1088.35 779.385 1037.52C779.385 995.952 783.895 955.442 792.442 916.447C815.827 809.778 869.465 714.447 943.914 639.885C965.023 618.724 987.831 599.232 1012.1 581.634C1104.83 514.363 1218.88 474.697 1342.21 474.697C1356.52 474.697 1370.71 475.233 1384.75 476.293C1404.55 477.776 1424.06 480.278 1443.24 483.748C1574.26 507.494 1689.48 576.598 1772.06 674.204C1788.71 693.882 1804.04 714.724 1817.89 736.584C1873.07 823.627 1905.01 926.846 1905.01 1037.52Z" fill="#699FF0"/>
<path d="M1905.01 1037.53C1905.01 1072.13 1901.89 1106.02 1895.89 1138.91C1889.71 1172.93 1880.46 1205.89 1868.44 1237.48C1787.81 1449.6 1582.62 1600.34 1342.2 1600.34C1246.37 1600.34 1156.13 1576.39 1077.15 1534.15C1069.88 1530.26 1062.71 1526.22 1055.62 1522.02C987.24 1481.49 928.166 1426.88 882.425 1362.18C861.048 1331.98 842.585 1299.59 827.428 1265.39C815.895 1239.39 806.278 1212.34 798.761 1184.45C862.336 1199.64 962.702 1215.9 1083 1208.25C1103.9 1206.94 1125.39 1204.89 1147.4 1201.98C1224.89 1191.78 1308.75 1171.01 1395.1 1133.98C1599.91 1046.16 1737.71 870.31 1817.88 736.591C1873.06 823.632 1905.01 926.851 1905.01 1037.53Z" fill="#4888E5"/>
<path d="M1905.01 1037.52C1905.01 1072.13 1901.89 1106.02 1895.9 1138.91C1872.99 1135.59 1843.16 1132.35 1824.74 1134.51C1791.57 1138.42 1758.39 1206.72 1690.08 1209.41C1621.77 1212.09 1537.85 1159.89 1448.08 1195.02C1358.3 1230.14 1311.47 1193.06 1295.85 1167.69C1280.24 1142.32 1334.89 1083.77 1329.94 1058.4C1324.98 1033.03 1336.84 947.158 1412.95 947.158C1489.06 947.158 1520.58 905.558 1533.95 890.561C1572.29 847.566 1602.26 886.658 1633.48 853.48C1664.71 820.303 1610.06 761.754 1633.48 722.721C1656.9 683.689 1772.06 674.203 1772.06 674.203C1855 772.244 1905.01 899.041 1905.01 1037.52Z" fill="#A8D29F"/>
<path d="M1075.32 941.86C1048 980.336 1085.08 1060.35 1061.66 1101.34C1038.24 1142.32 993.351 1134.52 960.173 1154.03C931.367 1170.97 919.823 1240.87 827.433 1265.39C796.539 1195.74 779.384 1118.63 779.384 1037.52C779.384 995.949 783.892 955.443 792.44 916.45C811.293 897.412 837.123 880.315 872.349 871.045C983.592 841.771 986.355 759.895 1031.26 758.333C1140.59 754.53 1102.64 903.374 1075.32 941.86Z" fill="#A8D29F"/>
<path d="M1494.92 729.552C1494.92 729.552 1426.61 715.89 1389.53 739.31C1352.45 762.729 1277.31 804.689 1287.07 829.085C1296.83 853.48 1368.06 872.021 1397.34 871.044C1426.61 870.068 1406.68 812.194 1548.59 829.085C1584.56 833.367 1585.08 754.313 1494.92 729.552Z" fill="#A8D29F"/>
<path d="M1443.24 483.748C1408.64 544.327 1345.3 621.051 1238.34 648.771C1109.29 682.206 999.508 658.048 943.914 639.884C965.023 618.723 987.831 599.231 1012.1 581.633C1104.83 514.362 1218.88 474.696 1342.21 474.696C1356.52 474.696 1370.71 475.232 1384.75 476.292C1404.55 477.776 1424.06 480.278 1443.24 483.748Z" fill="#7DB2FF"/>
<path d="M1868.44 1237.48C1787.82 1449.6 1582.62 1600.34 1342.2 1600.34C1246.37 1600.34 1156.13 1576.39 1077.16 1534.15C1069.89 1530.26 1062.71 1526.22 1055.62 1522.02C1200.9 1511.42 1563.39 1461.79 1868.44 1237.48Z" fill="#3B7FD1"/>
<path d="M1169.87 1399.24C1140.01 1421.02 1132.9 1487.95 1113.8 1497.22C1104.21 1501.87 1089.46 1518.63 1077.16 1534.14C999.611 1492.68 932.906 1433.57 882.429 1362.18C916.214 1338.73 979.563 1299.13 1023.51 1298.05C1023.51 1298.05 1045.47 1297.79 1061.75 1253.18C1068.17 1235.59 1075.05 1219.99 1083.01 1208.25C1095.26 1190.19 1110.07 1181.26 1129.72 1188.3C1138.14 1191.32 1143.43 1196.04 1147.41 1201.98C1158.77 1218.91 1159.48 1245.79 1191.5 1271.71C1234.75 1306.72 1199.74 1377.46 1169.87 1399.24Z" fill="#A8D29F"/>
<path d="M1597.05 642.985C1597.05 642.985 1591.17 537.207 1461.05 518.813C1461.05 518.813 1456.25 642.985 1597.05 642.985Z" fill="#A8D29F"/>
<path d="M1591.17 642.258C1591.17 642.258 1695.52 661.976 1737.75 537.534C1737.75 537.534 1617.32 503.907 1591.17 642.258Z" fill="#A8D29F"/>
<path d="M1592.61 598.133C1592.61 598.133 1638.92 560.649 1601.01 497.422C1601.01 497.422 1542.91 536.742 1592.61 598.133Z" fill="#A8D29F"/>
<path d="M1591.17 642.258C1591.17 642.258 1575.53 710.113 1578.25 734.026H1591.17C1591.17 734.026 1586.19 670.872 1598.45 638.989L1591.17 642.258Z" fill="#A8D29F"/>
<path d="M1735.25 808.662C1735.25 808.662 1732.47 758.609 1670.9 749.905C1670.9 749.905 1668.63 808.662 1735.25 808.662Z" fill="#82B378"/>
<path d="M1732.47 808.318C1732.47 808.318 1781.84 817.649 1801.83 758.763C1801.83 758.763 1744.84 742.851 1732.47 808.318Z" fill="#82B378"/>
<path d="M1733.15 787.438C1733.15 787.438 1755.06 769.701 1737.12 739.782C1737.12 739.782 1709.63 758.389 1733.15 787.438Z" fill="#82B378"/>
<path d="M1732.47 808.318C1732.47 808.318 1725.07 840.426 1726.35 851.742H1732.47C1732.47 851.742 1730.11 821.858 1735.91 806.771L1732.47 808.318Z" fill="#82B378"/>
<path d="M1520.91 688.804C1520.91 688.804 1519.16 657.375 1480.5 651.91C1480.5 651.91 1479.08 688.804 1520.91 688.804Z" fill="#A8D29F"/>
<path d="M1519.16 688.588C1519.16 688.588 1550.17 694.446 1562.72 657.472C1562.72 657.472 1526.93 647.481 1519.16 688.588Z" fill="#A8D29F"/>
<path d="M1519.59 675.477C1519.59 675.477 1533.35 664.34 1522.08 645.554C1522.08 645.554 1504.83 657.237 1519.59 675.477Z" fill="#A8D29F"/>
<path d="M1519.16 688.588C1519.16 688.588 1514.52 708.749 1515.32 715.854H1519.16C1519.16 715.854 1517.68 697.089 1521.32 687.616L1519.16 688.588Z" fill="#A8D29F"/>
<path d="M1828.06 616.432C1828.06 616.432 1818.04 614.478 1815.75 616.432C1813.46 618.386 1802.59 629.426 1804.92 633.049C1807.25 636.673 1818.4 630.049 1820.72 629.424C1823.04 628.799 1829.52 626.266 1829.52 626.266L1828.06 616.432Z" fill="#FFB27D"/>
<path d="M1934.51 970.627L1945.25 974.626C1945.25 974.626 1991.9 909.93 1997.64 853.009C1998.67 842.847 1998.33 833.001 1996.11 823.909C1996.11 823.909 1996.57 821.305 1997.36 816.702C1997.73 814.554 1998.19 811.968 1998.7 809.004C2000.22 800.315 2002.31 788.426 2004.69 774.888C2010.18 743.736 2017.29 703.912 2022.82 674.636L2019.92 673.706L1988.61 663.606L1982.14 643.054L1958.83 636.917C1958.83 636.917 1953.62 647.105 1948.96 695.232C1948.1 701.545 1947.32 708.507 1946.74 716.056C1944.92 739.097 1944.79 767.681 1948.95 800.359C1950.02 808.724 1951.37 817.36 1953.05 826.233C1954.28 832.738 1954.46 841.604 1953.94 851.782C1951.59 898.313 1934.51 970.627 1934.51 970.627Z" fill="#35488B"/>
<path d="M1946.74 716.056L1997.36 816.702C1997.73 814.554 1998.19 811.968 1998.71 809.004C2000.22 800.315 2002.31 788.426 2004.69 774.888C2010.18 743.736 2017.29 703.912 2022.82 674.636L2019.92 673.706L1988.61 663.606L1982.14 643.054L1958.83 636.917C1958.83 636.917 1953.62 647.105 1948.96 695.232C1948.11 701.544 1947.33 708.506 1946.74 716.056Z" fill="#2C3A64"/>
<path d="M1969.01 649.833L1970.18 639.783C1989.82 644.998 2042.28 625.21 2042.28 625.21C2042.28 625.21 2061.3 641.93 2058.8 682.009C2057.58 701.571 2055.35 784.697 2053.03 809.296C2052.19 818.211 2051.45 824.556 2051.15 827.09C2051.14 827.102 2051.14 827.108 2051.14 827.114C2051.05 827.887 2051.32 828.617 2051.71 829.292C2055.14 835.103 2057.97 841.153 2060.3 847.343C2083.12 908.167 2056.78 983.072 2056.78 983.072L2049.95 980.317C2049.95 980.317 2034.96 896.957 2022.78 860.129C2020.71 853.883 2018.73 848.975 2016.91 846.041C2011.62 837.494 2006.7 823.529 2002.24 806.919C1993.81 775.517 1987.02 734.665 1982.51 703.133C1981.89 703.164 1969.01 649.833 1969.01 649.833Z" fill="#35488B"/>
<path d="M1828.06 616.432L1829.52 626.267C1829.52 626.267 1830.17 626.267 1831.31 626.186C1834.89 625.942 1843.58 625.454 1853.41 624.397C1868.21 622.935 1885.76 620.334 1892.75 616.027C1903.4 609.526 1920.87 589.613 1932.25 569.701C1932.57 569.214 1932.82 568.727 1933.06 568.239C1939 557.673 1943.14 547.189 1943.46 538.819C1943.71 533.698 1943.14 529.31 1942.08 525.49C1940.7 520.451 1938.43 516.469 1936.07 513.462C1935.74 512.974 1935.42 512.487 1934.93 512.08C1931.03 507.448 1927.21 505.498 1927.21 505.498C1925.26 504.684 1923.15 505.661 1920.95 508.017V508.098C1919.16 509.968 1917.21 512.812 1915.34 516.388C1915.26 516.469 1915.18 516.551 1915.18 516.632C1914.77 517.363 1914.37 518.176 1913.88 519.07C1913.72 519.233 1913.64 519.477 1913.56 519.639C1912.66 521.508 1911.77 523.459 1910.87 525.491C1900.88 547.272 1890.23 580.269 1881.37 590.102C1877.55 594.329 1860.08 602.619 1846.18 608.795C1836.19 613.182 1828.06 616.432 1828.06 616.432Z" fill="#FFB27D"/>
<path d="M1931.5 527.932C1937.66 530.79 1945.11 532.737 1954.11 533.228C1987.87 535.078 1995.53 505.486 1996.92 485.847C1992.06 484.084 1987.8 484.251 1985.34 484.383C1982.95 484.514 1980.45 484.76 1978.39 485.014C1974.26 482.857 1966.84 472.379 1962.55 454.852L1961.1 455.527L1936.74 466.978C1936.74 466.978 1939.33 474.904 1941.24 482.488C1942.73 488.424 1943.8 494.158 1942.91 495.762C1940.99 496.543 1939.84 497.033 1939.84 497.033C1939.84 497.033 1939.84 497.042 1939.83 497.059C1939.58 497.683 1934.29 511.177 1931.5 527.932Z" fill="#FFB27D"/>
<path d="M1923.06 550.08C1923.31 550.755 1923.59 551.413 1923.9 552.088C1932.45 570.501 1948.27 646.772 1948.27 646.772C1946.02 660.485 2051.33 644.08 2051.6 631.595C2055.31 618.355 2038.44 597.085 2028.93 586.414C2027.74 585.072 2026.66 583.634 2025.74 582.118C2023.39 578.313 2021.9 574.016 2021.42 569.527C2019.55 551.828 2020.27 535.24 2020.11 525.154L2020.11 525.153C2018.25 523.777 2016.45 522.505 2014.78 521.295C2012.22 519.427 2009.96 517.683 2008.29 515.912C2006.46 513.983 2005.31 512.01 2005.18 509.783C2005.08 508.099 2005.13 506.372 2005.31 504.645C2005.39 503.83 2005.49 503.014 2005.62 502.199C2006.93 493.633 2010.51 485.865 2010.51 485.865C2001.45 482.2 1985.35 484.383 1985.35 484.383C1985.35 484.383 1985.36 485.277 1985.37 486.741C1985.42 492.624 1985.37 507.731 1983.49 510.59C1981.13 514.15 1937.98 529.748 1935.7 524.917C1933.46 520.165 1939.6 497.903 1939.83 497.062C1939.84 497.044 1939.84 497.036 1939.84 497.036C1925.39 502.709 1920.23 507.47 1920.23 507.47C1928.93 513.115 1916.32 532.22 1923.06 550.08Z" fill="#F99746"/>
<path d="M1952.12 390.981C1952.17 389.518 1953.31 373.748 1977.33 372.924C1977.33 372.924 1965.51 374.332 1963.47 379.525C1963.47 379.525 1971.52 373.109 1978.07 375.173C1984.62 377.237 1988.46 388.712 1988.5 392.486C1988.54 396.261 1984.9 408.428 1980.74 409.462C1979.17 409.854 1977.36 409.749 1975.71 409.468C1976.82 411.195 1977.9 413.1 1978.94 415.227C1988.52 434.902 1978.64 454.131 1970.52 452.007C1965.32 450.645 1963.85 459.525 1963.85 459.525L1913.29 418.593C1913.29 418.593 1931.86 380.167 1952.12 390.981Z" fill="#2C3A64"/>
<path d="M1936.74 466.983C1936.74 466.983 1939.33 474.901 1941.24 482.493C1955.48 478.521 1959.8 463.555 1961.1 455.532L1936.74 466.983Z" fill="#ED985F"/>
<path d="M1933.74 475.368C1933.74 475.368 1967.81 467.485 1962.57 446.348C1957.34 425.212 1958.21 409.959 1936.24 414.098C1914.27 418.238 1912.06 427.346 1912.09 434.826C1912.12 442.306 1924.75 476.873 1933.74 475.368Z" fill="#FFB27D"/>
<path d="M1910.17 422.826C1913.83 415.165 1918.14 415.573 1920.84 416.932C1936.84 402.124 1952.54 414.222 1952.54 414.222C1958.59 428.819 1971.68 434.784 1971.68 434.784C1971.68 434.784 1966.45 440.142 1951.28 440.024C1946.65 439.988 1941.99 437.861 1937.75 434.93C1945.93 443.164 1955.52 448.176 1955.52 448.176C1936.53 444.543 1923.8 422.564 1922.49 420.229C1920.89 422.604 1917.81 427.66 1917.55 431.929C1917.2 437.731 1919.2 448.997 1915.87 449.424C1915.87 449.424 1904.68 434.315 1910.17 422.826Z" fill="#2C3A64"/>
<path d="M1920.22 507.464C1920.22 507.464 1912.02 521.771 1910.79 525.452C1910.79 525.452 1921.43 525.043 1925.72 533.224C1925.72 533.224 1926.75 509.393 1920.22 507.464Z" fill="#F99746"/>
<path d="M1976.63 621.144C1997.4 620.925 2014.99 599.356 2025.74 582.118C2023.39 578.313 2021.9 574.016 2021.42 569.527C2019.56 551.828 2020.27 535.24 2020.11 525.154L2020.11 525.153C2018.25 523.777 2016.45 522.505 2014.78 521.295C2012.22 519.427 2009.96 517.683 2008.29 515.912C1991.28 544.661 1948.47 621.441 1976.63 621.144Z" fill="#ED7D2B"/>
<path d="M1898.12 632.443L1900.96 642.845C1900.96 642.845 1904.54 642.195 1910.23 641.138C1911.93 640.813 1912.91 640.57 1912.91 640.57C1917.46 639.677 1922.91 638.457 1928.84 637.156H1928.92C1939.08 634.718 1950.46 631.793 1960.05 628.54C1966.79 626.184 1972.65 623.665 1976.63 621.145C1977.03 620.901 1977.36 620.657 1977.77 620.332C1987.27 613.425 1998.57 593.107 2007.35 571.325C2008.57 568.318 2009.71 565.311 2010.84 562.385C2014.91 551.493 2018.16 540.766 2020.11 531.501C2021.33 525.975 2022.14 520.935 2022.3 516.79C2022.38 515.328 2022.47 513.947 2022.38 512.645C2022.22 489.077 2010.52 485.826 2010.52 485.826C2010.28 485.745 2010.03 485.663 2009.71 485.583C2007.67 485.258 2005.56 486.639 2003.37 489.321C2000.6 492.653 1997.68 498.098 1994.67 504.681C1990.04 515.165 1985.16 528.738 1980.61 542.23C1978.09 549.625 1975.65 557.022 1973.21 563.848C1971.83 567.993 1970.45 571.894 1969.15 575.471C1966.63 582.298 1964.35 587.824 1962.32 591.319C1961.02 593.594 1957.28 596.764 1952.33 600.34C1943.71 606.598 1931.11 614.157 1920.14 620.333C1915.59 622.935 1911.28 625.291 1907.71 627.242C1901.94 630.411 1898.12 632.443 1898.12 632.443Z" fill="#FFB27D"/>
<path d="M1994.7 504.715C2010.34 500.402 2022.41 512.618 2022.41 512.618C2022.22 489.087 2010.5 485.865 2010.5 485.865C2005.79 483.915 2000.33 492.076 1994.7 504.715Z" fill="#F99746"/>
<path d="M2017.04 988.657H2071.14C2071.14 988.657 2072.43 980.414 2069.61 974.16C2066.9 968.158 2062.66 965.431 2063.67 958.17C2060.24 961.708 2054.64 965.671 2046.82 964.619C2045.86 966.173 2040.63 974.486 2037.43 976.785C2033.89 979.325 2018.13 978.419 2017.04 988.657Z" fill="#233862"/>
<path d="M1900.91 988.657H1955C1955 988.657 1957.02 980.03 1953.47 974.16C1950.32 968.966 1951.53 966.006 1953.86 961.709C1951.41 962.712 1948.24 963.625 1944.75 963.425C1942.05 963.27 1939.2 962.047 1936.7 960.596C1934.38 963.25 1924.41 974.547 1921.29 976.785C1917.76 979.325 1902 978.419 1900.91 988.657Z" fill="#233862"/>
<path d="M1894.9 680.64L1882.05 649.284C1880.37 645.194 1875.88 643.07 1871.72 644.219C1867.46 636.213 1861.59 629.707 1854.95 625.141C1847.94 620.318 1840.08 617.66 1832.31 617.694C1828.21 617.711 1824.13 618.486 1820.23 620.085C1801.95 627.574 1793.77 650.666 1800.47 673.342L1799.47 673.75C1799.47 673.75 1796.35 673.533 1791.11 673.533C1774.55 673.533 1736.93 675.732 1710.53 694.068C1710.53 694.068 1708.87 695.834 1708.8 698.533C1708.77 699.425 1708.92 700.424 1709.36 701.491C1709.36 701.491 1751.74 674.05 1790.93 702.249C1793.34 703.974 1795.67 705.573 1797.95 707.056L1801.46 715.637C1807.29 729.866 1823.7 736.73 1837.93 730.899L1873.82 716.187L1881.3 713.122C1893.97 707.932 1900.1 693.311 1894.9 680.64ZM1825.3 655.224L1810.68 661.222C1806.71 662.847 1804.62 667.17 1805.64 671.227L1804.08 671.869C1798.13 651.209 1805.39 630.374 1821.71 623.685C1824 622.744 1826.35 622.127 1828.74 621.827C1836.25 620.836 1844.08 622.86 1851.12 627.25C1857.81 631.415 1863.78 637.722 1868.07 645.636L1865.92 646.519C1863.8 642.92 1859.29 641.304 1855.31 642.929L1840.68 648.927C1839.54 646.137 1836.83 644.445 1833.98 644.445C1833.08 644.445 1832.15 644.62 1831.27 644.978L1829.25 645.811C1825.57 647.318 1823.8 651.55 1825.3 655.224Z" fill="#C94C43"/>
<path d="M1797.95 707.057C1795.67 705.574 1793.34 703.975 1790.93 702.25C1751.74 674.051 1709.36 701.492 1709.36 701.492C1708.92 700.426 1708.77 699.426 1708.8 698.534C1714.73 694.627 1736.97 681.631 1764.52 686.071C1796.8 691.279 1802.64 695.769 1797.95 707.057Z" fill="#B23B38"/>
<path d="M1881.3 713.122L1873.82 716.187C1885.04 710.064 1871.15 684.198 1863.03 667.12C1854.9 650.042 1842.62 657.848 1842.62 657.848C1839.8 652.125 1833.77 652.433 1833.77 652.433C1833.45 646.918 1829.25 645.81 1829.25 645.81L1831.27 644.977C1832.15 644.619 1833.08 644.444 1833.98 644.444C1836.83 644.444 1839.54 646.135 1840.68 648.926L1855.31 642.928C1859.29 641.304 1863.8 642.92 1865.92 646.518L1868.07 645.635C1863.77 637.721 1857.81 631.414 1851.12 627.249C1844.08 622.859 1836.25 620.835 1828.74 621.826C1829.91 620.876 1831.18 619.552 1832.31 617.694C1840.07 617.66 1847.94 620.318 1854.94 625.141C1861.59 629.706 1867.46 636.212 1871.71 644.219C1875.88 643.069 1880.37 645.194 1882.04 649.284L1894.9 680.64C1900.1 693.311 1893.97 707.932 1881.3 713.122Z" fill="#B23B38"/>
<path d="M1864.47 642.521C1869.67 644.714 1876.98 652.354 1888.69 647.723C1897.06 644.471 1905.92 642.196 1910.23 641.139C1911.93 640.814 1912.91 640.571 1912.91 640.571L1908.27 627.079C1908.27 627.079 1908.11 627.161 1907.71 627.242C1904.7 627.891 1889.42 631.143 1882.27 629.518C1874.22 627.649 1860.73 637.32 1860.73 637.32C1860.73 637.32 1859.27 640.408 1864.47 642.521Z" fill="#FFB27D"/>
<path d="M1717.63 724.14C1717.63 719.259 1708.8 704.193 1708.8 704.193C1708.8 704.193 1699.96 719.259 1699.96 724.14C1699.96 729.021 1703.92 732.978 1708.8 732.978C1713.68 732.978 1717.63 729.021 1717.63 724.14Z" fill="white"/>
<path d="M2409.21 1552.86C2409.21 1552.86 2419.45 1562.34 2417.45 1569.09C2415.46 1575.83 2406.22 1580.32 2404.97 1588.56C2403.72 1596.8 2398.73 1601.3 2394.23 1601.3C2389.74 1601.3 2372.8 1601.3 2372.8 1601.3C2372.8 1601.3 2369.49 1595.5 2377.49 1593.75C2385.48 1592 2388.49 1582.32 2387.99 1573.33C2387.49 1564.34 2388.74 1552.36 2388.74 1552.36L2405.72 1548.36L2409.21 1552.86Z" fill="#2C3A64"/>
<path d="M2283.62 1578.73C2283.62 1578.73 2286.11 1598.7 2281.62 1600.95C2277.12 1603.2 2223.44 1602.45 2223.44 1602.45C2223.44 1602.45 2223.44 1595.71 2232.68 1594.21C2241.92 1592.71 2258.15 1587.22 2260.89 1574.98C2263.64 1562.75 2283.62 1578.73 2283.62 1578.73Z" fill="#2C3A64"/>
<path d="M2235.05 1273.69C2235.05 1273.69 2238.09 1311.55 2241.65 1357.05C2246.5 1418.85 2252.33 1494.77 2252.9 1509.16C2253.9 1534.13 2257.9 1574.08 2257.9 1574.08C2257.9 1574.08 2267.38 1583.57 2286.37 1579.57C2286.37 1579.57 2303.28 1522.54 2308.11 1462.2C2308.19 1461.21 2308.26 1460.22 2308.34 1459.22C2312.83 1397.8 2319.82 1268.45 2319.82 1268.45L2235.05 1273.69Z" fill="#35488B"/>
<path d="M2235.05 1273.69C2235.05 1273.69 2238.09 1311.55 2241.65 1357.05L2308.11 1462.2C2308.19 1461.21 2308.26 1460.22 2308.34 1459.22C2312.83 1397.8 2319.82 1268.45 2319.82 1268.45L2235.05 1273.69Z" fill="#2C3A64"/>
<path d="M2248.91 1278.19C2248.91 1278.19 2303.59 1415.27 2339.55 1479.69C2375.51 1544.12 2386.74 1562.09 2386.74 1562.09C2386.74 1562.09 2407.34 1553.86 2409.22 1548.24C2409.22 1548.24 2395.47 1423.87 2371.39 1393.55C2357.78 1376.42 2341.8 1325.01 2341.05 1307.03C2340.3 1289.05 2336.18 1253.47 2336.18 1253.47L2248.91 1278.19Z" fill="#35488B"/>
<path d="M2141.59 1259.21C2141.59 1259.21 2122.29 1268.48 2119.7 1270.85C2117.1 1273.23 2110.69 1284.9 2111.18 1285.78C2111.67 1286.66 2112.63 1286.93 2114.38 1285.72C2116.13 1284.51 2121.04 1279.46 2121.22 1280.4C2121.4 1281.34 2108.12 1296.96 2110.47 1300.27C2112.82 1303.58 2126.13 1302.6 2133.73 1297.19C2141.34 1291.79 2148.93 1271.91 2150.07 1270.83C2159.76 1261.62 2141.59 1259.21 2141.59 1259.21Z" fill="#FFB27D"/>
<path d="M2140.72 1269.14C2135.37 1264.48 2135.22 1263.3 2135.22 1263.3C2135.22 1263.3 2169.44 1204.13 2172.41 1198.44C2175.38 1192.75 2193.71 1103.88 2193.71 1103.88L2257.11 1085.5C2257.11 1085.5 2212.46 1200.97 2204.66 1215.25C2191.77 1238.83 2149.7 1273.54 2149.7 1273.54C2149.7 1273.54 2144.93 1272.8 2140.72 1269.14Z" fill="#ED7D2B"/>
<path d="M2224.82 1062.38C2224.82 1062.38 2202.51 1101.63 2180.7 1106.76C2180.7 1106.76 2181.61 1093.57 2186.92 1084.55C2184.74 1081.99 2182.83 1079.63 2181.18 1077.52C2175.69 1070.49 2173.08 1066.18 2173.08 1066.18L2180.48 1046.28L2185.5 1032.78C2187.92 1037.16 2190.58 1040.9 2193.35 1044.09C2207.64 1060.52 2224.82 1062.38 2224.82 1062.38Z" fill="#FFB27D"/>
<path d="M2193.35 1044.09C2193.35 1044.09 2196.01 1063.76 2181.18 1077.52C2175.69 1070.49 2173.08 1066.18 2173.08 1066.18L2180.48 1046.28C2188.42 1043.86 2193.35 1044.09 2193.35 1044.09Z" fill="#ED975D"/>
<path d="M2167.2 1069.08C2167.2 1069.08 2200.54 1056.08 2192.12 1035.45C2183.71 1014.81 2182.35 999.237 2160.71 1006.66C2139.07 1014.09 2138.17 1023.64 2139.3 1031.21C2140.43 1038.78 2158.31 1071.93 2167.2 1069.08Z" fill="#FFB27D"/>
<path d="M2339.41 1263.83C2325.96 1283.16 2225.41 1308.99 2226.61 1295.61C2227.07 1290.49 2227.68 1281.46 2226.6 1269.22C2226.35 1266.35 2225.99 1263.31 2225.53 1260.1C2222.97 1242.51 2216.91 1219.91 2203.37 1193.73C2202.36 1191.76 2201.3 1189.79 2200.21 1187.79C2194.63 1177.65 2189.89 1166.95 2186.27 1156.47C2179.3 1136.34 2176.48 1117.07 2180.01 1104.48C2180.02 1104.42 2180.03 1104.36 2180.06 1104.31C2201.07 1094.59 2209.22 1056.9 2209.22 1056.9C2209.22 1056.9 2280.92 1069.77 2321.09 1165.35C2321.09 1165.35 2324.95 1175.84 2329.35 1190.08C2334.71 1207.36 2340.88 1230.13 2341.94 1246.38C2342.46 1254.1 2341.82 1260.34 2339.41 1263.83Z" fill="#F99746"/>
<path d="M2196.91 997.115C2197.14 996.654 2197.82 996.161 2199.47 995.655C2199.47 995.655 2197.92 995.134 2196.12 995.53C2195.18 993.246 2192.91 989.357 2188.64 989.327C2188.64 989.327 2191.09 989.964 2191.99 992.414C2186.14 988.708 2175.3 987.632 2148.25 996.644C2112.58 1008.52 2130.4 1029.22 2135.81 1030.88C2141.21 1032.54 2151.16 1021.89 2160.11 1020.44C2169.06 1018.98 2173.9 1031.45 2177.31 1032.48C2180.73 1033.52 2178.79 1030.68 2182.36 1027.84C2185.93 1025 2187.98 1031.68 2187.9 1036.38C2187.83 1041.07 2194.79 1045.52 2194.79 1045.52C2194.79 1045.52 2194.79 1045.52 2198.88 1038.03C2202.96 1030.53 2201.85 1003.32 2197.95 998.427C2197.6 997.995 2197.26 997.555 2196.91 997.115Z" fill="#2B478B"/>
<path d="M2341.94 1246.38C2255.42 1220.28 2241.66 1117.12 2241.66 1117.12C2241.66 1117.12 2290.92 1154.77 2329.35 1190.08C2334.71 1207.36 2340.88 1230.13 2341.94 1246.38Z" fill="#ED7D2B"/>
<path d="M2365.67 1249.77C2365.67 1249.77 2363.72 1266.13 2364.19 1268.81C2364.66 1271.48 2367.78 1279.42 2368.55 1279.47C2369.32 1279.51 2371.68 1279.61 2371.61 1277.97C2371.55 1276.33 2370.49 1274.8 2371.17 1275.07C2371.86 1275.34 2372.06 1281.52 2375.17 1281.36C2378.29 1281.2 2387.48 1277.74 2387.11 1270.56C2386.73 1263.39 2376.95 1250.24 2376.72 1249.05C2374.74 1238.95 2365.67 1249.77 2365.67 1249.77Z" fill="#FFB27D"/>
<path d="M2370.85 1252.53C2363.98 1255.67 2361.43 1252.46 2361.43 1252.46C2361.43 1252.46 2321.45 1185.7 2317.24 1180.33C2313.03 1174.96 2239.22 1143.28 2239.22 1143.28C2239.22 1143.28 2209.18 1131.8 2207.99 1113.58C2206.96 1097.74 2215.95 1088.02 2225.79 1082.15C2237.52 1075.16 2252.37 1076.19 2263.15 1084.56C2287.37 1103.37 2335.37 1141.19 2343.09 1151.45C2360.28 1174.27 2379.34 1245.83 2379.34 1245.83C2379.34 1245.83 2376.24 1250.06 2370.85 1252.53Z" fill="#F99746"/>
<path d="M2198.97 1297.8L2180.98 1315.78L2180.73 1315.63L2153.72 1298.69C2153.72 1298.69 2167.7 1303.2 2169.59 1302.67C2171.37 1302.17 2190.89 1295.46 2195.5 1296.02C2195.78 1296.06 2196 1296.12 2196.17 1296.21C2198.97 1297.8 2198.97 1297.8 2198.97 1297.8Z" fill="#4A75CB"/>
<path d="M2180.17 1320.67C2179.44 1320.51 2177.3 1320 2174.39 1319.25C2166 1317.11 2151.21 1312.99 2145.37 1309.61C2140.14 1306.58 2112.47 1290.49 2093.4 1279.19C2101.01 1275.12 2108.51 1274.55 2114.8 1275.34C2137.05 1288.41 2166.13 1305.56 2169.69 1308.06C2175.55 1312.18 2183.52 1317.16 2183.52 1317.16C2183.52 1317.16 2183.49 1317.38 2183.41 1317.72C2183.14 1318.83 2182.31 1321.13 2180.17 1320.67Z" fill="#E58638"/>
<path d="M2180.17 1320.67C2179.44 1320.51 2177.3 1320 2174.38 1319.25C2166 1317.11 2151.21 1312.99 2145.37 1309.61C2140.14 1306.58 2112.47 1290.49 2093.4 1279.19C2083.83 1273.52 2076.43 1269.05 2075.13 1268.05C2071.24 1265.06 2063.75 1257.58 2065.59 1256.17C2067.43 1254.76 2071.02 1256.18 2072.38 1255.97C2072.39 1255.97 2072.41 1255.97 2072.43 1255.96C2072.75 1255.92 2073.27 1255.83 2073.99 1255.79C2076.56 1255.64 2081.66 1255.99 2088.92 1260.18C2088.92 1260.18 2100.44 1266.91 2114.8 1275.34C2137.06 1288.41 2166.13 1305.56 2169.69 1308.06C2175.55 1312.18 2183.53 1317.16 2183.53 1317.16C2183.53 1317.16 2183.49 1317.38 2183.41 1317.72C2183.14 1318.83 2182.31 1321.13 2180.17 1320.67Z" fill="#739AF0"/>
<path d="M2180.17 1320.67C2179.44 1320.51 2177.3 1320 2174.39 1319.25C2174.77 1315.93 2172.44 1313.28 2172.44 1313.28L2183.41 1317.72C2183.14 1318.83 2182.31 1321.13 2180.17 1320.67Z" fill="#4A75CB"/>
<g opacity="0.5">
<path d="M2156.39 1306.53C2156.22 1306.43 2156.16 1306.21 2156.26 1306.04L2156.46 1305.71C2156.56 1305.54 2156.78 1305.48 2156.95 1305.58C2157.12 1305.68 2157.18 1305.9 2157.08 1306.07L2156.89 1306.4C2156.79 1306.57 2156.56 1306.63 2156.39 1306.53Z" fill="#4A75CB"/>
<path d="M2154.79 1305.58C2154.62 1305.48 2154.56 1305.26 2154.66 1305.09L2154.86 1304.76C2154.96 1304.59 2155.18 1304.53 2155.35 1304.63C2155.52 1304.73 2155.58 1304.96 2155.48 1305.13L2155.28 1305.46C2155.18 1305.63 2154.96 1305.68 2154.79 1305.58Z" fill="#4A75CB"/>
<path d="M2153.19 1304.63C2153.01 1304.53 2152.96 1304.31 2153.06 1304.14L2153.25 1303.81C2153.35 1303.64 2153.58 1303.58 2153.75 1303.68C2153.92 1303.79 2153.97 1304.01 2153.87 1304.18L2153.68 1304.51C2153.58 1304.68 2153.36 1304.74 2153.19 1304.63Z" fill="#4A75CB"/>
<path d="M2151.58 1303.69C2151.41 1303.59 2151.35 1303.36 2151.46 1303.19L2151.65 1302.86C2151.75 1302.69 2151.97 1302.64 2152.15 1302.74C2152.32 1302.84 2152.37 1303.06 2152.27 1303.23L2152.08 1303.56C2151.98 1303.73 2151.75 1303.79 2151.58 1303.69Z" fill="#4A75CB"/>
<path d="M2149.98 1302.74C2149.81 1302.64 2149.75 1302.42 2149.85 1302.25L2150.05 1301.92C2150.15 1301.75 2150.37 1301.69 2150.54 1301.79C2150.71 1301.89 2150.77 1302.11 2150.67 1302.28L2150.47 1302.61C2150.37 1302.78 2150.15 1302.84 2149.98 1302.74Z" fill="#4A75CB"/>
<path d="M2148.38 1301.79C2148.21 1301.69 2148.15 1301.47 2148.25 1301.3L2148.44 1300.97C2148.54 1300.8 2148.77 1300.74 2148.94 1300.84C2149.11 1300.94 2149.17 1301.17 2149.06 1301.34L2148.87 1301.67C2148.77 1301.84 2148.55 1301.89 2148.38 1301.79Z" fill="#4A75CB"/>
<path d="M2146.77 1300.84C2146.6 1300.74 2146.55 1300.52 2146.65 1300.35L2146.84 1300.02C2146.94 1299.85 2147.16 1299.79 2147.33 1299.89C2147.51 1300 2147.56 1300.22 2147.46 1300.39L2147.27 1300.72C2147.17 1300.89 2146.94 1300.95 2146.77 1300.84Z" fill="#4A75CB"/>
<path d="M2145.17 1299.9C2145 1299.8 2144.94 1299.57 2145.04 1299.4L2145.24 1299.07C2145.34 1298.9 2145.56 1298.85 2145.73 1298.95C2145.9 1299.05 2145.96 1299.27 2145.86 1299.44L2145.66 1299.77C2145.56 1299.94 2145.34 1300 2145.17 1299.9Z" fill="#4A75CB"/>
<path d="M2143.57 1298.95C2143.4 1298.85 2143.34 1298.63 2143.44 1298.46L2143.63 1298.13C2143.74 1297.96 2143.96 1297.9 2144.13 1298C2144.3 1298.1 2144.36 1298.32 2144.26 1298.49L2144.06 1298.82C2143.96 1298.99 2143.74 1299.05 2143.57 1298.95Z" fill="#4A75CB"/>
<path d="M2124.67 1287.78C2124.5 1287.68 2124.45 1287.46 2124.55 1287.29L2124.74 1286.96C2124.84 1286.79 2125.07 1286.73 2125.24 1286.83C2125.41 1286.93 2125.47 1287.16 2125.36 1287.33L2125.17 1287.66C2125.07 1287.83 2124.85 1287.88 2124.67 1287.78Z" fill="#4A75CB"/>
<path d="M2123.07 1286.83C2122.9 1286.73 2122.84 1286.51 2122.95 1286.34L2123.14 1286.01C2123.24 1285.84 2123.46 1285.78 2123.63 1285.88C2123.81 1285.99 2123.86 1286.21 2123.76 1286.38L2123.57 1286.71C2123.47 1286.88 2123.24 1286.94 2123.07 1286.83Z" fill="#4A75CB"/>
<path d="M2121.47 1285.89C2121.3 1285.79 2121.24 1285.56 2121.34 1285.39L2121.54 1285.06C2121.64 1284.89 2121.86 1284.84 2122.03 1284.94C2122.2 1285.04 2122.26 1285.26 2122.16 1285.43L2121.96 1285.76C2121.86 1285.93 2121.64 1285.99 2121.47 1285.89Z" fill="#4A75CB"/>
<path d="M2119.87 1284.94C2119.7 1284.84 2119.64 1284.62 2119.74 1284.45L2119.93 1284.12C2120.04 1283.95 2120.26 1283.89 2120.43 1283.99C2120.6 1284.09 2120.66 1284.31 2120.56 1284.48L2120.36 1284.81C2120.26 1284.98 2120.04 1285.04 2119.87 1284.94Z" fill="#4A75CB"/>
<path d="M2118.26 1283.99C2118.09 1283.89 2118.03 1283.67 2118.14 1283.5L2118.33 1283.17C2118.43 1283 2118.65 1282.94 2118.82 1283.04C2119 1283.14 2119.05 1283.37 2118.95 1283.54L2118.76 1283.87C2118.66 1284.04 2118.43 1284.09 2118.26 1283.99Z" fill="#4A75CB"/>
<path d="M2116.66 1283.04C2116.49 1282.94 2116.43 1282.72 2116.53 1282.55L2116.73 1282.22C2116.83 1282.05 2117.05 1281.99 2117.22 1282.09C2117.39 1282.2 2117.45 1282.42 2117.35 1282.59L2117.15 1282.92C2117.05 1283.09 2116.83 1283.15 2116.66 1283.04Z" fill="#4A75CB"/>
<path d="M2115.06 1282.1C2114.88 1282 2114.83 1281.77 2114.93 1281.6L2115.12 1281.27C2115.22 1281.1 2115.45 1281.04 2115.62 1281.15C2115.79 1281.25 2115.85 1281.47 2115.74 1281.64L2115.55 1281.97C2115.45 1282.14 2115.23 1282.2 2115.06 1282.1Z" fill="#4A75CB"/>
<path d="M2113.45 1281.15C2113.28 1281.05 2113.23 1280.83 2113.33 1280.66L2113.52 1280.33C2113.62 1280.16 2113.84 1280.1 2114.02 1280.2C2114.19 1280.3 2114.24 1280.52 2114.14 1280.69L2113.95 1281.02C2113.85 1281.19 2113.63 1281.25 2113.45 1281.15Z" fill="#4A75CB"/>
<path d="M2111.85 1280.2C2111.68 1280.1 2111.62 1279.88 2111.72 1279.71L2111.92 1279.38C2112.02 1279.21 2112.24 1279.15 2112.41 1279.25C2112.58 1279.35 2112.64 1279.57 2112.54 1279.75L2112.34 1280.07C2112.24 1280.25 2112.02 1280.3 2111.85 1280.2Z" fill="#4A75CB"/>
<path d="M2105.65 1276.53C2105.48 1276.43 2105.42 1276.21 2105.52 1276.04L2105.71 1275.71C2105.82 1275.54 2106.04 1275.48 2106.21 1275.58C2106.38 1275.69 2106.44 1275.91 2106.33 1276.08L2106.14 1276.41C2106.04 1276.58 2105.82 1276.64 2105.65 1276.53Z" fill="#4A75CB"/>
<path d="M2108.78 1278.39C2108.61 1278.29 2108.55 1278.06 2108.65 1277.89L2108.85 1277.56C2108.95 1277.39 2109.17 1277.34 2109.34 1277.44C2109.51 1277.54 2109.57 1277.76 2109.47 1277.93L2109.28 1278.26C2109.17 1278.43 2108.95 1278.49 2108.78 1278.39Z" fill="#4A75CB"/>
<path d="M2104.04 1275.59C2103.87 1275.49 2103.82 1275.26 2103.92 1275.09L2104.11 1274.76C2104.21 1274.59 2104.43 1274.53 2104.61 1274.64C2104.78 1274.74 2104.83 1274.96 2104.73 1275.13L2104.54 1275.46C2104.44 1275.63 2104.21 1275.69 2104.04 1275.59Z" fill="#4A75CB"/>
<path d="M2102.44 1274.64C2102.27 1274.54 2102.21 1274.32 2102.31 1274.14L2102.51 1273.82C2102.61 1273.64 2102.83 1273.59 2103 1273.69C2103.17 1273.79 2103.23 1274.01 2103.13 1274.18L2102.93 1274.51C2102.83 1274.68 2102.61 1274.74 2102.44 1274.64Z" fill="#4A75CB"/>
<path d="M2100.84 1273.69C2100.67 1273.59 2100.61 1273.37 2100.71 1273.2L2100.9 1272.87C2101.01 1272.7 2101.23 1272.64 2101.4 1272.74C2101.57 1272.84 2101.63 1273.06 2101.53 1273.24L2101.33 1273.56C2101.23 1273.74 2101.01 1273.79 2100.84 1273.69Z" fill="#4A75CB"/>
<path d="M2099.23 1272.74C2099.06 1272.64 2099.01 1272.42 2099.11 1272.25L2099.3 1271.92C2099.4 1271.75 2099.62 1271.69 2099.8 1271.79C2099.97 1271.9 2100.02 1272.12 2099.92 1272.29L2099.73 1272.62C2099.63 1272.79 2099.41 1272.84 2099.23 1272.74Z" fill="#4A75CB"/>
<path d="M2097.63 1271.8C2097.46 1271.69 2097.4 1271.47 2097.5 1271.3L2097.7 1270.97C2097.8 1270.8 2098.02 1270.74 2098.19 1270.85C2098.36 1270.95 2098.42 1271.17 2098.32 1271.34L2098.12 1271.67C2098.02 1271.84 2097.8 1271.9 2097.63 1271.8Z" fill="#4A75CB"/>
<path d="M2096.03 1270.85C2095.86 1270.75 2095.8 1270.53 2095.9 1270.35L2096.09 1270.03C2096.2 1269.85 2096.42 1269.8 2096.59 1269.9C2096.76 1270 2096.82 1270.22 2096.72 1270.39L2096.52 1270.72C2096.42 1270.89 2096.2 1270.95 2096.03 1270.85Z" fill="#4A75CB"/>
<path d="M2094.42 1269.9C2094.25 1269.8 2094.2 1269.58 2094.3 1269.41L2094.49 1269.08C2094.59 1268.91 2094.81 1268.85 2094.99 1268.95C2095.16 1269.05 2095.21 1269.27 2095.11 1269.45L2094.92 1269.77C2094.82 1269.95 2094.6 1270 2094.42 1269.9Z" fill="#4A75CB"/>
<path d="M2092.82 1268.95C2092.65 1268.85 2092.59 1268.63 2092.69 1268.46L2092.89 1268.13C2092.99 1267.96 2093.21 1267.9 2093.38 1268C2093.55 1268.1 2093.61 1268.33 2093.51 1268.5L2093.32 1268.83C2093.22 1269 2092.99 1269.05 2092.82 1268.95Z" fill="#4A75CB"/>
<path d="M2091.25 1268.02C2091.08 1267.92 2091.02 1267.7 2091.12 1267.53L2091.32 1267.2C2091.42 1267.03 2091.64 1266.97 2091.81 1267.07C2091.98 1267.18 2092.04 1267.4 2091.94 1267.57L2091.75 1267.9C2091.64 1268.07 2091.42 1268.13 2091.25 1268.02Z" fill="#4A75CB"/>
<path d="M2089.65 1267.08C2089.48 1266.98 2089.42 1266.75 2089.52 1266.58L2089.71 1266.25C2089.82 1266.08 2090.04 1266.03 2090.21 1266.13C2090.38 1266.23 2090.44 1266.45 2090.34 1266.62L2090.14 1266.95C2090.04 1267.12 2089.82 1267.18 2089.65 1267.08Z" fill="#4A75CB"/>
<path d="M2088.04 1266.13C2087.87 1266.03 2087.82 1265.81 2087.92 1265.63L2088.11 1265.31C2088.21 1265.13 2088.43 1265.08 2088.61 1265.18C2088.78 1265.28 2088.83 1265.5 2088.73 1265.67L2088.54 1266C2088.44 1266.17 2088.21 1266.23 2088.04 1266.13Z" fill="#4A75CB"/>
<path d="M2075.72 1257.87C2075.57 1258.05 2075.32 1258.12 2075.1 1258.04C2075.04 1258.02 2074.99 1257.99 2074.94 1257.96L2072.43 1255.97C2072.75 1255.92 2073.27 1255.83 2073.99 1255.79L2075.63 1257.09C2075.87 1257.28 2075.91 1257.63 2075.72 1257.87Z" fill="#4A75CB"/>
<path d="M2116.07 1284.59L2115.58 1284.3C2115.26 1284.11 2115.15 1283.69 2115.34 1283.37L2116.54 1281.34C2116.73 1281.01 2117.15 1280.91 2117.48 1281.1L2117.96 1281.39C2118.28 1281.58 2118.39 1281.99 2118.2 1282.32L2117 1284.35C2116.81 1284.67 2116.39 1284.78 2116.07 1284.59Z" fill="#4A75CB"/>
<path d="M2119.25 1286.47L2118.77 1286.18C2118.45 1285.99 2118.34 1285.57 2118.53 1285.25L2119.73 1283.22C2119.92 1282.9 2120.34 1282.79 2120.66 1282.98L2121.15 1283.27C2121.47 1283.46 2121.58 1283.88 2121.39 1284.2L2120.19 1286.23C2120 1286.55 2119.58 1286.66 2119.25 1286.47Z" fill="#4A75CB"/>
<path d="M2138.85 1296.16C2138.68 1296.06 2138.63 1295.84 2138.73 1295.67L2138.92 1295.34C2139.02 1295.17 2139.24 1295.11 2139.42 1295.21C2139.59 1295.32 2139.64 1295.54 2139.54 1295.71L2139.35 1296.04C2139.25 1296.21 2139.03 1296.26 2138.85 1296.16Z" fill="#4A75CB"/>
<path d="M2137.25 1295.22C2137.08 1295.11 2137.02 1294.89 2137.12 1294.72L2137.32 1294.39C2137.42 1294.22 2137.64 1294.16 2137.81 1294.27C2137.98 1294.37 2138.04 1294.59 2137.94 1294.76L2137.75 1295.09C2137.64 1295.26 2137.42 1295.32 2137.25 1295.22Z" fill="#4A75CB"/>
<path d="M2135.65 1294.27C2135.48 1294.17 2135.42 1293.95 2135.52 1293.77L2135.72 1293.45C2135.82 1293.27 2136.04 1293.22 2136.21 1293.32C2136.38 1293.42 2136.44 1293.64 2136.34 1293.81L2136.14 1294.14C2136.04 1294.31 2135.82 1294.37 2135.65 1294.27Z" fill="#4A75CB"/>
<path d="M2134.05 1293.32C2133.87 1293.22 2133.82 1293 2133.92 1292.83L2134.11 1292.5C2134.21 1292.33 2134.44 1292.27 2134.61 1292.37C2134.78 1292.47 2134.84 1292.69 2134.73 1292.86L2134.54 1293.19C2134.44 1293.36 2134.22 1293.42 2134.05 1293.32Z" fill="#4A75CB"/>
<path d="M2132.44 1292.37C2132.27 1292.27 2132.21 1292.05 2132.31 1291.88L2132.51 1291.55C2132.61 1291.38 2132.83 1291.32 2133 1291.42C2133.17 1291.52 2133.23 1291.75 2133.13 1291.92L2132.94 1292.25C2132.84 1292.42 2132.61 1292.47 2132.44 1292.37Z" fill="#4A75CB"/>
<path d="M2130.84 1291.43C2130.67 1291.32 2130.61 1291.1 2130.71 1290.93L2130.91 1290.6C2131.01 1290.43 2131.23 1290.37 2131.4 1290.47C2131.57 1290.58 2131.63 1290.8 2131.53 1290.97L2131.33 1291.3C2131.23 1291.47 2131.01 1291.53 2130.84 1291.43Z" fill="#4A75CB"/>
<path d="M2129.23 1290.48C2129.06 1290.38 2129.01 1290.15 2129.11 1289.98L2129.3 1289.65C2129.4 1289.48 2129.63 1289.43 2129.8 1289.53C2129.97 1289.63 2130.02 1289.85 2129.92 1290.02L2129.73 1290.35C2129.63 1290.52 2129.41 1290.58 2129.23 1290.48Z" fill="#4A75CB"/>
<path d="M2127.63 1289.53C2127.46 1289.43 2127.4 1289.21 2127.5 1289.04L2127.7 1288.71C2127.8 1288.54 2128.02 1288.48 2128.19 1288.58C2128.36 1288.68 2128.42 1288.9 2128.32 1289.07L2128.13 1289.4C2128.03 1289.57 2127.8 1289.63 2127.63 1289.53Z" fill="#4A75CB"/>
<path d="M2126.03 1288.58C2125.86 1288.48 2125.8 1288.26 2125.9 1288.09L2126.1 1287.76C2126.2 1287.59 2126.42 1287.53 2126.59 1287.63C2126.76 1287.73 2126.82 1287.96 2126.72 1288.13L2126.52 1288.46C2126.42 1288.63 2126.2 1288.68 2126.03 1288.58Z" fill="#4A75CB"/>
</g>
<path d="M2116.16 1293.07C2117.24 1293.27 2118.05 1292.11 2117.51 1291.16C2116.96 1290.21 2116.13 1289.11 2114.95 1288.43C2112.52 1287.03 2111.8 1291.47 2112.59 1291.97C2113.06 1292.27 2114.73 1292.82 2116.16 1293.07Z" fill="#2B478B"/>
<path d="M2115.92 1287.79L2112.94 1292.83C2112.94 1292.83 2109.97 1292.23 2105.92 1289.97C2103.44 1288.58 2101.94 1287.3 2101.15 1286.51C2100.66 1286.01 2100.44 1285.71 2100.44 1285.71L2103.57 1280.42C2103.87 1280.39 2104.24 1280.44 2104.67 1280.56C2108.22 1281.57 2115.51 1287.32 2115.51 1287.32L2115.92 1287.79Z" fill="#2B478B"/>
<path d="M2104.67 1280.56L2101.15 1286.51C2100.66 1286.01 2100.44 1285.71 2100.44 1285.71L2103.57 1280.42C2103.87 1280.38 2104.24 1280.44 2104.67 1280.56Z" fill="#4A75CB"/>
<path d="M2172.57 1312.39C2172.71 1312.34 2183.02 1314.67 2188.62 1318.77L2181.54 1318.66L2172.44 1313.28C2172.44 1313.28 2171.84 1312.66 2172.57 1312.39Z" fill="#2B478B"/>
<path d="M2151.53 1291.87C2151.53 1291.87 2145.16 1296.26 2144.05 1296.85C2142.94 1297.44 2141.16 1297.28 2141.16 1297.28L2141.15 1297.28L2130.19 1295.43C2130.19 1295.43 2118.5 1288.6 2115.98 1287.05C2115.75 1286.91 2115.6 1286.82 2115.54 1286.77C2114.8 1286.24 2114.55 1285.76 2114.81 1285.62C2115.06 1285.47 2134.29 1293.12 2136.41 1293.98C2136.43 1293.98 2136.45 1293.99 2136.47 1294C2138.54 1294.83 2138.96 1294.4 2138.96 1294.4L2149.56 1291.49C2149.71 1291.41 2149.91 1291.4 2150.13 1291.42C2150.77 1291.49 2151.53 1291.87 2151.53 1291.87Z" fill="#4A75CB"/>
<path d="M2150.13 1291.42C2147.23 1292.31 2139.21 1294.76 2138.51 1294.85C2137.76 1294.94 2120.28 1288.61 2115.98 1287.05C2115.75 1286.91 2115.6 1286.82 2115.54 1286.77C2114.8 1286.24 2114.56 1285.76 2114.81 1285.62C2115.06 1285.47 2134.29 1293.12 2136.41 1293.98C2138.53 1294.84 2138.96 1294.4 2138.96 1294.4L2149.56 1291.49C2149.71 1291.41 2149.91 1291.4 2150.13 1291.42Z" fill="#4A75CB"/>
<path d="M2151.53 1291.87C2151.53 1291.87 2145.16 1296.26 2144.05 1296.85C2142.94 1297.44 2141.16 1297.28 2141.16 1297.28L2141.15 1297.28C2139.08 1296.18 2137.48 1294.91 2136.47 1294C2138.54 1294.83 2138.95 1294.4 2138.95 1294.4L2149.56 1291.49C2149.71 1291.41 2149.91 1291.4 2150.12 1291.42C2150.77 1291.49 2151.53 1291.87 2151.53 1291.87Z" fill="#4A75CB"/>
<path d="M2181.22 1315.89L2153.72 1298.68C2153.72 1298.68 2167.92 1303.32 2169.83 1302.8C2171.64 1302.32 2191.38 1295.72 2196.05 1296.32C2190.74 1298.46 2178.3 1303.77 2177.44 1306.71C2176.62 1309.51 2179.65 1313.87 2181.22 1315.89Z" fill="#739AF0"/>
<path d="M1952.55 1308.57C1952.66 1302.79 1957.15 1292.92 1948.29 1283.55C1942.01 1276.82 1936.47 1269.26 1933.83 1265.56C1932.87 1264.06 1922.15 1272.88 1922.38 1273.24C1924.15 1275.85 1932.24 1289.16 1933.41 1296.58C1934.69 1304.95 1949.02 1314.11 1949.02 1314.11C1949.02 1314.11 1952.52 1314.32 1952.55 1308.57Z" fill="#F4A671"/>
<path d="M2019.86 1309.72C2005.77 1310.45 1996.13 1288.58 1990.19 1288.29C1989.22 1288.25 1987.37 1288.52 1984.99 1288.87C1990.84 1298.46 1995.3 1309.73 1997.78 1322.13C2006.23 1364.32 1988.42 1403.47 1958 1409.56C1928.42 1415.48 1897.8 1387.94 1888.38 1347.59C1888.12 1346.46 1887.87 1345.32 1887.64 1344.17C1885.18 1331.87 1884.95 1319.82 1886.62 1308.78C1886.62 1308.75 1886.62 1308.71 1886.63 1308.68C1885.36 1309.02 1884.37 1309.31 1883.79 1309.59C1878.41 1312.14 1877.95 1336.03 1864.65 1340.78C1851.35 1345.53 1842.39 1320.05 1858.22 1300.2C1867.88 1288.1 1884.98 1282.26 1896.86 1279.54C1899.33 1275.52 1902.17 1271.9 1905.33 1268.78C1905.45 1268.66 1905.56 1268.54 1905.68 1268.42C1896.96 1263.7 1890.32 1255.28 1888.22 1244.79C1887.51 1241.24 1887.37 1237.7 1887.74 1234.28C1887.71 1234.28 1887.68 1234.26 1887.65 1234.26C1881.65 1232.45 1876.82 1227.47 1875.5 1220.89C1873.6 1211.39 1879.76 1202.14 1889.27 1200.25C1896.14 1198.87 1902.89 1201.72 1906.81 1207C1909.45 1205.7 1912.3 1204.71 1915.33 1204.11C1918.02 1203.57 1920.69 1203.36 1923.31 1203.45C1924.97 1197.18 1930.05 1192.08 1936.83 1190.72C1946.34 1188.82 1955.58 1194.98 1957.48 1204.49C1958.73 1210.72 1956.5 1216.85 1952.15 1220.86C1953.94 1224 1955.27 1227.48 1956.01 1231.22C1958 1241.12 1955.53 1250.88 1950.01 1258.43C1954.97 1260.14 1959.79 1262.7 1964.35 1265.99C1976.27 1263.71 1995.75 1261.86 2010.17 1269.79C2032.43 1282.02 2033.96 1308.98 2019.86 1309.72Z" fill="#2B478B"/>
<path d="M1888.38 1347.59C1888.12 1346.46 1887.87 1345.32 1887.64 1344.17C1885.18 1331.87 1884.95 1319.82 1886.62 1308.78C1888.36 1306.74 1890.69 1305.23 1893.32 1306.48C1899.14 1309.24 1898.22 1337.12 1907.11 1343.56C1913.7 1348.33 1897.23 1348.38 1888.38 1347.59Z" fill="#233862"/>
<path d="M1922.18 1264.35C1918.84 1265.58 1911.71 1267.8 1905.33 1268.78C1905.44 1268.66 1905.56 1268.54 1905.68 1268.42C1896.95 1263.7 1890.32 1255.28 1888.21 1244.79C1887.5 1241.24 1887.37 1237.71 1887.74 1234.29C1887.71 1234.28 1887.68 1234.27 1887.65 1234.26C1888 1234.12 1888.45 1234.33 1889.03 1235.16C1891.25 1238.3 1903.23 1263.73 1922.18 1260.82C1922.18 1260.82 1927.13 1262.51 1922.18 1264.35Z" fill="#233862"/>
<path d="M1931.17 1205.66C1931.17 1205.66 1935.61 1197.39 1942.2 1199.54C1948.79 1201.68 1949.71 1211.18 1945.42 1213.78C1945.42 1213.78 1939.03 1207.88 1931.17 1205.66Z" fill="#233862"/>
<path d="M1900.22 1210.5C1900.22 1210.5 1890.72 1206.12 1886.43 1211.18C1882.14 1216.24 1890.72 1222.69 1890.72 1222.69C1890.72 1222.69 1894.85 1214.11 1900.22 1210.5Z" fill="#233862"/>
<path d="M1823.92 1363.56C1817.22 1357.53 1822.73 1343.28 1820.18 1340.47C1819.76 1340.01 1818.8 1339.3 1817.56 1338.38C1815.88 1345.36 1812.81 1352.48 1808.33 1359.2C1793.11 1382.1 1767.38 1391.76 1750.87 1380.78C1734.82 1370.11 1733.41 1343.83 1747.36 1321.33C1747.75 1320.7 1748.16 1320.07 1748.57 1319.45C1753.01 1312.77 1758.35 1307.22 1764.09 1302.98C1764.1 1302.96 1764.12 1302.95 1764.14 1302.94C1763.41 1302.52 1762.83 1302.2 1762.44 1302.06C1758.86 1300.79 1747.86 1311.39 1739.7 1307.53C1731.55 1303.68 1739 1288.11 1755.12 1286.28C1764.95 1285.16 1775.32 1290.25 1781.92 1294.38C1784.85 1293.67 1787.77 1293.32 1790.61 1293.33C1790.71 1293.33 1790.82 1293.33 1790.93 1293.33C1789.11 1287.26 1789.91 1280.45 1793.7 1274.76C1794.98 1272.83 1796.52 1271.17 1798.23 1269.79C1798.21 1269.78 1798.21 1269.76 1798.2 1269.74C1796.3 1266.21 1796.36 1261.78 1798.74 1258.21C1802.17 1253.06 1809.13 1251.66 1814.28 1255.09C1818.02 1257.57 1819.78 1261.9 1819.17 1266.06C1820.95 1266.67 1822.69 1267.51 1824.33 1268.6C1825.78 1269.57 1827.09 1270.68 1828.23 1271.91C1831.81 1269.82 1836.41 1269.81 1840.09 1272.26C1845.25 1275.69 1846.65 1282.65 1843.22 1287.81C1840.97 1291.19 1837.2 1292.95 1833.42 1292.8C1832.81 1295.03 1831.84 1297.2 1830.49 1299.23C1826.91 1304.61 1821.39 1307.91 1815.48 1308.83C1816.96 1311.84 1817.98 1315.18 1818.56 1318.72C1824.98 1323.07 1834.62 1331.03 1837.56 1341.13C1842.11 1356.7 1830.63 1369.58 1823.92 1363.56Z" fill="#EFCDAF"/>
<path d="M1747.36 1321.33C1747.75 1320.7 1748.16 1320.07 1748.57 1319.45C1753.01 1312.77 1758.35 1307.22 1764.09 1302.98C1765.8 1302.85 1767.53 1303.21 1768.16 1304.97C1769.54 1308.84 1756.54 1321.04 1757.65 1327.96C1758.48 1333.09 1751.01 1325.68 1747.36 1321.33Z" fill="#E2B99A"/>
<path d="M1800.23 1298.94C1798.16 1297.99 1793.94 1295.77 1790.61 1293.33C1790.71 1293.33 1790.82 1293.33 1790.93 1293.33C1789.11 1287.26 1789.91 1280.46 1793.7 1274.76C1794.98 1272.84 1796.51 1271.18 1798.22 1269.79C1798.21 1269.78 1798.21 1269.76 1798.2 1269.74C1798.42 1269.84 1798.52 1270.14 1798.42 1270.77C1798 1273.2 1791.94 1290.11 1801.82 1297.35C1801.82 1297.35 1803.3 1300.34 1800.23 1298.94Z" fill="#E2B99A"/>
<path d="M1830.79 1276.46C1830.79 1276.46 1836.53 1274.72 1838.54 1278.67C1840.55 1282.61 1836.68 1287.32 1833.56 1286.56C1833.56 1286.56 1833.34 1281.01 1830.79 1276.46Z" fill="#FFF3E9"/>
<path d="M1814.6 1264.67C1814.6 1264.67 1812.28 1258.4 1808.06 1258.75C1803.84 1259.1 1804.81 1265.89 1804.81 1265.89C1804.81 1265.89 1810.55 1263.88 1814.6 1264.67Z" fill="#FFF3E9"/>
<path d="M1681.98 1360.09C1681.98 1360.09 1667.59 1341.53 1667.49 1326.38C1667.4 1311.24 1667.84 1306.21 1670.36 1306.89C1672.89 1307.58 1684.26 1316.02 1688.35 1324.43C1692.44 1332.84 1699.62 1354.85 1699.77 1357.84C1699.92 1360.84 1681.98 1360.09 1681.98 1360.09Z" fill="#AFCDFB"/>
<path d="M1682.77 1354.17C1682.77 1354.17 1673.57 1341.35 1673.23 1331.1C1672.88 1320.86 1673.05 1317.47 1674.62 1317.98C1676.19 1318.49 1683.33 1324.42 1686.01 1330.18C1688.68 1335.94 1693.51 1350.96 1693.66 1352.99C1693.8 1355.01 1682.77 1354.17 1682.77 1354.17Z" fill="#E57970"/>
<path d="M1705.21 1352.34C1705.21 1352.34 1698.31 1327.21 1701.04 1320.37C1703.76 1313.52 1717.9 1318.09 1719.5 1322.92C1721.11 1327.74 1720.12 1348.11 1720.12 1348.11L1705.21 1352.34Z" fill="#AFCDFB"/>
<path d="M1707.05 1323.44C1707.05 1323.44 1706.05 1343.37 1709.53 1351.12L1716.23 1349.22C1716.23 1349.22 1717.27 1326.97 1716.38 1325.47C1715.48 1323.97 1707.05 1323.44 1707.05 1323.44Z" fill="#E57970"/>
<path d="M1700.65 1321.79C1700.65 1321.79 1723.86 1337.15 1725.73 1335.53C1727.6 1333.91 1720.54 1318.32 1717.81 1316.92C1715.07 1315.53 1700.48 1312.64 1700.65 1321.79Z" fill="#AFCDFB"/>
<path d="M1657.95 1602.57H1974.38V1341.65H1657.95V1602.57Z" fill="#D3671E"/>
<path d="M2132.6 1341.65H1816.17V1602.57H2132.6V1341.65Z" fill="#F99746"/>
<path opacity="0.4" d="M2132.6 1341.65V1424.5L1816.17 1443.45V1341.65H2132.6Z" fill="#D86713"/>
<path d="M1816.17 1341.65L1878.78 1410.3H2191.03L2132.6 1341.65H1816.17Z" fill="#F99746"/>
<path d="M1658.14 1536.4H1708.28L1703.86 1522.29L1708.28 1512.21H1658.14V1536.4Z" fill="#F1A34F"/>
<path opacity="0.4" d="M2132.67 1581.14H2082.53L2086.94 1567.04L2082.53 1556.95H2132.67V1581.14Z" fill="#D86713"/>
<path d="M1816.17 1371.15L1749.47 1437.85H1658.14V1341.65H1816.17V1371.15Z" fill="#C95C12"/>
<path d="M1657.95 1341.65L1586.81 1410.3H1745.13L1816.17 1341.65H1657.95Z" fill="#F99746"/>
<path d="M1579.82 1533.83L1574.06 1534.95C1567.22 1536.28 1560.54 1531.77 1559.22 1524.93L1550.74 1481.31C1549.53 1475.07 1553.16 1468.98 1558.99 1466.94C1558.94 1466.79 1558.89 1466.64 1558.86 1466.48L1558.36 1463.92C1558.01 1462.14 1559.19 1460.4 1560.97 1460.05L1563.53 1459.55C1565.32 1459.21 1567.06 1460.38 1567.4 1462.16L1567.9 1464.73C1567.92 1464.84 1567.94 1464.97 1567.95 1465.09C1567.95 1465.11 1567.95 1465.13 1567.95 1465.15C1574.26 1464.66 1580.13 1469 1581.37 1475.35L1589.84 1518.99C1591.17 1525.82 1586.66 1532.5 1579.82 1533.83Z" fill="#CADDFF"/>
<path d="M1581.88 1477.95L1551.26 1483.89L1557.08 1513.88L1587.7 1507.93L1581.88 1477.95Z" fill="#2B478B"/>
<path d="M1567.95 1465.09L1558.99 1466.94C1558.94 1466.79 1558.89 1466.64 1558.86 1466.48L1558.36 1463.91C1558.02 1462.14 1559.19 1460.4 1560.97 1460.05L1563.54 1459.55C1565.32 1459.21 1567.06 1460.38 1567.4 1462.16L1567.9 1464.73C1567.92 1464.84 1567.94 1464.97 1567.95 1465.09Z" fill="#4A75CB"/>
<path d="M1735.09 1454.08C1735.09 1454.08 1731.29 1459.42 1727.82 1459.49C1724.34 1459.57 1719.05 1457.02 1719.05 1457.02C1719.05 1457.02 1715.85 1449.9 1718.02 1447.11C1718.02 1447.11 1720.19 1446.16 1722.46 1447.84C1722.85 1448.13 1723.25 1448.5 1723.64 1448.97C1724.19 1449.63 1724.81 1450.01 1725.46 1450.21C1727.95 1450.96 1730.89 1449.19 1731.99 1450.9C1732.64 1451.9 1733.34 1452.65 1733.91 1453.17C1734.59 1453.78 1735.09 1454.08 1735.09 1454.08Z" fill="#F9DDBF"/>
<path d="M1685.63 1492.6C1685.63 1492.6 1699.04 1460.11 1723.17 1459.49C1723.17 1459.49 1745.46 1461.97 1746.69 1492.6H1685.63Z" fill="#F9DDBF"/>
<path d="M1716.56 1460.48C1716.56 1460.48 1726.24 1462.63 1729.22 1461.37C1729.22 1461.37 1729.67 1457.33 1725.6 1457.89C1722.81 1458.28 1720.99 1456.94 1719.92 1456.4C1718.41 1455.63 1716.16 1458.79 1716.56 1460.48Z" fill="#F1A34F"/>
<path d="M1724.98 1454.38C1724.36 1454.85 1722.46 1447.84 1722.46 1447.84C1722.85 1448.13 1723.25 1448.5 1723.64 1448.97C1724.19 1449.63 1724.81 1450.01 1725.46 1450.21C1725.47 1450.41 1725.58 1453.93 1724.98 1454.38Z" fill="#E5C1A1"/>
<path d="M1733.91 1453.17C1733.78 1453.25 1729.3 1455.93 1728.7 1455.93C1728.08 1455.93 1731.99 1450.9 1731.99 1450.9C1732.64 1451.9 1733.34 1452.65 1733.91 1453.17Z" fill="#E5C1A1"/>
<path d="M1698.73 1483.53C1698.48 1483.31 1708.22 1469.19 1710.9 1469.09C1713.58 1468.98 1719.61 1472.18 1723.97 1472.59C1728.33 1473 1732.56 1471.77 1733.39 1474.35C1734.21 1476.92 1736.48 1486.07 1735.09 1487.53C1733.7 1488.99 1704.08 1488.1 1698.73 1483.53Z" fill="#E5C1A1"/>
<path d="M1585.72 1505.49C1585.35 1506.22 1584.81 1506.8 1584.18 1507.23C1583.82 1507.46 1583.44 1507.65 1583.04 1507.78C1581.92 1508.15 1580.66 1508.09 1579.53 1507.51L1519.4 1476.97C1517.14 1475.82 1516.23 1473.04 1517.38 1470.78C1517.95 1469.65 1518.93 1468.86 1520.06 1468.49C1521.18 1468.12 1522.44 1468.18 1523.57 1468.76L1583.7 1499.3C1585.96 1500.45 1586.86 1503.24 1585.72 1505.49Z" fill="#E57970"/>
<path d="M1539.34 1487.1L1535.55 1474.84L1525.86 1469.92L1531.7 1483.22L1539.34 1487.1Z" fill="#B64C41"/>
<path d="M1554.02 1494.56L1546.38 1490.68L1540.55 1477.38L1550.23 1482.3L1554.02 1494.56Z" fill="#B64C41"/>
<path d="M1568.69 1502.01L1561.05 1498.13L1555.22 1484.84L1564.9 1489.76L1568.69 1502.01Z" fill="#B64C41"/>
<path d="M1584.18 1507.23C1583.82 1507.46 1583.44 1507.65 1583.04 1507.78C1581.92 1508.15 1580.66 1508.09 1579.53 1507.51L1576 1505.72L1570.16 1492.43L1579.84 1497.35L1584.18 1507.23Z" fill="#B64C41"/>
<path d="M1517.38 1470.78C1517.38 1470.78 1516.17 1464.24 1510.85 1462.3C1510.85 1462.3 1511.48 1463.05 1508.92 1463.87C1506.37 1464.68 1507.11 1466.44 1506.2 1467.24C1506.2 1467.24 1509.89 1472.14 1517.38 1470.78Z" fill="#B64C41"/>
<path d="M1516.35 1471.64L1516.21 1471.57C1515.8 1471.36 1515.64 1470.86 1515.84 1470.45L1516.59 1468.98C1516.8 1468.57 1517.3 1468.41 1517.71 1468.62L1517.85 1468.69C1518.26 1468.89 1518.42 1469.4 1518.21 1469.8L1517.46 1471.28C1517.26 1471.68 1516.76 1471.85 1516.35 1471.64Z" fill="#4A75CB"/>
<path d="M1585.47 1505.37C1585.47 1505.37 1591.46 1502.49 1596.16 1505.64C1596.16 1505.64 1595.18 1505.58 1596.03 1508.12C1596.88 1510.66 1595.02 1511.1 1594.91 1512.31C1594.91 1512.31 1588.79 1512.22 1585.47 1505.37Z" fill="#B64C41"/>
<path d="M1585.38 1506.71L1585.52 1506.78C1585.93 1506.99 1586.43 1506.82 1586.64 1506.41L1587.38 1504.94C1587.59 1504.53 1587.43 1504.03 1587.02 1503.83L1586.88 1503.75C1586.47 1503.55 1585.97 1503.71 1585.76 1504.12L1585.01 1505.59C1584.81 1506 1584.97 1506.5 1585.38 1506.71Z" fill="#4A75CB"/>
<path d="M1663.55 1505.97C1662.85 1506.37 1662.08 1506.57 1661.32 1506.58C1660.89 1506.59 1660.47 1506.53 1660.06 1506.42C1658.92 1506.12 1657.89 1505.38 1657.26 1504.29L1623.48 1445.91C1622.21 1443.72 1622.97 1440.89 1625.16 1439.62C1626.26 1438.99 1627.51 1438.86 1628.65 1439.16C1629.8 1439.47 1630.82 1440.2 1631.45 1441.3L1665.23 1499.68C1666.5 1501.87 1665.74 1504.7 1663.55 1505.97Z" fill="#F1A34F"/>
<path d="M1634.68 1465.27L1638.18 1452.93L1632.74 1443.53L1630.39 1457.85L1634.68 1465.27Z" fill="#F9DDBF"/>
<path d="M1642.93 1479.53L1638.64 1472.11L1640.99 1457.78L1646.43 1467.18L1642.93 1479.53Z" fill="#F9DDBF"/>
<path d="M1651.17 1493.77L1646.88 1486.35L1649.23 1472.03L1654.67 1481.43L1651.17 1493.77Z" fill="#F9DDBF"/>
<path d="M1661.32 1506.58C1660.89 1506.59 1660.47 1506.53 1660.06 1506.43C1658.91 1506.12 1657.89 1505.38 1657.26 1504.29L1655.28 1500.86L1657.63 1486.53L1663.06 1495.94L1661.32 1506.58Z" fill="#F9DDBF"/>
<path d="M1625.16 1439.62C1625.16 1439.62 1627.71 1433.48 1624.31 1428.96C1624.31 1428.96 1624.42 1429.93 1621.84 1429.22C1619.25 1428.51 1618.91 1430.39 1617.72 1430.57C1617.72 1430.57 1618.14 1436.68 1625.16 1439.62Z" fill="#F1A34F"/>
<path d="M1623.83 1439.78L1623.75 1439.65C1623.52 1439.25 1623.66 1438.74 1624.05 1438.51L1625.48 1437.68C1625.88 1437.45 1626.39 1437.59 1626.62 1437.99L1626.7 1438.12C1626.93 1438.52 1626.79 1439.03 1626.39 1439.26L1624.96 1440.09C1624.57 1440.31 1624.06 1440.18 1623.83 1439.78Z" fill="#D3671E"/>
<path d="M1663.41 1505.72C1663.41 1505.72 1670 1506.58 1672.23 1511.78C1672.23 1511.78 1671.44 1511.19 1670.77 1513.79C1670.1 1516.38 1668.29 1515.74 1667.55 1516.69C1667.55 1516.69 1662.46 1513.28 1663.41 1505.72Z" fill="#F1A34F"/>
<path d="M1662.6 1506.8L1662.68 1506.94C1662.91 1507.33 1663.42 1507.47 1663.82 1507.24L1665.25 1506.41C1665.64 1506.18 1665.78 1505.67 1665.55 1505.28L1665.47 1505.14C1665.24 1504.74 1664.73 1504.61 1664.34 1504.84L1662.91 1505.66C1662.51 1505.89 1662.37 1506.4 1662.6 1506.8Z" fill="#D3671E"/>
<path d="M1554.25 1522.34C1553.53 1521.96 1552.95 1521.42 1552.54 1520.78C1552.31 1520.42 1552.13 1520.03 1552 1519.63C1551.65 1518.5 1551.73 1517.24 1552.33 1516.12L1583.84 1456.49C1585.02 1454.25 1587.82 1453.39 1590.06 1454.57C1591.18 1455.16 1591.95 1456.16 1592.3 1457.29C1592.65 1458.42 1592.57 1459.67 1591.98 1460.79L1560.47 1520.42C1559.28 1522.66 1556.49 1523.53 1554.25 1522.34Z" fill="#4A75CB"/>
<path d="M1573.39 1476.26L1585.7 1472.67L1590.77 1463.07L1577.39 1468.69L1573.39 1476.26Z" fill="#699FF0"/>
<path d="M1565.69 1490.83L1569.69 1483.25L1583.08 1477.63L1578.01 1487.23L1565.69 1490.83Z" fill="#699FF0"/>
<path d="M1558 1505.38L1562.01 1497.8L1575.39 1492.18L1570.32 1501.79L1558 1505.38Z" fill="#699FF0"/>
<path d="M1552.54 1520.78C1552.31 1520.42 1552.13 1520.03 1552 1519.63C1551.65 1518.5 1551.73 1517.24 1552.33 1516.12L1554.18 1512.62L1567.56 1507L1562.49 1516.6L1552.54 1520.78Z" fill="#699FF0"/>
<path d="M1590.06 1454.57C1590.06 1454.57 1596.61 1453.46 1598.64 1448.18C1598.64 1448.18 1597.87 1448.8 1597.1 1446.23C1596.33 1443.66 1594.56 1444.38 1593.77 1443.45C1593.77 1443.45 1588.82 1447.06 1590.06 1454.57Z" fill="#699FF0"/>
<path d="M1589.21 1453.53L1589.29 1453.39C1589.5 1452.99 1590 1452.83 1590.41 1453.04L1591.87 1453.81C1592.27 1454.03 1592.43 1454.53 1592.22 1454.94L1592.14 1455.08C1591.93 1455.48 1591.42 1455.64 1591.02 1455.42L1589.56 1454.65C1589.15 1454.44 1589 1453.93 1589.21 1453.53Z" fill="#4A75CB"/>
<path d="M1554.38 1522.09C1554.38 1522.09 1557.15 1528.13 1553.94 1532.78C1553.94 1532.78 1554.01 1531.81 1551.46 1532.61C1548.9 1533.42 1548.49 1531.55 1547.29 1531.43C1547.29 1531.43 1547.47 1525.3 1554.38 1522.09Z" fill="#4A75CB"/>
<path d="M1553.04 1521.98L1552.96 1522.12C1552.75 1522.53 1552.91 1523.03 1553.31 1523.25L1554.77 1524.02C1555.17 1524.23 1555.68 1524.07 1555.89 1523.67L1555.97 1523.53C1556.18 1523.13 1556.02 1522.62 1555.62 1522.41L1554.16 1521.64C1553.75 1521.42 1553.25 1521.58 1553.04 1521.98Z" fill="#4A75CB"/>
<path d="M1617.2 1468.14C1617.2 1468.14 1619.95 1472.02 1622.48 1472.07C1625 1472.13 1628.84 1470.28 1628.84 1470.28C1628.84 1470.28 1631.16 1465.11 1629.59 1463.09C1629.59 1463.09 1628.01 1462.4 1626.36 1463.62C1626.08 1463.83 1625.79 1464.1 1625.51 1464.44C1625.11 1464.92 1624.66 1465.19 1624.18 1465.33C1622.38 1465.88 1620.25 1464.59 1619.45 1465.84C1618.98 1466.56 1618.47 1467.1 1618.05 1467.48C1617.56 1467.93 1617.2 1468.14 1617.2 1468.14Z" fill="#B64C41"/>
<path d="M1653.1 1496.1C1653.1 1496.1 1643.37 1472.52 1625.85 1472.07C1625.85 1472.07 1609.68 1473.87 1608.78 1496.1H1653.1Z" fill="#B64C41"/>
<path d="M1630.65 1472.79C1630.65 1472.79 1623.62 1474.35 1621.46 1473.44C1621.46 1473.44 1621.13 1470.5 1624.09 1470.91C1626.11 1471.19 1627.43 1470.22 1628.2 1469.83C1629.3 1469.27 1630.94 1471.56 1630.65 1472.79Z" fill="#963333"/>
<path d="M1624.54 1468.37C1624.98 1468.7 1626.36 1463.62 1626.36 1463.62C1626.08 1463.83 1625.79 1464.1 1625.51 1464.44C1625.11 1464.92 1624.66 1465.19 1624.19 1465.33C1624.18 1465.48 1624.1 1468.04 1624.54 1468.37Z" fill="#963333"/>
<path d="M1618.05 1467.49C1618.15 1467.55 1621.4 1469.49 1621.84 1469.49C1622.29 1469.49 1619.45 1465.84 1619.45 1465.84C1618.98 1466.56 1618.47 1467.1 1618.05 1467.49Z" fill="#963333"/>
<path d="M1643.59 1489.52C1643.77 1489.36 1636.7 1479.11 1634.75 1479.04C1632.81 1478.96 1628.43 1481.28 1625.27 1481.58C1622.1 1481.88 1619.03 1480.98 1618.43 1482.85C1617.84 1484.72 1616.19 1491.36 1617.2 1492.42C1618.21 1493.48 1639.7 1492.83 1643.59 1489.52Z" fill="#963333"/>
<path d="M1686.98 1469.4L1686.98 1469.4C1684.08 1469.44 1682.63 1465.06 1682.63 1465.06L1654.4 1473.6C1655.67 1476.7 1653.62 1479.08 1653.62 1479.08C1653.62 1479.08 1648.74 1482.34 1650.26 1487.36L1656.5 1507.99C1657.61 1511.64 1661.51 1513.73 1665.16 1512.62L1694.93 1503.61C1698.59 1502.5 1700.68 1498.61 1699.57 1494.95L1693.32 1474.32C1692.45 1471.43 1689.84 1469.53 1686.98 1469.4Z" fill="#CADDFF"/>
<path d="M1651.58 1472.69L1653.28 1478.29C1653.89 1480.31 1661.62 1479.77 1670.54 1477.06C1679.47 1474.36 1686.2 1470.53 1685.59 1468.51L1683.9 1462.91L1651.58 1472.69Z" fill="#963333"/>
<path d="M1683.89 1462.91C1684.51 1464.93 1677.77 1468.76 1668.85 1471.47C1659.92 1474.17 1652.2 1474.71 1651.58 1472.69C1650.97 1470.67 1657.71 1466.84 1666.63 1464.14C1675.55 1461.43 1683.28 1460.88 1683.89 1462.91Z" fill="#B64C41"/>
<path d="M1611.25 1480.61C1609.23 1479.63 1609.74 1476.09 1609.74 1476.09L1587.18 1472.23C1586.98 1474.82 1584.74 1475.76 1584.74 1475.76C1584.74 1475.76 1580.22 1476.33 1579.53 1480.34L1576.71 1496.83C1576.21 1499.75 1578.19 1502.55 1581.11 1503.05L1604.91 1507.12C1607.83 1507.62 1610.63 1505.64 1611.13 1502.72L1613.95 1486.23C1614.35 1483.92 1613.19 1481.69 1611.25 1480.61Z" fill="#B7D2F9"/>
<path d="M1585.54 1470.61L1584.77 1475.09C1584.5 1476.71 1590.05 1479.01 1597.18 1480.23C1604.32 1481.45 1610.32 1481.13 1610.6 1479.51L1611.37 1475.03L1585.54 1470.61Z" fill="#C95C12"/>
<path d="M1611.37 1475.03C1611.09 1476.65 1605.08 1476.97 1597.95 1475.75C1590.82 1474.53 1585.26 1472.23 1585.54 1470.61C1585.82 1469 1591.82 1468.67 1598.95 1469.89C1606.09 1471.11 1611.64 1473.41 1611.37 1475.03Z" fill="#F1A34F"/>
<path d="M1539.36 1602.57H1679.14V1487.3H1539.36V1602.57Z" fill="#D3671E"/>
<path d="M1609.25 1602.57H1749.04V1487.3H1609.25V1602.57Z" fill="#F99746"/>
<path d="M1609.25 1487.3H1749.4V1527.46L1609.25 1544.93V1487.3Z" fill="#ED7D2B"/>
<path d="M1609.25 1487.3L1636.91 1517.63H1774.85L1749.04 1487.3H1609.25Z" fill="#F99746"/>
<path d="M1539.44 1573.33H1561.59L1559.64 1567.1L1561.59 1562.65H1539.44V1573.33Z" fill="#F99746"/>
<path d="M1609.25 1500.33L1579.78 1529.8H1539.44V1487.3H1609.25V1500.33Z" fill="#C95C12"/>
<path d="M1539.36 1487.3L1507.93 1517.63H1577.86L1609.25 1487.3H1539.36Z" fill="#F99746"/>
<path d="M1367.81 960.435C1226.78 934.355 1143.77 1101.14 1129.5 1121.79C1115.24 1101.14 1032.22 934.354 891.196 960.435C735.656 989.2 668.769 1135.91 727.535 1279.11C775.415 1395.79 1084.78 1582.65 1127.29 1604.89V1607.18C1127.29 1607.18 1128.06 1606.79 1129.5 1606.04C1130.94 1606.79 1131.71 1607.18 1131.71 1607.18V1604.89C1174.22 1582.65 1478.69 1393.66 1531.47 1279.11C1590.38 1151.26 1523.35 989.2 1367.81 960.435Z" fill="#F77D48"/>
<path d="M933.711 1291.77C931.176 1297.97 914.369 1296.28 901.412 1287.45C888.549 1278.72 870.051 1270.64 859.536 1263.32C851.649 1257.97 843.48 1237.69 837.283 1225.2C835.687 1222.01 834.184 1219.29 832.964 1217.5C825.359 1215.25 825.828 1207.36 818.786 1204.83C810.429 1201.92 812.965 1197.22 812.965 1197.22C812.965 1197.22 818.974 1194.69 826.298 1195.44C828.927 1195.81 834.185 1203.42 837.283 1208.21C840.194 1210.37 843.668 1213.28 847.424 1216.66C857.565 1225.67 869.02 1237.31 873.62 1243.04C878.972 1249.71 913.619 1257.03 923.008 1264.73C939.72 1278.44 933.711 1291.77 933.711 1291.77Z" fill="#ED985F"/>
<path d="M873.721 1387.14L910.05 1588.81L922.633 1589.64C922.633 1589.64 932.523 1501.81 924.05 1471.5C915.578 1441.18 938.668 1402.84 932.181 1376.54C925.694 1350.24 873.721 1387.14 873.721 1387.14Z" fill="#ED985F"/>
<path d="M915.516 1275.73L883.795 1270.57C882.285 1265.42 881.853 1258.34 881.831 1252.08C881.81 1244.3 882.427 1237.79 882.427 1237.79L908.024 1235.33L919.394 1234.23C913.148 1246.14 915.516 1275.73 915.516 1275.73Z" fill="#FFB27D"/>
<path d="M916.459 1240.48C916.459 1240.48 899.51 1254.93 881.831 1252.08C881.81 1244.3 882.427 1237.79 882.427 1237.79L908.024 1235.33L916.459 1240.48Z" fill="#ED985F"/>
<path d="M897.908 1436.82C891.486 1454.68 885.716 1472.88 888.608 1487.8C889.459 1492.21 889.99 1496.77 890.246 1501.42C890.48 1505.69 890.494 1510.03 890.317 1514.38C888.906 1549.54 875.516 1585.38 873.446 1590.73C873.269 1591.18 873.177 1591.41 873.177 1591.41L862.041 1590.23L857.249 1378.62C857.249 1378.62 908.102 1358.08 910.937 1385.02C912.404 1398.94 904.784 1417.69 897.908 1436.82Z" fill="#FFB27D"/>
<path d="M928.304 1448.81C928.304 1448.81 925.058 1449.28 920.23 1449.81C911.171 1450.8 896.568 1451.97 887.545 1450.58C883.242 1449.93 880.832 1442.82 879.698 1433.28C877.181 1412.14 880.938 1379.04 884.355 1377.57C889.317 1375.45 933.245 1377.25 933.245 1377.25C933.245 1377.25 942.836 1400.96 928.304 1448.81Z" fill="#35488B"/>
<path d="M920.939 1449.81C911.88 1450.8 897.277 1451.97 888.253 1450.58C883.95 1449.93 881.54 1442.82 880.406 1433.28L904.486 1393.88L922.562 1386.79C922.562 1386.79 929.82 1417 920.939 1449.81Z" fill="#2C3A64"/>
<path d="M857.064 1377.93C857.064 1377.93 847.612 1419.75 849.03 1452.83C849.03 1452.83 870.532 1457.08 892.507 1452.83C892.507 1452.83 928.895 1399.9 925.823 1382.89C922.751 1365.88 866.279 1372.49 857.064 1377.93Z" fill="#35488B"/>
<path d="M874.345 1232.7C874.345 1232.7 903.917 1256.14 918.235 1237.5C932.552 1218.86 946.011 1209.33 927.735 1193.58C909.459 1177.82 900.284 1182.08 893.991 1187.14C887.7 1192.2 867.022 1226.12 874.345 1232.7Z" fill="#FFB27D"/>
<path d="M948.731 1200.58C948.731 1200.58 947.089 1200.05 945.204 1200.62C945.202 1200.6 945.201 1200.58 945.201 1200.58C947.587 1196.17 945.798 1189.32 945.798 1189.32C946.395 1193.08 943.014 1197.49 943.014 1197.49C942.815 1183.58 908.413 1174.97 905.231 1174.09C902.049 1173.21 902.447 1167.91 902.447 1167.91C895.885 1169.23 888.925 1177.62 889.124 1185.79C889.323 1193.96 896.084 1209.64 900.459 1209.86C904.834 1210.08 902.845 1213.61 899.862 1218.46C896.879 1223.32 900.754 1236.51 906.123 1241.15C910.448 1244.88 912.72 1241.76 915.255 1240.38C915.884 1240.04 916.554 1239.78 917.252 1239.62C927.285 1237.38 937.723 1227.47 942.914 1214.82C944.977 1209.8 945.265 1204.76 945.258 1202.24C946.114 1201.74 947.766 1200.82 948.731 1200.58Z" fill="#2C3A64"/>
<path d="M924.339 1603.55H917.317C914.964 1603.22 913.227 1602.62 910.814 1602.34C907.15 1601.92 905.463 1603.25 905.128 1603.55C905.083 1603.59 905.063 1603.61 905.063 1603.61H875.229C874.478 1602.67 875.199 1600.47 875.905 1598.86C876.381 1597.76 877.417 1596.93 878.698 1596.6C881.862 1595.79 888.099 1595.07 893.81 1590.49C897.023 1587.93 909.328 1581.05 909.328 1581.05L909.393 1581.04C909.664 1581.04 910.95 1581.39 916.546 1585.57C919.44 1587.73 924.37 1582.53 924.37 1582.53C924.37 1582.53 925.296 1583.2 925.987 1584.46C926.543 1585.46 926.948 1586.83 926.628 1588.52C926.183 1590.89 927.619 1595.31 928.766 1598.3C929.462 1600.11 930.047 1601.39 930.047 1601.39C930.047 1601.39 930.381 1602.88 924.339 1603.55Z" fill="#739CF3"/>
<path d="M925.985 1584.46C924.308 1585.51 920.769 1587.57 918.422 1587.84C915.254 1588.21 909.327 1581.05 909.327 1581.05L909.392 1581.04C909.663 1581.04 910.949 1581.39 916.545 1585.57C919.439 1587.73 924.369 1582.53 924.369 1582.53C924.369 1582.53 925.295 1583.2 925.985 1584.46Z" fill="#415DA5"/>
<path d="M924.339 1603.55H917.317C914.964 1603.22 913.227 1602.62 910.814 1602.34C907.15 1601.92 905.463 1603.25 905.128 1603.55C905.083 1603.59 905.063 1603.61 905.063 1603.61H875.229C874.478 1602.67 875.199 1600.47 875.905 1598.86C876.811 1598.14 877.066 1601.95 877.567 1602.56C878.067 1603.16 901.904 1602.78 903.281 1601.89C904.658 1601.01 908.787 1599.46 914.544 1600.68C919.555 1601.73 926.938 1599.02 928.765 1598.3C929.461 1600.11 930.046 1601.39 930.046 1601.39C930.046 1601.39 930.381 1602.88 924.339 1603.55Z" fill="#415DA5"/>
<path d="M876.34 1603.55H869.317C866.964 1603.22 865.227 1602.62 862.815 1602.34C859.151 1601.92 857.464 1603.25 857.128 1603.55C857.083 1603.59 857.063 1603.61 857.063 1603.61H827.229C826.479 1602.67 827.199 1600.47 827.905 1598.86C828.381 1597.76 829.417 1596.93 830.698 1596.6C833.862 1595.79 840.098 1595.07 845.81 1590.49C849.024 1587.93 861.328 1581.05 861.328 1581.05L861.393 1581.04C861.663 1581.04 862.95 1581.39 868.546 1585.57C871.439 1587.73 876.37 1582.53 876.37 1582.53C876.37 1582.53 877.296 1583.2 877.987 1584.46C878.542 1585.46 878.948 1586.83 878.628 1588.52C878.183 1590.89 879.619 1595.31 880.765 1598.3C881.461 1600.11 882.047 1601.39 882.047 1601.39C882.047 1601.39 882.381 1602.88 876.34 1603.55Z" fill="#739CF3"/>
<path d="M877.987 1584.46C876.31 1585.51 872.771 1587.57 870.423 1587.84C867.255 1588.21 861.328 1581.05 861.328 1581.05L861.393 1581.04C861.663 1581.04 862.95 1581.39 868.546 1585.57C871.439 1587.73 876.37 1582.53 876.37 1582.53C876.37 1582.53 877.296 1583.2 877.987 1584.46Z" fill="#415DA5"/>
<path d="M876.34 1603.55H869.317C866.964 1603.22 865.227 1602.62 862.815 1602.34C859.151 1601.92 857.464 1603.25 857.128 1603.55C857.083 1603.59 857.063 1603.61 857.063 1603.61H827.229C826.479 1602.67 827.199 1600.47 827.905 1598.86C828.811 1598.14 829.067 1601.95 829.567 1602.56C830.067 1603.16 853.904 1602.78 855.281 1601.89C856.658 1601.01 860.787 1599.46 866.544 1600.68C871.555 1601.73 878.938 1599.02 880.765 1598.3C881.461 1600.11 882.047 1601.39 882.047 1601.39C882.047 1601.39 882.381 1602.88 876.34 1603.55Z" fill="#415DA5"/>
<path d="M939.402 1386.79C939.402 1386.79 910.967 1395.06 876.375 1389.18C870.052 1388.1 858.955 1384.95 851.103 1380.53L861.53 1297.61L863.677 1259.07C863.677 1259.07 875.616 1255.42 881.4 1255.06C881.4 1255.06 905.622 1257.95 915.014 1255.47C915.014 1255.47 928.474 1258.25 932.33 1270.92C940.355 1297.27 943.041 1329.98 939.402 1386.79Z" fill="white"/>
<path d="M883.29 1291.77C880.661 1297.97 863.854 1296.28 850.991 1287.45C849.864 1286.7 848.738 1285.95 847.517 1285.2C834.935 1277.31 818.598 1269.99 809.02 1263.32C800.006 1257.12 790.523 1231.3 784.139 1220.22C783.576 1219.19 783.012 1218.25 782.449 1217.5C774.937 1215.15 775.407 1207.36 768.365 1204.82C760.009 1201.91 762.45 1197.22 762.45 1197.22C762.45 1197.22 768.553 1194.69 775.783 1195.44C778.506 1195.81 783.763 1203.42 786.768 1208.21C788.834 1209.8 791.369 1211.77 793.998 1213.93C804.702 1223.23 818.129 1236.75 823.105 1243.04C826.955 1247.83 845.921 1252.99 859.817 1258.25C865.263 1260.41 869.958 1262.57 872.587 1264.73C889.299 1278.44 883.29 1291.77 883.29 1291.77Z" fill="#FFB27D"/>
<path d="M883.29 1291.77C880.464 1304.63 847.661 1289.02 846.44 1288.27C848.226 1268.94 847.99 1258.34 853.433 1254.98C864.106 1253.31 880.191 1254.13 883.392 1255.28C909.58 1264.72 883.29 1291.77 883.29 1291.77Z" fill="white"/>
<path d="M847.422 1216.66C846.296 1219.75 843.479 1223.32 837.281 1225.2C835.685 1222.01 834.182 1219.29 832.962 1217.5C825.357 1215.25 825.826 1207.36 818.784 1204.83C810.427 1201.92 812.963 1197.22 812.963 1197.22C812.963 1197.22 818.972 1194.69 826.296 1195.44C828.925 1195.81 834.183 1203.42 837.281 1208.21C840.192 1210.37 843.667 1213.28 847.422 1216.66Z" fill="#FFA412"/>
<path d="M830.003 1208.9C827.161 1211.1 819.57 1218.78 819.57 1218.78L802.07 1196.16C802.07 1196.16 811.017 1190.51 814.006 1188.22C816.72 1186.14 824.694 1178.66 824.694 1178.66L842.194 1201.28C842.194 1201.28 832.846 1206.7 830.003 1208.9Z" fill="white"/>
<path d="M830.004 1208.9C827.162 1211.1 819.571 1218.78 819.571 1218.78L807.244 1202.85C807.244 1202.85 816.191 1197.2 819.18 1194.91C821.893 1192.83 829.867 1185.35 829.867 1185.35L842.194 1201.28C842.194 1201.28 832.847 1206.7 830.004 1208.9Z" fill="white"/>
<path d="M843.94 1199.85L826.441 1177.22L824.632 1178.62L842.13 1201.25L843.94 1199.85Z" fill="white"/>
<path d="M819.508 1218.75L802.009 1196.12L800.199 1197.52L817.698 1220.15L819.508 1218.75Z" fill="white"/>
<path opacity="0.5" d="M796.441 1199.15L773.1 1227.76C770.336 1231.14 765.303 1231.65 761.916 1228.89L750.193 1219.32C746.613 1216.4 746.074 1211.08 748.996 1207.5L772.053 1179.25C775.977 1174.44 782.286 1172.66 787.932 1174.21C788.673 1174.41 789.482 1174.14 789.883 1173.48C790.001 1173.29 790.13 1173.1 790.275 1172.92L791.508 1171.41L800.219 1178.52L798.986 1180.03C798.823 1180.23 798.65 1180.41 798.466 1180.58C797.947 1181.05 797.782 1181.8 798.106 1182.42C800.854 1187.67 800.406 1194.3 796.441 1199.15Z" fill="#EBF3FA"/>
<path opacity="0.3" d="M796.441 1199.15L773.1 1227.75C770.336 1231.14 765.303 1231.65 761.916 1228.89L754.548 1222.87C750.968 1219.95 750.43 1214.63 753.351 1211.05L776.408 1182.8C780.332 1177.99 786.641 1176.21 792.287 1177.76C792.559 1177.84 792.842 1177.85 793.11 1177.8C793.566 1177.71 793.984 1177.44 794.238 1177.03C794.356 1176.84 794.485 1176.65 794.63 1176.48L795.863 1174.97L800.218 1178.52L798.985 1180.03C798.822 1180.23 798.649 1180.41 798.465 1180.58C797.946 1181.05 797.781 1181.8 798.105 1182.42C800.854 1187.67 800.406 1194.29 796.441 1199.15Z" fill="#EBF3FA"/>
<path opacity="0.3" d="M791.61 1195.21L768.269 1223.81C765.505 1227.2 760.472 1227.71 757.085 1224.94L754.548 1222.87C750.968 1219.95 750.43 1214.63 753.351 1211.05L776.408 1182.8C780.332 1177.99 786.641 1176.21 792.287 1177.76C792.559 1177.84 792.842 1177.85 793.11 1177.8C793.107 1178.03 793.16 1178.26 793.275 1178.47C796.024 1183.72 795.576 1190.35 791.61 1195.21Z" fill="#EBF3FA"/>
<path d="M794.448 1201.7L770.055 1181.8L756.353 1198.59L780.746 1218.49L794.448 1201.7Z" fill="#EBF3FA"/>
<path d="M802.634 1176.57L792.934 1168.68L791.067 1170.98L800.768 1178.86L802.634 1176.57Z" fill="#EBF3FA"/>
<path d="M793.997 1213.93C792.307 1216.47 789.302 1218.72 784.139 1220.22C783.576 1219.19 783.012 1218.25 782.449 1217.5C774.937 1215.15 775.407 1207.36 768.365 1204.82C760.009 1201.91 762.45 1197.22 762.45 1197.22C762.45 1197.22 768.553 1194.69 775.783 1195.44C778.506 1195.81 783.763 1203.42 786.768 1208.21C788.833 1209.8 791.368 1211.77 793.997 1213.93Z" fill="#FFA412"/>
<path d="M671.561 1173.64L669.87 1185C669.87 1185 669.12 1185 667.805 1184.91C663.674 1184.63 653.627 1184.06 642.266 1182.84C625.177 1181.15 604.896 1178.15 596.821 1173.17C584.521 1165.66 564.334 1142.66 551.189 1119.65C550.813 1119.09 550.532 1118.53 550.249 1117.96C543.395 1105.76 538.606 1093.64 538.231 1083.97C537.949 1078.06 538.606 1072.99 539.827 1068.58C541.423 1062.75 544.053 1058.15 546.775 1054.68C547.151 1054.12 547.526 1053.55 548.089 1053.08C552.596 1047.73 557.009 1045.48 557.009 1045.48C559.262 1044.54 561.704 1045.67 564.238 1048.39V1048.48C566.304 1050.64 568.557 1053.93 570.717 1058.06C570.811 1058.15 570.905 1058.25 570.905 1058.34C571.374 1059.19 571.844 1060.12 572.408 1061.16C572.595 1061.34 572.689 1061.63 572.783 1061.81C573.816 1063.97 574.848 1066.23 575.882 1068.57C587.431 1093.74 599.731 1131.86 609.965 1143.22C614.378 1148.1 634.565 1157.68 650.62 1164.82C662.171 1169.89 671.561 1173.64 671.561 1173.64Z" fill="#FFB27D"/>
<path d="M518.824 923.172C518.824 923.172 515.333 905.016 495.761 904.034C476.189 903.053 453.125 918.651 455.088 939.068C457.051 959.485 434.968 967.828 431.043 985.004C427.117 1002.18 445.614 1002.22 449.587 1015.43C453.56 1028.64 442.553 1040.58 466.437 1041.67C490.321 1042.76 517.757 1038.63 523.3 1025.24C528.842 1011.85 531.931 957.675 531.931 957.675L518.824 923.172Z" fill="#2C3A64"/>
<path d="M552.717 1108.52C551.583 1114.81 549.712 1120.2 547.457 1125.3C545.579 1129.58 543.438 1133.64 541.233 1137.87C534.775 1150.31 520.442 1156.02 519.053 1180.34C518.578 1188.72 519.635 1199.31 523.079 1213.14C540.042 1281.31 406.039 1223.24 413.617 1205.58C428.68 1170.49 449.06 1150.64 449.747 1121.3C449.754 1121.23 449.74 1121.16 449.733 1121.08C449.662 1119.65 449.613 1115.84 449.584 1110.8C449.513 1098.47 449.556 1078.82 449.676 1068.87C449.676 1068.64 449.683 1068.41 449.683 1068.19C449.74 1063.93 449.725 1060.85 449.591 1060.03C460.586 1020.04 482.411 1020.68 489.854 1021.09C492.611 1021.23 495.503 1021.53 497.878 1021.82C502.655 1019.33 511.219 1007.22 516.181 986.968L517.854 987.754L545.996 1000.98C545.996 1000.98 543.004 1010.13 540.8 1018.9C539.078 1025.76 537.844 1032.38 538.879 1034.24C541.098 1035.13 542.423 1035.7 542.423 1035.7C542.423 1035.7 542.423 1035.71 542.43 1035.73C542.893 1036.89 558.488 1076.6 552.717 1108.52Z" fill="#FFB27D"/>
<path d="M548.57 1584.58L538.275 1589.95C538.275 1589.95 482.283 1512.71 475.639 1446.95C474.461 1435.22 474.854 1423.84 477.406 1413.34C477.406 1413.34 476.287 1406.85 474.412 1396.11C474.039 1393.97 473.637 1391.68 473.215 1389.22C471.625 1380.15 469.672 1369.02 467.503 1356.71C465.363 1344.58 463.018 1331.3 460.593 1317.74C455.823 1291.08 450.799 1263.3 446.558 1240.89L449.905 1239.81L465.225 1234.86L486.071 1228.14L493.549 1204.4L498.427 1203.11L520.48 1197.31C520.48 1197.31 521.442 1199.2 522.934 1205C524.916 1212.66 527.831 1227.19 530.707 1253.29C531.09 1256.87 531.482 1260.65 531.875 1264.68C535.919 1294.22 538.265 1336 531.885 1386.13C530.649 1395.8 529.088 1405.77 527.164 1416.03C525.741 1423.54 525.535 1433.78 526.124 1445.54C528.843 1499.29 548.57 1584.58 548.57 1584.58Z" fill="#35488B"/>
<path d="M530.708 1253.29C516.32 1287.56 485.12 1361.15 473.215 1389.22C471.625 1380.16 469.672 1369.02 467.503 1356.71C465.363 1344.58 463.018 1331.3 460.593 1317.74L455.156 1260.67L465.225 1234.86L478.053 1201.97C478.053 1201.97 487.642 1202.45 498.428 1203.11C507.359 1203.66 517.125 1204.35 522.935 1205C524.917 1212.66 527.832 1227.19 530.708 1253.29Z" fill="#2C3A64"/>
<path d="M694.521 1204.09C689.638 1208.41 669.002 1186.88 667.218 1184.91C663.087 1184.63 653.04 1184.06 641.679 1182.84C645.246 1177.02 648.533 1168.67 650.035 1164.82C661.584 1169.89 670.974 1173.64 670.974 1173.64C670.974 1173.64 688.615 1176.55 691.292 1179.5C698.715 1187.67 699.872 1199.49 694.521 1204.09Z" fill="#F99746"/>
<path d="M689.077 1188.18C685.556 1188.18 616.309 1184.66 616.309 1184.66L664.43 1235.98L770.06 1258.47L689.077 1188.18Z" fill="#699FF0"/>
<path d="M736.981 1253.86C734.685 1260.88 730.644 1282.71 730.644 1282.71L674.777 1264.43C674.777 1264.43 683.472 1244.49 685.914 1237.15C688.13 1230.49 693.06 1208.56 693.06 1208.56L748.927 1226.84C748.927 1226.84 739.278 1246.84 736.981 1253.86Z" fill="#F99746"/>
<path d="M736.981 1253.86C734.685 1260.88 730.644 1282.71 730.644 1282.71L691.292 1269.83C691.292 1269.83 699.987 1249.9 702.429 1242.56C704.646 1235.89 709.575 1213.97 709.575 1213.97L748.927 1226.85C748.927 1226.85 739.278 1246.84 736.981 1253.86Z" fill="#ED7D2B"/>
<path d="M750.421 1222.35L694.553 1204.07L693.09 1208.54L748.958 1226.82L750.421 1222.35Z" fill="#ED7D2B"/>
<path d="M730.676 1282.69L674.809 1264.4L673.346 1268.87L729.213 1287.16L730.676 1282.69Z" fill="#DC8D39"/>
<path d="M747.554 1238.18L767.724 1269.1C770.112 1272.76 769.071 1277.71 765.41 1280.1L752.736 1288.37C748.866 1290.89 743.632 1289.79 741.108 1285.92L721.184 1255.38C717.793 1250.18 718.011 1243.63 721.203 1238.72C721.622 1238.07 721.601 1237.22 721.095 1236.64C720.95 1236.47 720.814 1236.29 720.689 1236.1L719.623 1234.46L729.04 1228.32L730.105 1229.95C730.246 1230.17 730.365 1230.39 730.468 1230.61C730.757 1231.25 731.423 1231.64 732.11 1231.51C737.949 1230.49 744.128 1232.93 747.554 1238.18Z" fill="#ECF2FD"/>
<path d="M747.554 1238.18L767.724 1269.1C770.112 1272.76 769.071 1277.71 765.41 1280.1L757.445 1285.29C753.575 1287.82 748.341 1286.72 745.817 1282.85L725.893 1252.3C722.502 1247.11 722.72 1240.55 725.912 1235.65C726.065 1235.41 726.16 1235.14 726.193 1234.87C726.249 1234.41 726.122 1233.93 725.803 1233.56C725.659 1233.39 725.522 1233.21 725.397 1233.02L724.332 1231.39L729.04 1228.32L730.105 1229.95C730.246 1230.17 730.365 1230.39 730.468 1230.61C730.757 1231.25 731.423 1231.64 732.11 1231.51C737.949 1230.49 744.128 1232.93 747.554 1238.18Z" fill="#E5EAF5"/>
<path opacity="0.3" d="M742.333 1241.58L762.503 1272.5C764.891 1276.17 763.849 1281.12 760.188 1283.5L757.445 1285.29C753.575 1287.82 748.341 1286.72 745.817 1282.85L725.893 1252.3C722.502 1247.11 722.72 1240.55 725.912 1235.65C726.065 1235.41 726.16 1235.14 726.193 1234.87C726.411 1234.94 726.649 1234.96 726.889 1234.92C732.727 1233.89 738.905 1236.33 742.333 1241.58Z" fill="#CED4EA"/>
<path d="M749.28 1240.73L722.913 1257.93L734.754 1276.08L761.121 1258.88L749.28 1240.73Z" fill="#EBF3FA"/>
<path d="M727.742 1225.34L717.287 1232.19L718.909 1234.67L729.364 1227.82L727.742 1225.34Z" fill="#EBF3FA"/>
<path d="M678.048 1225.09L685.533 1261.24C686.419 1265.52 683.641 1269.75 679.361 1270.63L664.544 1273.7C660.02 1274.64 655.549 1271.7 654.612 1267.18L647.218 1231.47C645.96 1225.39 648.554 1219.37 653.32 1215.97C653.945 1215.52 654.239 1214.72 653.979 1213.99C653.906 1213.78 653.845 1213.56 653.798 1213.34L653.403 1211.43L664.413 1209.15L664.808 1211.06C664.86 1211.31 664.891 1211.56 664.905 1211.81C664.941 1212.51 665.421 1213.11 666.105 1213.25C671.915 1214.42 676.776 1218.95 678.048 1225.09Z" fill="#ECF2FD"/>
<path d="M678.049 1225.09L685.534 1261.24C686.42 1265.52 683.642 1269.75 679.362 1270.63L670.049 1272.56C665.525 1273.5 661.054 1270.56 660.117 1266.04L652.722 1230.33C651.463 1224.25 654.058 1218.23 658.823 1214.83C659.052 1214.67 659.238 1214.45 659.367 1214.21C659.587 1213.8 659.644 1213.31 659.482 1212.85C659.409 1212.64 659.349 1212.42 659.302 1212.2L658.906 1210.29L664.411 1209.15L664.805 1211.06C664.857 1211.31 664.889 1211.56 664.903 1211.81C664.939 1212.51 665.418 1213.11 666.102 1213.25C671.915 1214.42 676.777 1218.95 678.049 1225.09Z" fill="#E5EAF5"/>
<path opacity="0.3" d="M671.942 1226.35L679.427 1262.5C680.313 1266.78 677.535 1271.01 673.256 1271.9L670.049 1272.56C665.525 1273.5 661.054 1270.56 660.117 1266.04L652.723 1230.33C651.464 1224.25 654.059 1218.23 658.824 1214.83C659.053 1214.66 659.239 1214.45 659.368 1214.21C659.545 1214.36 659.759 1214.46 659.998 1214.51C665.809 1215.69 670.671 1220.21 671.942 1226.35Z" fill="#CED4EA"/>
<path d="M678.704 1228.12L647.876 1234.51L652.271 1255.73L683.099 1249.34L678.704 1228.12Z" fill="#ED7D2B"/>
<path d="M664.381 1205.92L652.146 1208.48L652.752 1211.37L664.987 1208.81L664.381 1205.92Z" fill="#ED7D2B"/>
<path d="M806.297 1463.58L794.372 1539.45L790.898 1561.33L784.044 1605.18H691.277C691.277 1605.18 679.071 1597.66 663.203 1587.81C636.162 1570.81 598.792 1547.15 595.036 1542.92C592.595 1540.2 588.369 1519.73 584.238 1496.64C578.416 1463.68 572.783 1425.18 572.783 1425.18L606.773 1361.71L577.478 1291.57L616.162 1184.66L664.235 1235.99L769.959 1258.43L806.297 1463.58Z" fill="#AAC9F5"/>
<path d="M668.391 1449.62L657.828 1509.48L737.051 1454.31L668.391 1449.62Z" fill="#AAC9F5"/>
<path d="M794.226 1539.45L783.898 1605.18H691.131C691.131 1605.18 678.925 1597.66 663.057 1587.81L655.358 1565.18L744.556 1524.71L755.26 1524.15L794.226 1539.45Z" fill="#AAC9F5"/>
<path d="M806.297 1463.58L794.372 1539.45L790.898 1561.33C784.889 1558.32 743.013 1536.73 744.703 1524.71C746.487 1511.84 806.297 1463.58 806.297 1463.58Z" fill="#C3D9FA"/>
<path d="M595.037 1542.92C595.037 1542.92 651.373 1559.94 655.481 1565.22C659.589 1570.51 671.325 1592.81 671.325 1592.81L595.037 1542.92Z" fill="#C3D9FA"/>
<path d="M668.392 1449.62C668.392 1449.62 712.992 1436.71 717.099 1430.84C721.207 1424.97 749.962 1389.18 749.962 1389.18C749.962 1389.18 742.334 1447.27 737.052 1454.31C731.77 1461.35 668.392 1449.62 668.392 1449.62Z" fill="#C3D9FA"/>
<path d="M631.843 1407.53L584.239 1496.64C578.417 1463.68 572.784 1425.18 572.784 1425.18L599.732 1393.45L631.843 1407.53Z" fill="#9DC1ED"/>
<path d="M631.843 1407.53C631.843 1407.53 606.022 1397.39 572.784 1425.18L606.774 1361.71L631.843 1407.53Z" fill="#C3D9FA"/>
<path d="M577.479 1291.57L656.068 1312.1L688.93 1362.18L577.479 1291.57Z" fill="#C3D9FA"/>
<path d="M657.828 1509.48L655.481 1565.22L744.703 1524.71L806.297 1463.58L749.961 1389.17L722.967 1460.77L657.828 1509.48Z" fill="#9DC1ED"/>
<path d="M571.448 943.313C571.448 943.313 563.896 916.139 542.043 913.522C520.19 910.905 506.45 923.991 503.505 936.75C500.561 949.509 502.689 982.88 516.183 986.969C529.677 991.056 571.448 943.313 571.448 943.313Z" fill="#2C3A64"/>
<path d="M508.722 1212.23L507.368 1200.62C484.684 1206.64 424.077 1183.78 424.077 1183.78C424.077 1183.78 402.102 1203.1 404.988 1249.4C406.396 1272 407.31 1310.35 407.31 1310.35H407.312C407.255 1343.24 409.702 1375.81 411.654 1396.46C412.625 1406.75 413.476 1414.08 413.823 1417.01C413.83 1417.03 413.83 1417.03 413.83 1417.04C413.936 1417.93 413.625 1418.78 413.171 1419.56C409.216 1426.27 405.468 1433.1 403.254 1440.41C387.759 1491.6 399.956 1570.24 399.956 1570.24L415.213 1594.03C415.213 1594.03 432.53 1497.73 446.601 1455.18C448.99 1447.97 451.279 1442.3 453.377 1438.91C459.495 1429.03 465.172 1412.9 470.326 1393.71C480.011 1357.64 508.722 1212.23 508.722 1212.23Z" fill="#35488B"/>
<path d="M546 1000.99C546 1000.99 543.008 1010.13 540.804 1018.9C524.356 1014.31 519.361 997.025 517.858 987.757L546 1000.99Z" fill="#ED985F"/>
<path d="M549.463 1010.67C549.463 1010.67 510.112 1001.56 516.161 977.145C522.21 952.726 521.203 935.105 546.584 939.887C571.965 944.669 574.52 955.193 574.484 963.833C574.449 972.475 559.856 1012.41 549.463 1010.67Z" fill="#FFB27D"/>
<path d="M576.697 949.97C572.466 941.119 567.487 941.592 564.373 943.161C545.882 926.053 527.747 940.029 527.747 940.029C520.766 956.892 505.638 963.783 505.638 963.783C505.638 963.783 511.683 969.973 529.204 969.837C534.556 969.796 539.937 967.338 544.833 963.952C535.389 973.465 524.315 979.256 524.315 979.256C546.249 975.059 560.956 949.666 562.463 946.969C564.321 949.713 567.875 955.554 568.174 960.487C568.58 967.189 566.274 980.206 570.112 980.699C570.112 980.699 583.042 963.244 576.697 949.97Z" fill="#2C3A64"/>
<path d="M565.087 1047.75C565.087 1047.75 574.562 1064.28 575.98 1068.53C575.98 1068.53 563.693 1068.06 558.731 1077.51C558.731 1077.51 559.156 1050.13 565.087 1047.75Z" fill="#F99746"/>
<path d="M561.81 1096.99C561.525 1097.76 561.191 1098.53 560.838 1099.3C550.965 1120.57 541.974 1138.32 541.974 1138.32C541.729 1138.17 540.541 1217.12 528.597 1220.23C521.854 1221.98 502.618 1224.55 488.848 1225.46C482.154 1225.9 463.821 1226.93 447.018 1225.46C425.829 1223.6 413.776 1218.81 405.689 1211.48C396.1 1198.71 440.521 1156.62 446.556 1126.33C446.477 1124.75 446.752 1119.67 447.184 1113.04C447.95 1100.94 449.187 1083.68 449.559 1073.13C449.627 1071.55 449.667 1070.12 449.677 1068.87C449.677 1068.63 449.687 1068.41 449.687 1068.19C451.827 1066.6 453.917 1065.13 455.841 1063.72C462.024 1059.22 466.647 1055.37 466.941 1050.43C467.049 1048.49 466.99 1046.49 466.784 1044.49C466.696 1043.55 466.578 1042.6 466.431 1041.67C464.91 1031.77 460.788 1022.8 460.788 1022.8C471.241 1018.56 489.859 1021.08 489.859 1021.08C489.859 1021.08 489.829 1022.12 489.819 1023.81C489.751 1030.61 489.819 1048.06 491.998 1051.36C494.727 1055.47 544.574 1073.5 547.205 1067.92C549.796 1062.43 542.7 1036.71 542.435 1035.73C542.425 1035.71 542.425 1035.7 542.425 1035.7C559.119 1042.25 565.087 1047.75 565.087 1047.75C555.028 1054.28 569.593 1076.36 561.81 1096.99Z" fill="#F99746"/>
<path d="M492.776 1173.57C479.683 1167.51 459.887 1135.78 447.187 1113.05C447.953 1100.94 449.19 1083.68 449.562 1073.13L492.776 1173.57Z" fill="#ED7D2B"/>
<path d="M590.625 1192.14L587.338 1204.16C587.338 1204.16 583.207 1203.41 576.634 1202.19C574.662 1201.81 573.536 1201.53 573.536 1201.53C568.278 1200.5 561.987 1199.09 555.133 1197.59H555.039C543.302 1194.77 530.157 1191.39 519.078 1187.63C511.285 1184.91 504.525 1182 499.924 1179.09C499.455 1178.81 499.079 1178.52 498.609 1178.15C487.624 1170.17 474.572 1146.7 464.432 1121.53C463.023 1118.06 461.709 1114.58 460.394 1111.2C455.699 1098.62 451.944 1086.23 449.691 1075.52C448.282 1069.14 447.343 1063.32 447.155 1058.53C447.061 1056.84 446.967 1055.24 447.061 1053.74C447.249 1026.51 460.769 1022.76 460.769 1022.76C461.05 1022.66 461.332 1022.57 461.708 1022.48C464.055 1022.1 466.497 1023.7 469.032 1026.79C472.224 1030.64 475.605 1036.94 479.079 1044.54C484.43 1056.65 490.064 1072.33 495.322 1087.92C498.233 1096.46 501.049 1105.01 503.866 1112.89C505.463 1117.68 507.059 1122.19 508.561 1126.32C511.472 1134.21 514.101 1140.59 516.448 1144.63C517.95 1147.26 522.269 1150.92 527.997 1155.05C537.95 1162.28 552.503 1171.02 565.179 1178.15C570.437 1181.16 575.413 1183.88 579.544 1186.13C586.211 1189.79 590.625 1192.14 590.625 1192.14Z" fill="#FFB27D"/>
<path d="M479.046 1044.58C460.97 1039.59 447.027 1053.71 447.027 1053.71C447.253 1026.52 460.786 1022.8 460.786 1022.8C466.23 1020.55 472.539 1029.97 479.046 1044.58Z" fill="#F99746"/>
<path d="M630.083 1204.06C624.074 1206.59 615.624 1215.42 602.103 1210.07C592.432 1206.31 582.198 1203.68 577.221 1202.46C575.249 1202.09 574.123 1201.81 574.123 1201.81C568.865 1200.77 562.574 1199.36 555.72 1197.86C561.353 1190.91 564.546 1182.09 565.767 1178.42C571.025 1181.43 576.001 1184.15 580.132 1186.41C593.742 1191.6 601.258 1190.91 609.521 1189.04C618.816 1186.88 634.403 1198.05 634.403 1198.05C634.403 1198.05 636.092 1201.62 630.083 1204.06Z" fill="#F99746"/>
<path d="M456.767 1600.49H396.038C396.038 1600.49 393.768 1590.81 397.755 1584.21C401.284 1578.38 399.782 1571.67 399.065 1563.71C401.816 1564.83 405.32 1567.73 409.188 1568.39C413.441 1569.13 417.657 1567.9 420.463 1566.27C423.077 1569.25 430.383 1584.65 433.88 1587.16C437.849 1590.01 455.545 1589 456.767 1600.49Z" fill="#233862"/>
<path d="M579.256 1600.49H518.528C518.528 1600.49 516.257 1590.81 520.244 1584.21C523.773 1578.38 522.271 1571.67 521.555 1563.71C524.306 1564.83 527.81 1567.73 531.677 1568.39C535.93 1569.13 541.427 1566.32 544.233 1564.69C545.609 1576.49 552.872 1584.65 556.369 1587.16C560.337 1590.01 578.034 1589 579.256 1600.49Z" fill="#233862"/>
<path d="M2794.63 1607.46H3.10599C1.39699 1607.46 0 1606.07 0 1604.36V1603.44C0 1601.74 1.39699 1600.34 3.10599 1600.34H2794.63C2796.34 1600.34 2797.73 1601.74 2797.73 1603.44V1604.36C2797.73 1606.07 2796.34 1607.46 2794.63 1607.46Z" fill="#2E3552"/>
</svg>
